NotoSerifTamilSlanted-CondensedBoldItalic.ufo
<glyph name="quotedbl" format="2">
  <advance width="459"/>
  <unicode hex="0022"/>
  <outline>
    <contour>
      <point x="124" y="425" type="line"/>
      <point x="193" y="425" type="line"/>
      <point x="323" y="714" type="line"/>
      <point x="158" y="714" type="line"/>
    </contour>
    <contour>
      <point x="325" y="425" type="line"/>
      <point x="394" y="425" type="line"/>
      <point x="523" y="714" type="line"/>
      <point x="359" y="714" type="line"/>
    </contour>
  </outline>
</glyph>
<glyph name="numbersign" format="2">
  <advance width="456"/>
  <unicode hex="0023"/>
  <outline>
    <contour>
      <point x="48" y="0" type="line"/>
      <point x="114" y="0" type="line"/>
      <point x="170" y="199" type="line"/>
      <point x="256" y="199" type="line"/>
      <point x="201" y="0" type="line"/>
      <point x="268" y="0" type="line"/>
      <point x="322" y="199" type="line"/>
      <point x="418" y="199" type="line"/>
      <point x="426" y="271" type="line"/>
      <point x="344" y="271" type="line"/>
      <point x="391" y="447" type="line"/>
      <point x="475" y="447" type="line"/>
      <point x="486" y="521" type="line"/>
      <point x="414" y="521" type="line"/>
      <point x="467" y="714" type="line"/>
      <point x="401" y="714" type="line"/>
      <point x="348" y="521" type="line"/>
      <point x="261" y="521" type="line"/>
      <point x="313" y="714" type="line"/>
      <point x="247" y="714" type="line"/>
      <point x="196" y="521" type="line"/>
      <point x="102" y="521" type="line"/>
      <point x="91" y="447" type="line"/>
      <point x="173" y="447" type="line"/>
      <point x="124" y="271" type="line"/>
      <point x="43" y="271" type="line"/>
      <point x="35" y="199" type="line"/>
      <point x="104" y="199" type="line"/>
    </contour>
    <contour>
      <point x="189" y="271" type="line"/>
      <point x="238" y="447" type="line"/>
      <point x="326" y="447" type="line"/>
      <point x="277" y="271" type="line"/>
    </contour>
  </outline>
</glyph>
<glyph name="quotesingle" format="2">
  <advance width="271"/>
  <unicode hex="0027"/>
  <outline>
    <contour>
      <point x="141" y="425" type="line"/>
      <point x="210" y="425" type="line"/>
      <point x="323" y="714" type="line"/>
      <point x="160" y="714" type="line"/>
    </contour>
  </outline>
</glyph>
<glyph name="parenleft" format="2">
  <advance width="367"/>
  <unicode hex="0028"/>
  <outline>
    <contour>
      <point x="253" y="-143" type="curve"/>
      <point x="269" y="-73" type="line"/>
      <point x="225" y="-30"/>
      <point x="209" y="46"/>
      <point x="209" y="120" type="curve" smooth="yes"/>
      <point x="209" y="244"/>
      <point x="257" y="587"/>
      <point x="435" y="707" type="curve"/>
      <point x="446" y="776" type="line"/>
      <point x="176" y="707"/>
      <point x="41" y="418"/>
      <point x="41" y="170" type="curve" smooth="yes"/>
      <point x="41" y="31"/>
      <point x="104" y="-89"/>
    </contour>
  </outline>
</glyph>
<glyph name="parenright" format="2">
  <advance width="367"/>
  <unicode hex="0029"/>
  <outline>
    <contour>
      <point x="-38" y="-138" type="line"/>
      <point x="233" y="-70"/>
      <point x="367" y="220"/>
      <point x="367" y="467" type="curve" smooth="yes"/>
      <point x="367" y="606"/>
      <point x="305" y="726"/>
      <point x="156" y="780" type="curve"/>
      <point x="140" y="710" type="line"/>
      <point x="183" y="668"/>
      <point x="198" y="592"/>
      <point x="198" y="518" type="curve" smooth="yes"/>
      <point x="198" y="394"/>
      <point x="152" y="50"/>
      <point x="-27" y="-69" type="curve"/>
    </contour>
  </outline>
</glyph>
<glyph name="asterisk" format="2">
  <advance width="523"/>
  <unicode hex="002A"/>
  <outline>
    <contour>
      <point x="344" y="353" type="line"/>
      <point x="345" y="521" type="line"/>
      <point x="436" y="384" type="line"/>
      <point x="504" y="478" type="line"/>
      <point x="397" y="546" type="line"/>
      <point x="516" y="550" type="line"/>
      <point x="498" y="665" type="line"/>
      <point x="360" y="590" type="line"/>
      <point x="429" y="740" type="line"/>
      <point x="322" y="765" type="line"/>
      <point x="318" y="597" type="line"/>
      <point x="228" y="738" type="line"/>
      <point x="161" y="641" type="line"/>
      <point x="269" y="575" type="line"/>
      <point x="147" y="568" type="line"/>
      <point x="167" y="455" type="line"/>
      <point x="304" y="532" type="line"/>
      <point x="238" y="378" type="line"/>
    </contour>
  </outline>
</glyph>
<glyph name="comma" format="2">
  <advance width="288"/>
  <unicode hex="002C"/>
  <outline>
    <contour>
      <point x="-10" y="-153" type="line"/>
      <point x="130" y="-123"/>
      <point x="207" y="-34"/>
      <point x="207" y="73" type="curve" smooth="yes"/>
      <point x="207" y="130"/>
      <point x="175" y="162"/>
      <point x="133" y="162" type="curve" smooth="yes"/>
      <point x="95" y="162"/>
      <point x="59" y="132"/>
      <point x="59" y="85" type="curve" smooth="yes"/>
      <point x="59" y="31"/>
      <point x="95" y="30"/>
      <point x="95" y="-10" type="curve" smooth="yes"/>
      <point x="95" y="-51"/>
      <point x="65" y="-79"/>
      <point x="6" y="-96" type="curve"/>
    </contour>
  </outline>
</glyph>
<glyph name="hyphen" format="2">
  <advance width="253"/>
  <unicode hex="002D"/>
  <outline>
    <contour>
      <point x="14" y="215" type="line"/>
      <point x="226" y="215" type="line"/>
      <point x="254" y="330" type="line"/>
      <point x="42" y="330" type="line"/>
    </contour>
  </outline>
</glyph>
<glyph name="period" format="2">
  <advance width="288"/>
  <unicode hex="002E"/>
  <outline>
    <contour>
      <point x="114" y="-8" type="curve" smooth="yes"/>
      <point x="156" y="-8"/>
      <point x="204" y="17"/>
      <point x="204" y="90" type="curve" smooth="yes"/>
      <point x="204" y="139"/>
      <point x="172" y="163"/>
      <point x="126" y="163" type="curve" smooth="yes"/>
      <point x="72" y="163"/>
      <point x="36" y="123"/>
      <point x="36" y="64" type="curve" smooth="yes"/>
      <point x="36" y="15"/>
      <point x="68" y="-8"/>
    </contour>
  </outline>
</glyph>
<glyph name="slash" format="2">
  <advance width="235"/>
  <unicode hex="002F"/>
  <outline>
    <contour>
      <point x="-97" y="-121" type="line"/>
      <point x="-22" y="-121" type="line"/>
      <point x="371" y="760" type="line"/>
      <point x="296" y="760" type="line"/>
    </contour>
  </outline>
</glyph>
<glyph name="zero" format="2">
  <advance width="505"/>
  <unicode hex="0030"/>
  <outline>
    <contour>
      <point x="228" y="-11" type="curve" smooth="yes"/>
      <point x="429" y="-11"/>
      <point x="525" y="317"/>
      <point x="525" y="512" type="curve" smooth="yes"/>
      <point x="525" y="659"/>
      <point x="453" y="725"/>
      <point x="357" y="725" type="curve" smooth="yes"/>
      <point x="156" y="725"/>
      <point x="57" y="417"/>
      <point x="57" y="214" type="curve" smooth="yes"/>
      <point x="57" y="68"/>
      <point x="125" y="-11"/>
    </contour>
    <contour>
      <point x="234" y="62" type="curve" smooth="yes"/>
      <point x="211" y="62"/>
      <point x="196" y="96"/>
      <point x="196" y="163" type="curve" smooth="yes"/>
      <point x="196" y="329"/>
      <point x="278" y="653"/>
      <point x="353" y="653" type="curve" smooth="yes"/>
      <point x="379" y="653"/>
      <point x="393" y="619"/>
      <point x="393" y="554" type="curve" smooth="yes"/>
      <point x="393" y="392"/>
      <point x="316" y="62"/>
    </contour>
  </outline>
</glyph>
<glyph name="one" format="2">
  <advance width="505"/>
  <unicode hex="0031"/>
  <outline>
    <contour>
      <point x="49" y="0" type="line"/>
      <point x="416" y="0" type="line"/>
      <point x="429" y="57" type="line"/>
      <point x="392" y="57" type="line" smooth="yes"/>
      <point x="358" y="57"/>
      <point x="330" y="60"/>
      <point x="330" y="86" type="curve" smooth="yes"/>
      <point x="330" y="95"/>
      <point x="334" y="115"/>
      <point x="338" y="133" type="curve" smooth="yes"/>
      <point x="463" y="718" type="line"/>
      <point x="336" y="718" type="line"/>
      <point x="268" y="666" type="line" smooth="yes"/>
      <point x="204" y="617"/>
      <point x="160" y="601"/>
      <point x="122" y="589" type="curve"/>
      <point x="120" y="536"/>
      <point x="141" y="508"/>
      <point x="164" y="508" type="curve" smooth="yes"/>
      <point x="199" y="508"/>
      <point x="235" y="544"/>
      <point x="287" y="612" type="curve"/>
      <point x="290" y="612" type="line"/>
      <point x="274" y="568"/>
      <point x="265" y="525"/>
      <point x="256" y="480" type="curve" smooth="yes"/>
      <point x="181" y="119" type="line" smooth="yes"/>
      <point x="172" y="77"/>
      <point x="154" y="57"/>
      <point x="115" y="57" type="curve" smooth="yes"/>
      <point x="62" y="57" type="line"/>
    </contour>
  </outline>
</glyph>
<glyph name="two" format="2">
  <advance width="505"/>
  <unicode hex="0032"/>
  <outline>
    <contour>
      <point x="-10" y="0" type="line"/>
      <point x="406" y="0" type="line"/>
      <point x="462" y="224" type="line"/>
      <point x="401" y="224" type="line"/>
      <point x="394" y="205" type="line" smooth="yes"/>
      <point x="379" y="162"/>
      <point x="358" y="121"/>
      <point x="302" y="121" type="curve" smooth="yes"/>
      <point x="112" y="121" type="line"/>
      <point x="250" y="248" type="line"/>
      <point x="467" y="418"/>
      <point x="520" y="488"/>
      <point x="520" y="592" type="curve" smooth="yes"/>
      <point x="520" y="674"/>
      <point x="452" y="724"/>
      <point x="335" y="724" type="curve" smooth="yes"/>
      <point x="199" y="724"/>
      <point x="126" y="656"/>
      <point x="126" y="573" type="curve" smooth="yes"/>
      <point x="126" y="512"/>
      <point x="178" y="482"/>
      <point x="249" y="482" type="curve"/>
      <point x="252" y="583"/>
      <point x="281" y="658"/>
      <point x="320" y="658" type="curve" smooth="yes"/>
      <point x="345" y="658"/>
      <point x="358" y="624"/>
      <point x="358" y="578" type="curve" smooth="yes"/>
      <point x="358" y="491"/>
      <point x="333" y="424"/>
      <point x="208" y="302" type="curve" smooth="yes"/>
      <point x="12" y="111" type="line"/>
    </contour>
  </outline>
</glyph>
<glyph name="four" format="2">
  <advance width="505"/>
  <unicode hex="0034"/>
  <outline>
    <contour>
      <point x="123" y="0" type="line"/>
      <point x="427" y="0" type="line"/>
      <point x="440" y="57" type="line"/>
      <point x="429" y="57" type="line" smooth="yes"/>
      <point x="399" y="57"/>
      <point x="382" y="62"/>
      <point x="382" y="93" type="curve" smooth="yes"/>
      <point x="382" y="101"/>
      <point x="384" y="120"/>
      <point x="386" y="129" type="curve" smooth="yes"/>
      <point x="510" y="714" type="line"/>
      <point x="356" y="714" type="line"/>
      <point x="53" y="252" type="line"/>
      <point x="35" y="183" type="line"/>
      <point x="465" y="183" type="line"/>
      <point x="480" y="252" type="line"/>
      <point x="85" y="252" type="line"/>
      <point x="99" y="228" type="line"/>
      <point x="231" y="430" type="line" smooth="yes"/>
      <point x="262" y="477"/>
      <point x="308" y="552"/>
      <point x="336" y="614" type="curve"/>
      <point x="318" y="552"/>
      <point x="301" y="474"/>
      <point x="290" y="423" type="curve" smooth="yes"/>
      <point x="228" y="129" type="line" smooth="yes"/>
      <point x="213" y="59"/>
      <point x="174" y="57"/>
      <point x="147" y="57" type="curve" smooth="yes"/>
      <point x="135" y="57" type="line"/>
    </contour>
  </outline>
</glyph>
<glyph name="five" format="2">
  <advance width="505"/>
  <unicode hex="0035"/>
  <outline>
    <contour>
      <point x="196" y="-10" type="curve" smooth="yes"/>
      <point x="368" y="-10"/>
      <point x="467" y="107"/>
      <point x="467" y="258" type="curve" smooth="yes"/>
      <point x="467" y="373"/>
      <point x="393" y="436"/>
      <point x="276" y="436" type="curve" smooth="yes"/>
      <point x="234" y="436"/>
      <point x="207" y="428"/>
      <point x="185" y="420" type="curve"/>
      <point x="229" y="595" type="line"/>
      <point x="404" y="595" type="line" smooth="yes"/>
      <point x="435" y="595"/>
      <point x="445" y="586"/>
      <point x="445" y="571" type="curve" smooth="yes"/>
      <point x="445" y="564"/>
      <point x="442" y="539"/>
      <point x="440" y="521" type="curve"/>
      <point x="504" y="521" type="line"/>
      <point x="538" y="714" type="line"/>
      <point x="196" y="714" type="line"/>
      <point x="103" y="370" type="line"/>
      <point x="143" y="345" type="line"/>
      <point x="162" y="356"/>
      <point x="187" y="367"/>
      <point x="223" y="367" type="curve" smooth="yes"/>
      <point x="275" y="367"/>
      <point x="311" y="328"/>
      <point x="311" y="250" type="curve" smooth="yes"/>
      <point x="311" y="131"/>
      <point x="271" y="65"/>
      <point x="207" y="65" type="curve" smooth="yes"/>
      <point x="134" y="65"/>
      <point x="122" y="140"/>
      <point x="123" y="200" type="curve"/>
      <point x="60" y="200"/>
      <point x="31" y="159"/>
      <point x="31" y="109" type="curve" smooth="yes"/>
      <point x="31" y="44"/>
      <point x="79" y="-10"/>
    </contour>
  </outline>
</glyph>
<glyph name="six" format="2">
  <advance width="505"/>
  <unicode hex="0036"/>
  <outline>
    <contour>
      <point x="241" y="-10" type="curve" smooth="yes"/>
      <point x="407" y="-10"/>
      <point x="489" y="129"/>
      <point x="489" y="272" type="curve" smooth="yes"/>
      <point x="489" y="363"/>
      <point x="448" y="439"/>
      <point x="358" y="439" type="curve" smooth="yes"/>
      <point x="299" y="439"/>
      <point x="263" y="414"/>
      <point x="238" y="390" type="curve"/>
      <point x="273" y="573"/>
      <point x="322" y="661"/>
      <point x="381" y="661" type="curve" smooth="yes"/>
      <point x="418" y="661"/>
      <point x="420" y="595"/>
      <point x="417" y="528" type="curve"/>
      <point x="501" y="528"/>
      <point x="552" y="563"/>
      <point x="552" y="620" type="curve" smooth="yes"/>
      <point x="552" y="676"/>
      <point x="503" y="724"/>
      <point x="410" y="724" type="curve" smooth="yes"/>
      <point x="199" y="724"/>
      <point x="64" y="465"/>
      <point x="64" y="217" type="curve" smooth="yes"/>
      <point x="64" y="65"/>
      <point x="142" y="-10"/>
    </contour>
    <contour>
      <point x="261" y="58" type="curve" smooth="yes"/>
      <point x="229" y="58"/>
      <point x="209" y="96"/>
      <point x="209" y="180" type="curve" smooth="yes"/>
      <point x="209" y="234"/>
      <point x="215" y="274"/>
      <point x="224" y="325" type="curve"/>
      <point x="241" y="349"/>
      <point x="270" y="375"/>
      <point x="298" y="375" type="curve" smooth="yes"/>
      <point x="328" y="375"/>
      <point x="343" y="338"/>
      <point x="343" y="272" type="curve" smooth="yes"/>
      <point x="343" y="155"/>
      <point x="308" y="58"/>
    </contour>
  </outline>
</glyph>
<glyph name="seven" format="2">
  <advance width="505"/>
  <unicode hex="0037"/>
  <outline>
    <contour>
      <point x="107" y="0" type="line"/>
      <point x="187" y="0" type="line"/>
      <point x="558" y="644" type="line"/>
      <point x="573" y="714" type="line"/>
      <point x="168" y="714" type="line"/>
      <point x="118" y="494" type="line"/>
      <point x="182" y="494" type="line"/>
      <point x="196" y="544" type="line" smooth="yes"/>
      <point x="205" y="577"/>
      <point x="225" y="595"/>
      <point x="254" y="595" type="curve" smooth="yes"/>
      <point x="461" y="595" type="line"/>
    </contour>
  </outline>
</glyph>
<glyph name="eight" format="2">
  <advance width="505"/>
  <unicode hex="0038"/>
  <outline>
    <contour>
      <point x="240" y="-10" type="curve" smooth="yes"/>
      <point x="383" y="-10"/>
      <point x="478" y="60"/>
      <point x="478" y="210" type="curve" smooth="yes"/>
      <point x="478" y="287"/>
      <point x="439" y="341"/>
      <point x="387" y="380" type="curve"/>
      <point x="471" y="429"/>
      <point x="531" y="480"/>
      <point x="531" y="583" type="curve" smooth="yes"/>
      <point x="531" y="664"/>
      <point x="467" y="724"/>
      <point x="361" y="724" type="curve" smooth="yes"/>
      <point x="199" y="724"/>
      <point x="137" y="631"/>
      <point x="137" y="530" type="curve" smooth="yes"/>
      <point x="137" y="461"/>
      <point x="167" y="402"/>
      <point x="207" y="361" type="curve"/>
      <point x="114" y="317"/>
      <point x="39" y="272"/>
      <point x="39" y="156" type="curve" smooth="yes"/>
      <point x="39" y="60"/>
      <point x="122" y="-10"/>
    </contour>
    <contour>
      <point x="245" y="51" type="curve" smooth="yes"/>
      <point x="203" y="51"/>
      <point x="178" y="89"/>
      <point x="178" y="149" type="curve" smooth="yes"/>
      <point x="178" y="231"/>
      <point x="210" y="287"/>
      <point x="265" y="319" type="curve"/>
      <point x="310" y="280"/>
      <point x="335" y="239"/>
      <point x="335" y="180" type="curve" smooth="yes"/>
      <point x="335" y="95"/>
      <point x="293" y="51"/>
    </contour>
    <contour>
      <point x="331" y="417" type="curve"/>
      <point x="299" y="448"/>
      <point x="282" y="490"/>
      <point x="282" y="537" type="curve" smooth="yes"/>
      <point x="282" y="613"/>
      <point x="315" y="663"/>
      <point x="353" y="663" type="curve" smooth="yes"/>
      <point x="384" y="663"/>
      <point x="400" y="627"/>
      <point x="400" y="579" type="curve" smooth="yes"/>
      <point x="400" y="516"/>
      <point x="381" y="459"/>
    </contour>
  </outline>
</glyph>
<glyph name="nine" format="2">
  <advance width="505"/>
  <unicode hex="0039"/>
  <outline>
    <contour>
      <point x="165" y="-10" type="curve" smooth="yes"/>
      <point x="411" y="-10"/>
      <point x="516" y="351"/>
      <point x="516" y="539" type="curve" smooth="yes"/>
      <point x="516" y="657"/>
      <point x="454" y="724"/>
      <point x="353" y="724" type="curve" smooth="yes"/>
      <point x="218" y="724"/>
      <point x="99" y="603"/>
      <point x="99" y="431" type="curve" smooth="yes"/>
      <point x="99" y="340"/>
      <point x="144" y="275"/>
      <point x="227" y="275" type="curve" smooth="yes"/>
      <point x="283" y="275"/>
      <point x="323" y="308"/>
      <point x="352" y="343" type="curve"/>
      <point x="304" y="159"/>
      <point x="256" y="58"/>
      <point x="178" y="58" type="curve" smooth="yes"/>
      <point x="131" y="58"/>
      <point x="115" y="118"/>
      <point x="116" y="171" type="curve"/>
      <point x="66" y="171"/>
      <point x="36" y="142"/>
      <point x="36" y="94" type="curve" smooth="yes"/>
      <point x="36" y="36"/>
      <point x="80" y="-10"/>
    </contour>
    <contour>
      <point x="291" y="353" type="curve" smooth="yes"/>
      <point x="264" y="353"/>
      <point x="249" y="382"/>
      <point x="249" y="437" type="curve" smooth="yes"/>
      <point x="249" y="538"/>
      <point x="289" y="653"/>
      <point x="338" y="653" type="curve" smooth="yes"/>
      <point x="363" y="653"/>
      <point x="380" y="622"/>
      <point x="380" y="551" type="curve" smooth="yes"/>
      <point x="380" y="513"/>
      <point x="373" y="462"/>
      <point x="364" y="428" type="curve"/>
      <point x="348" y="392"/>
      <point x="324" y="353"/>
    </contour>
  </outline>
</glyph>
<glyph name="colon" format="2">
  <advance width="347"/>
  <unicode hex="003A"/>
  <outline>
    <contour>
      <point x="210" y="370" type="curve" smooth="yes"/>
      <point x="253" y="370"/>
      <point x="300" y="396"/>
      <point x="300" y="469" type="curve" smooth="yes"/>
      <point x="300" y="518"/>
      <point x="268" y="541"/>
      <point x="223" y="541" type="curve" smooth="yes"/>
      <point x="168" y="541"/>
      <point x="133" y="501"/>
      <point x="133" y="442" type="curve" smooth="yes"/>
      <point x="133" y="394"/>
      <point x="164" y="370"/>
    </contour>
    <contour>
      <point x="125" y="-8" type="curve" smooth="yes"/>
      <point x="168" y="-8"/>
      <point x="215" y="17"/>
      <point x="215" y="90" type="curve" smooth="yes"/>
      <point x="215" y="139"/>
      <point x="183" y="163"/>
      <point x="138" y="163" type="curve" smooth="yes"/>
      <point x="83" y="163"/>
      <point x="48" y="123"/>
      <point x="48" y="64" type="curve" smooth="yes"/>
      <point x="48" y="15"/>
      <point x="80" y="-8"/>
    </contour>
  </outline>
</glyph>
<glyph name="semicolon" format="2">
  <advance width="346"/>
  <unicode hex="003B"/>
  <outline>
    <contour>
      <point x="-17" y="-153" type="line"/>
      <point x="123" y="-123"/>
      <point x="199" y="-34"/>
      <point x="199" y="73" type="curve" smooth="yes"/>
      <point x="199" y="130"/>
      <point x="168" y="162"/>
      <point x="126" y="162" type="curve" smooth="yes"/>
      <point x="87" y="162"/>
      <point x="52" y="133"/>
      <point x="52" y="85" type="curve" smooth="yes"/>
      <point x="52" y="31"/>
      <point x="87" y="30"/>
      <point x="87" y="-10" type="curve" smooth="yes"/>
      <point x="87" y="-51"/>
      <point x="57" y="-79"/>
      <point x="-1" y="-96" type="curve"/>
    </contour>
    <contour>
      <point x="210" y="370" type="curve" smooth="yes"/>
      <point x="252" y="370"/>
      <point x="300" y="396"/>
      <point x="300" y="469" type="curve" smooth="yes"/>
      <point x="300" y="518"/>
      <point x="267" y="541"/>
      <point x="222" y="541" type="curve" smooth="yes"/>
      <point x="168" y="541"/>
      <point x="132" y="501"/>
      <point x="132" y="442" type="curve" smooth="yes"/>
      <point x="132" y="394"/>
      <point x="164" y="370"/>
    </contour>
  </outline>
</glyph>
<glyph name="less" format="2">
  <advance width="425"/>
  <unicode hex="003C"/>
  <outline>
    <contour>
      <point x="427" y="103" type="line"/>
      <point x="427" y="186" type="line"/>
      <point x="167" y="357" type="line"/>
      <point x="427" y="530" type="line"/>
      <point x="427" y="613" type="line"/>
      <point x="70" y="379" type="line"/>
      <point x="70" y="336" type="line"/>
    </contour>
  </outline>
</glyph>
<glyph name="question" format="2">
  <advance width="463"/>
  <unicode hex="003F"/>
  <outline>
    <contour>
      <point x="174" y="238" type="line"/>
      <point x="238" y="238" type="line"/>
      <point x="274" y="317" type="line"/>
      <point x="396" y="369"/>
      <point x="488" y="445"/>
      <point x="488" y="567" type="curve" smooth="yes"/>
      <point x="488" y="675"/>
      <point x="417" y="724"/>
      <point x="298" y="724" type="curve" smooth="yes"/>
      <point x="170" y="724"/>
      <point x="83" y="666"/>
      <point x="83" y="592" type="curve" smooth="yes"/>
      <point x="83" y="538"/>
      <point x="128" y="512"/>
      <point x="219" y="512" type="curve"/>
      <point x="227" y="588"/>
      <point x="246" y="659"/>
      <point x="282" y="659" type="curve" smooth="yes"/>
      <point x="303" y="659"/>
      <point x="319" y="627"/>
      <point x="319" y="571" type="curve" smooth="yes"/>
      <point x="319" y="451"/>
      <point x="255" y="397"/>
      <point x="156" y="353" type="curve"/>
    </contour>
    <contour>
      <point x="176" y="-8" type="curve" smooth="yes"/>
      <point x="219" y="-8"/>
      <point x="266" y="17"/>
      <point x="266" y="90" type="curve" smooth="yes"/>
      <point x="266" y="139"/>
      <point x="234" y="163"/>
      <point x="189" y="163" type="curve" smooth="yes"/>
      <point x="134" y="163"/>
      <point x="99" y="123"/>
      <point x="99" y="64" type="curve" smooth="yes"/>
      <point x="99" y="15"/>
      <point x="130" y="-8"/>
    </contour>
  </outline>
</glyph>
<glyph name="bracketleft" format="2">
  <advance width="378"/>
  <unicode hex="005B"/>
  <outline>
    <contour>
      <point x="24" y="-128" type="line"/>
      <point x="291" y="-128" type="line"/>
      <point x="303" y="-71" type="line"/>
      <point x="268" y="-71" type="line" smooth="yes"/>
      <point x="241" y="-71"/>
      <point x="216" y="-65"/>
      <point x="216" y="-25" type="curve" smooth="yes"/>
      <point x="216" y="-15"/>
      <point x="217" y="-8"/>
      <point x="219" y="2" type="curve" smooth="yes"/>
      <point x="349" y="631" type="line" smooth="yes"/>
      <point x="362" y="694"/>
      <point x="397" y="703"/>
      <point x="431" y="703" type="curve" smooth="yes"/>
      <point x="467" y="703" type="line"/>
      <point x="480" y="760" type="line"/>
      <point x="213" y="760" type="line"/>
    </contour>
  </outline>
</glyph>
<glyph name="backslash" format="2">
  <advance width="235"/>
  <unicode hex="005C"/>
  <outline>
    <contour>
      <point x="133" y="-121" type="line"/>
      <point x="198" y="-121" type="line"/>
      <point x="180" y="760" type="line"/>
      <point x="114" y="760" type="line"/>
    </contour>
  </outline>
</glyph>
<glyph name="bracketright" format="2">
  <advance width="378"/>
  <unicode hex="005D"/>
  <outline>
    <contour>
      <point x="-54" y="-128" type="line"/>
      <point x="212" y="-128" type="line"/>
      <point x="401" y="760" type="line"/>
      <point x="134" y="760" type="line"/>
      <point x="122" y="703" type="line"/>
      <point x="157" y="703" type="line" smooth="yes"/>
      <point x="184" y="703"/>
      <point x="209" y="697"/>
      <point x="209" y="657" type="curve" smooth="yes"/>
      <point x="209" y="647"/>
      <point x="208" y="640"/>
      <point x="206" y="630" type="curve" smooth="yes"/>
      <point x="77" y="1" type="line" smooth="yes"/>
      <point x="64" y="-62"/>
      <point x="31" y="-71"/>
      <point x="-5" y="-71" type="curve" smooth="yes"/>
      <point x="-40" y="-71" type="line"/>
    </contour>
  </outline>
</glyph>
<glyph name="asciicircum" format="2">
  <advance width="425"/>
  <unicode hex="005E"/>
  <outline>
    <contour>
      <point x="51" y="261" type="line"/>
      <point x="122" y="261" type="line"/>
      <point x="247" y="600" type="line"/>
      <point x="373" y="261" type="line"/>
      <point x="445" y="261" type="line"/>
      <point x="268" y="714" type="line"/>
      <point x="227" y="714" type="line"/>
    </contour>
  </outline>
</glyph>
<glyph name="braceleft" format="2">
  <advance width="371"/>
  <unicode hex="007B"/>
  <outline>
    <contour>
      <point x="194" y="-124" type="curve" smooth="yes"/>
      <point x="293" y="-124" type="line"/>
      <point x="307" y="-67" type="line"/>
      <point x="269" y="-67" type="line" smooth="yes"/>
      <point x="241" y="-67"/>
      <point x="231" y="-51"/>
      <point x="231" y="-23" type="curve" smooth="yes"/>
      <point x="231" y="-5"/>
      <point x="233" y="11"/>
      <point x="237" y="28" type="curve" smooth="yes"/>
      <point x="268" y="164" type="line" smooth="yes"/>
      <point x="272" y="182"/>
      <point x="278" y="210"/>
      <point x="278" y="230" type="curve" smooth="yes"/>
      <point x="278" y="270"/>
      <point x="257" y="298"/>
      <point x="210" y="316" type="curve"/>
      <point x="212" y="322" type="line"/>
      <point x="281" y="341"/>
      <point x="311" y="380"/>
      <point x="324" y="440" type="curve" smooth="yes"/>
      <point x="355" y="583" type="line" smooth="yes"/>
      <point x="374" y="672"/>
      <point x="385" y="704"/>
      <point x="429" y="704" type="curve" smooth="yes"/>
      <point x="468" y="704" type="line"/>
      <point x="481" y="760" type="line"/>
      <point x="407" y="760" type="line" smooth="yes"/>
      <point x="285" y="760"/>
      <point x="215" y="729"/>
      <point x="191" y="614" type="curve" smooth="yes"/>
      <point x="155" y="441" type="line" smooth="yes"/>
      <point x="140" y="369"/>
      <point x="98" y="354"/>
      <point x="44" y="353" type="curve"/>
      <point x="28" y="285" type="line"/>
      <point x="72" y="283"/>
      <point x="106" y="273"/>
      <point x="106" y="224" type="curve" smooth="yes"/>
      <point x="106" y="216"/>
      <point x="105" y="206"/>
      <point x="103" y="195" type="curve" smooth="yes"/>
      <point x="78" y="78" type="line" smooth="yes"/>
      <point x="66" y="20"/>
      <point x="64" y="0"/>
      <point x="64" y="-18" type="curve" smooth="yes"/>
      <point x="64" y="-83"/>
      <point x="107" y="-124"/>
    </contour>
  </outline>
</glyph>
<glyph name="braceright" format="2">
  <advance width="371"/>
  <unicode hex="007D"/>
  <outline>
    <contour>
      <point x="-52" y="-123" type="line"/>
      <point x="21" y="-123" type="line" smooth="yes"/>
      <point x="144" y="-123"/>
      <point x="214" y="-89"/>
      <point x="238" y="24" type="curve" smooth="yes"/>
      <point x="274" y="195" type="line" smooth="yes"/>
      <point x="289" y="268"/>
      <point x="331" y="282"/>
      <point x="385" y="284" type="curve"/>
      <point x="401" y="351" type="line"/>
      <point x="357" y="353"/>
      <point x="323" y="363"/>
      <point x="323" y="413" type="curve" smooth="yes"/>
      <point x="323" y="421"/>
      <point x="324" y="431"/>
      <point x="326" y="441" type="curve" smooth="yes"/>
      <point x="360" y="608" type="line" smooth="yes"/>
      <point x="365" y="632"/>
      <point x="365" y="643"/>
      <point x="365" y="655" type="curve" smooth="yes"/>
      <point x="365" y="721"/>
      <point x="322" y="762"/>
      <point x="235" y="762" type="curve" smooth="yes"/>
      <point x="135" y="762" type="line"/>
      <point x="121" y="705" type="line"/>
      <point x="160" y="705" type="line" smooth="yes"/>
      <point x="188" y="705"/>
      <point x="197" y="689"/>
      <point x="197" y="661" type="curve" smooth="yes"/>
      <point x="197" y="643"/>
      <point x="195" y="627"/>
      <point x="191" y="610" type="curve" smooth="yes"/>
      <point x="161" y="466" type="line" smooth="yes"/>
      <point x="158" y="454"/>
      <point x="151" y="426"/>
      <point x="151" y="407" type="curve" smooth="yes"/>
      <point x="151" y="367"/>
      <point x="171" y="339"/>
      <point x="219" y="322" type="curve"/>
      <point x="216" y="312" type="line"/>
      <point x="147" y="292"/>
      <point x="117" y="255"/>
      <point x="104" y="197" type="curve" smooth="yes"/>
      <point x="67" y="28" type="line" smooth="yes"/>
      <point x="54" y="-33"/>
      <point x="45" y="-66"/>
      <point x="-1" y="-66" type="curve" smooth="yes"/>
      <point x="-39" y="-66" type="line"/>
    </contour>
  </outline>
</glyph>
<glyph name="asciitilde" format="2">
  <advance width="425"/>
  <unicode hex="007E"/>
  <outline>
    <contour>
      <point x="46" y="260" type="curve"/>
      <point x="119" y="260" type="line"/>
      <point x="119" y="344"/>
      <point x="135" y="376"/>
      <point x="165" y="376" type="curve" smooth="yes"/>
      <point x="183" y="376"/>
      <point x="194" y="365"/>
      <point x="229" y="325" type="curve" smooth="yes"/>
      <point x="278" y="270"/>
      <point x="304" y="260"/>
      <point x="335" y="260" type="curve" smooth="yes"/>
      <point x="425" y="260"/>
      <point x="452" y="347"/>
      <point x="452" y="453" type="curve"/>
      <point x="379" y="453" type="line"/>
      <point x="379" y="367"/>
      <point x="363" y="337"/>
      <point x="334" y="337" type="curve" smooth="yes"/>
      <point x="314" y="337"/>
      <point x="305" y="352"/>
      <point x="274" y="385" type="curve" smooth="yes"/>
      <point x="225" y="437"/>
      <point x="198" y="453"/>
      <point x="161" y="453" type="curve" smooth="yes"/>
      <point x="74" y="453"/>
      <point x="46" y="366"/>
    </contour>
  </outline>
</glyph>
<glyph name="multiply" format="2">
  <advance width="425"/>
  <unicode hex="00D7"/>
  <outline>
    <contour>
      <point x="127" y="163" type="line"/>
      <point x="247" y="304" type="line"/>
      <point x="365" y="166" type="line"/>
      <point x="419" y="213" type="line"/>
      <point x="294" y="360" type="line"/>
      <point x="419" y="506" type="line"/>
      <point x="364" y="552" type="line"/>
      <point x="247" y="415" type="line"/>
      <point x="128" y="555" type="line"/>
      <point x="73" y="509" type="line"/>
      <point x="200" y="360" type="line"/>
      <point x="73" y="210" type="line"/>
    </contour>
  </outline>
</glyph>
<glyph name="divide" format="2">
  <advance width="425"/>
  <unicode hex="00F7"/>
  <outline>
    <contour>
      <point x="70" y="321" type="line"/>
      <point x="427" y="321" type="line"/>
      <point x="427" y="394" type="line"/>
      <point x="70" y="394" type="line"/>
    </contour>
    <contour>
      <point x="249" y="106" type="curve" smooth="yes"/>
      <point x="277" y="106"/>
      <point x="300" y="122"/>
      <point x="300" y="168" type="curve" smooth="yes"/>
      <point x="300" y="215"/>
      <point x="277" y="230"/>
      <point x="249" y="230" type="curve" smooth="yes"/>
      <point x="218" y="230"/>
      <point x="197" y="215"/>
      <point x="197" y="168" type="curve" smooth="yes"/>
      <point x="197" y="122"/>
      <point x="218" y="106"/>
    </contour>
    <contour>
      <point x="249" y="485" type="curve" smooth="yes"/>
      <point x="277" y="485"/>
      <point x="300" y="501"/>
      <point x="300" y="547" type="curve" smooth="yes"/>
      <point x="300" y="594"/>
      <point x="277" y="609"/>
      <point x="249" y="609" type="curve" smooth="yes"/>
      <point x="218" y="609"/>
      <point x="197" y="594"/>
      <point x="197" y="547" type="curve" smooth="yes"/>
      <point x="197" y="501"/>
      <point x="218" y="485"/>
    </contour>
  </outline>
</glyph>
<glyph name="udatta-deva" format="2">
  <unicode hex="0951"/>
  <anchor x="64" y="576" name="_vedic"/>
  <outline>
    <contour>
      <point x="111" y="956" type="line"/>
      <point x="178" y="956" type="line"/>
      <point x="222" y="1163" type="line"/>
      <point x="155" y="1163" type="line"/>
    </contour>
  </outline>
</glyph>
<glyph name="anudatta-deva" format="2">
  <unicode hex="0952"/>
  <anchor x="-59" y="0" name="_bottom"/>
  <outline>
    <contour>
      <point x="-375" y="-553" type="line"/>
      <point x="23" y="-553" type="line"/>
      <point x="43" y="-456" type="line"/>
      <point x="-355" y="-456" type="line"/>
    </contour>
  </outline>
</glyph>
<glyph name="danda-deva" format="2">
  <advance width="288"/>
  <unicode hex="0964"/>
  <outline>
    <contour>
      <point x="-4" y="0" type="line"/>
      <point x="169" y="0" type="line"/>
      <point x="292" y="576" type="line"/>
      <point x="118" y="576" type="line"/>
    </contour>
  </outline>
</glyph>
<glyph name="dbldanda-deva" format="2">
  <advance width="536"/>
  <unicode hex="0965"/>
  <outline>
    <contour>
      <point x="244" y="0" type="line"/>
      <point x="417" y="0" type="line"/>
      <point x="540" y="576" type="line"/>
      <point x="366" y="576" type="line"/>
    </contour>
    <contour>
      <point x="-4" y="0" type="line"/>
      <point x="169" y="0" type="line"/>
      <point x="292" y="576" type="line"/>
      <point x="118" y="576" type="line"/>
    </contour>
  </outline>
</glyph>
<glyph name="anusvara-tamil" format="2">
  <unicode hex="0B82"/>
  <note>
uni0B82
</note>
  <anchor x="64" y="576" name="_top"/>
  <outline>
    <contour>
      <point x="102" y="624" type="curve" smooth="yes"/>
      <point x="181" y="624"/>
      <point x="245" y="686"/>
      <point x="245" y="768" type="curve" smooth="yes"/>
      <point x="245" y="849"/>
      <point x="181" y="910"/>
      <point x="102" y="910" type="curve" smooth="yes"/>
      <point x="23" y="910"/>
      <point x="-41" y="849"/>
      <point x="-41" y="768" type="curve" smooth="yes"/>
      <point x="-41" y="686"/>
      <point x="23" y="624"/>
    </contour>
    <contour>
      <point x="102" y="709" type="curve" smooth="yes"/>
      <point x="72" y="709"/>
      <point x="45" y="735"/>
      <point x="45" y="767" type="curve" smooth="yes"/>
      <point x="45" y="799"/>
      <point x="72" y="825"/>
      <point x="102" y="825" type="curve" smooth="yes"/>
      <point x="132" y="825"/>
      <point x="159" y="799"/>
      <point x="159" y="767" type="curve" smooth="yes"/>
      <point x="159" y="735"/>
      <point x="132" y="709"/>
    </contour>
  </outline>
</glyph>
<glyph name="visarga-tamil" format="2">
  <advance width="721"/>
  <unicode hex="0B83"/>
  <note>
uni0B83
</note>
  <outline>
    <contour>
      <point x="124" y="-5" type="curve" smooth="yes"/>
      <point x="232" y="-5"/>
      <point x="313" y="108"/>
      <point x="313" y="234" type="curve" smooth="yes"/>
      <point x="313" y="330"/>
      <point x="264" y="377"/>
      <point x="190" y="377" type="curve" smooth="yes"/>
      <point x="76" y="377"/>
      <point x="8" y="247"/>
      <point x="8" y="132" type="curve" smooth="yes"/>
      <point x="8" y="48"/>
      <point x="51" y="-5"/>
    </contour>
    <contour>
      <point x="111" y="72" type="curve" smooth="yes"/>
      <point x="83" y="72"/>
      <point x="75" y="95"/>
      <point x="75" y="137" type="curve" smooth="yes"/>
      <point x="75" y="211"/>
      <point x="109" y="299"/>
      <point x="157" y="299" type="curve" smooth="yes"/>
      <point x="187" y="299"/>
      <point x="194" y="272"/>
      <point x="194" y="233" type="curve" smooth="yes"/>
      <point x="194" y="159"/>
      <point x="162" y="72"/>
    </contour>
    <contour>
      <point x="479" y="-5" type="curve" smooth="yes"/>
      <point x="587" y="-5"/>
      <point x="668" y="108"/>
      <point x="668" y="234" type="curve" smooth="yes"/>
      <point x="668" y="330"/>
      <point x="619" y="377"/>
      <point x="545" y="377" type="curve" smooth="yes"/>
      <point x="431" y="377"/>
      <point x="363" y="247"/>
      <point x="363" y="132" type="curve" smooth="yes"/>
      <point x="363" y="48"/>
      <point x="406" y="-5"/>
    </contour>
    <contour>
      <point x="466" y="72" type="curve" smooth="yes"/>
      <point x="438" y="72"/>
      <point x="430" y="95"/>
      <point x="430" y="137" type="curve" smooth="yes"/>
      <point x="430" y="211"/>
      <point x="464" y="299"/>
      <point x="512" y="299" type="curve" smooth="yes"/>
      <point x="542" y="299"/>
      <point x="549" y="272"/>
      <point x="549" y="233" type="curve" smooth="yes"/>
      <point x="549" y="159"/>
      <point x="517" y="72"/>
    </contour>
    <contour>
      <point x="400" y="439" type="curve" smooth="yes"/>
      <point x="508" y="439"/>
      <point x="589" y="551"/>
      <point x="589" y="677" type="curve" smooth="yes"/>
      <point x="589" y="774"/>
      <point x="540" y="821"/>
      <point x="466" y="821" type="curve" smooth="yes"/>
      <point x="352" y="821"/>
      <point x="284" y="691"/>
      <point x="284" y="576" type="curve" smooth="yes"/>
      <point x="284" y="492"/>
      <point x="327" y="439"/>
    </contour>
    <contour>
      <point x="387" y="516" type="curve" smooth="yes"/>
      <point x="359" y="516"/>
      <point x="351" y="539"/>
      <point x="351" y="581" type="curve" smooth="yes"/>
      <point x="351" y="655"/>
      <point x="385" y="743"/>
      <point x="433" y="743" type="curve" smooth="yes"/>
      <point x="463" y="743"/>
      <point x="470" y="716"/>
      <point x="470" y="677" type="curve" smooth="yes"/>
      <point x="470" y="603"/>
      <point x="438" y="516"/>
    </contour>
  </outline>
</glyph>
<glyph name="aa-tamil" format="2">
  <advance width="1363"/>
  <unicode hex="0B86"/>
  <note>
uni0B86
</note>
  <anchor x="634" y="0" name="bottom"/>
  <anchor x="273" y="-156" name="nukta"/>
  <anchor x="754" y="576" name="top"/>
  <anchor x="755" y="576" name="vedic"/>
  <outline>
    <contour>
      <point x="746" y="-407" type="curve" smooth="yes"/>
      <point x="1007" y="-407"/>
      <point x="1287" y="-257"/>
      <point x="1287" y="-16" type="curve" smooth="yes"/>
      <point x="1287" y="71"/>
      <point x="1236" y="120"/>
      <point x="1166" y="120" type="curve" smooth="yes"/>
      <point x="1088" y="120"/>
      <point x="1020" y="57"/>
      <point x="980" y="-76" type="curve"/>
      <point x="1004" y="-83" type="line"/>
      <point x="1014" y="-28"/>
      <point x="1038" y="-8"/>
      <point x="1070" y="-8" type="curve" smooth="yes"/>
      <point x="1094" y="-8"/>
      <point x="1111" y="-23"/>
      <point x="1111" y="-54" type="curve" smooth="yes"/>
      <point x="1111" y="-221"/>
      <point x="934" y="-340"/>
      <point x="750" y="-340" type="curve" smooth="yes"/>
      <point x="666" y="-340"/>
      <point x="606" y="-314"/>
      <point x="606" y="-268" type="curve" smooth="yes"/>
      <point x="606" y="-225"/>
      <point x="650" y="-205"/>
      <point x="704" y="-191" type="curve"/>
      <point x="690" y="-128" type="line"/>
      <point x="595" y="-153"/>
      <point x="535" y="-195"/>
      <point x="535" y="-276" type="curve" smooth="yes"/>
      <point x="535" y="-354"/>
      <point x="615" y="-407"/>
    </contour>
    <component base="a-tamil"/>
  </outline>
</glyph>
<glyph name="i-tamil" format="2">
  <advance width="883"/>
  <unicode hex="0B87"/>
  <note>
uni0B87
</note>
  <anchor x="364" y="0" name="bottom"/>
  <anchor x="302" y="-291" name="nukta"/>
  <anchor x="519" y="846" name="top"/>
  <anchor x="476" y="576" name="vedic"/>
  <outline>
    <contour>
      <point x="82" y="-332" type="curve" smooth="yes"/>
      <point x="391" y="-332"/>
      <point x="706" y="1"/>
      <point x="706" y="332" type="curve" smooth="yes"/>
      <point x="706" y="492"/>
      <point x="615" y="581"/>
      <point x="465" y="581" type="curve" smooth="yes"/>
      <point x="335" y="581"/>
      <point x="219" y="470"/>
      <point x="219" y="347" type="curve" smooth="yes"/>
      <point x="219" y="266"/>
      <point x="269" y="211"/>
      <point x="344" y="211" type="curve" smooth="yes"/>
      <point x="449" y="211"/>
      <point x="514" y="289"/>
      <point x="514" y="394" type="curve" smooth="yes"/>
      <point x="514" y="456"/>
      <point x="483" y="513"/>
      <point x="450" y="540" type="curve"/>
      <point x="383" y="527" type="line"/>
      <point x="411" y="503"/>
      <point x="426" y="456"/>
      <point x="426" y="414" type="curve" smooth="yes"/>
      <point x="426" y="353"/>
      <point x="400" y="296"/>
      <point x="341" y="296" type="curve" smooth="yes"/>
      <point x="311" y="296"/>
      <point x="294" y="320"/>
      <point x="294" y="358" type="curve" smooth="yes"/>
      <point x="294" y="441"/>
      <point x="362" y="510"/>
      <point x="446" y="510" type="curve" smooth="yes"/>
      <point x="525" y="510"/>
      <point x="559" y="461"/>
      <point x="559" y="371" type="curve" smooth="yes"/>
      <point x="559" y="62"/>
      <point x="352" y="-259"/>
      <point x="87" y="-259" type="curve" smooth="yes"/>
      <point x="31" y="-259"/>
      <point x="7" y="-222"/>
      <point x="7" y="-180" type="curve" smooth="yes"/>
      <point x="7" y="-39"/>
      <point x="195" y="42"/>
      <point x="354" y="42" type="curve" smooth="yes"/>
      <point x="516" y="42"/>
      <point x="667" y="-34"/>
      <point x="667" y="-151" type="curve" smooth="yes"/>
      <point x="667" y="-222"/>
      <point x="622" y="-259"/>
      <point x="551" y="-259" type="curve" smooth="yes"/>
      <point x="343" y="-259"/>
      <point x="122" y="33"/>
      <point x="122" y="301" type="curve" smooth="yes"/>
      <point x="122" y="548"/>
      <point x="264" y="705"/>
      <point x="505" y="705" type="curve" smooth="yes"/>
      <point x="684" y="705"/>
      <point x="806" y="611"/>
      <point x="806" y="444" type="curve" smooth="yes"/>
      <point x="806" y="418"/>
      <point x="803" y="390"/>
      <point x="797" y="361" type="curve" smooth="yes"/>
      <point x="743" y="104" type="line"/>
      <point x="812" y="104" type="line"/>
      <point x="868" y="370" type="line" smooth="yes"/>
      <point x="878" y="416"/>
      <point x="882" y="459"/>
      <point x="882" y="500" type="curve" smooth="yes"/>
      <point x="882" y="717"/>
      <point x="746" y="846"/>
      <point x="519" y="846" type="curve" smooth="yes"/>
      <point x="214" y="846"/>
      <point x="48" y="623"/>
      <point x="48" y="318" type="curve" smooth="yes"/>
      <point x="48" y="-16"/>
      <point x="319" y="-332"/>
      <point x="540" y="-332" type="curve" smooth="yes"/>
      <point x="657" y="-332"/>
      <point x="748" y="-271"/>
      <point x="748" y="-149" type="curve" smooth="yes"/>
      <point x="748" y="8"/>
      <point x="569" y="104"/>
      <point x="358" y="104" type="curve" smooth="yes"/>
      <point x="159" y="104"/>
      <point x="-71" y="1"/>
      <point x="-71" y="-194" type="curve" smooth="yes"/>
      <point x="-71" y="-271"/>
      <point x="-19" y="-332"/>
    </contour>
  </outline>
</glyph>
<glyph name="u-tamil" format="2">
  <advance width="782"/>
  <unicode hex="0B89"/>
  <note>
uni0B89
</note>
  <anchor x="323" y="0" name="bottom"/>
  <anchor x="323" y="0" name="nukta"/>
  <anchor x="449" y="576" name="top"/>
  <anchor x="449" y="576" name="vedic"/>
  <outline>
    <contour>
      <point x="78" y="0" type="curve" smooth="yes"/>
      <point x="713" y="0" type="line"/>
      <point x="728" y="67" type="line"/>
      <point x="81" y="67" type="line" smooth="yes"/>
      <point x="63" y="67"/>
      <point x="51" y="79"/>
      <point x="51" y="98" type="curve" smooth="yes"/>
      <point x="51" y="119"/>
      <point x="64" y="131"/>
      <point x="85" y="131" type="curve" smooth="yes"/>
      <point x="286" y="131" type="line" smooth="yes"/>
      <point x="457" y="131"/>
      <point x="608" y="213"/>
      <point x="608" y="385" type="curve" smooth="yes"/>
      <point x="608" y="505"/>
      <point x="514" y="581"/>
      <point x="361" y="581" type="curve" smooth="yes"/>
      <point x="227" y="581"/>
      <point x="104" y="491"/>
      <point x="104" y="360" type="curve" smooth="yes"/>
      <point x="104" y="286"/>
      <point x="157" y="241"/>
      <point x="222" y="241" type="curve" smooth="yes"/>
      <point x="311" y="241"/>
      <point x="381" y="295"/>
      <point x="381" y="393" type="curve" smooth="yes"/>
      <point x="381" y="454"/>
      <point x="347" y="505"/>
      <point x="307" y="538" type="curve"/>
      <point x="240" y="532" type="line"/>
      <point x="280" y="495"/>
      <point x="294" y="456"/>
      <point x="294" y="410" type="curve" smooth="yes"/>
      <point x="294" y="357"/>
      <point x="270" y="317"/>
      <point x="221" y="317" type="curve" smooth="yes"/>
      <point x="197" y="317"/>
      <point x="178" y="339"/>
      <point x="178" y="374" type="curve" smooth="yes"/>
      <point x="178" y="451"/>
      <point x="250" y="514"/>
      <point x="326" y="514" type="curve" smooth="yes"/>
      <point x="406" y="514"/>
      <point x="451" y="469"/>
      <point x="451" y="392" type="curve" smooth="yes"/>
      <point x="451" y="277"/>
      <point x="382" y="194"/>
      <point x="275" y="194" type="curve" smooth="yes"/>
      <point x="95" y="194" type="line" smooth="yes"/>
      <point x="20" y="194"/>
      <point x="-14" y="149"/>
      <point x="-14" y="90" type="curve" smooth="yes"/>
      <point x="-14" y="34"/>
      <point x="29" y="0"/>
    </contour>
  </outline>
</glyph>
<glyph name="uu-tamil" format="2">
  <advance width="1551"/>
  <unicode hex="0B8A"/>
  <note>
uni0B8A
</note>
  <anchor x="723" y="0" name="bottom"/>
  <anchor x="723" y="0" name="nukta"/>
  <anchor x="849" y="576" name="top"/>
  <anchor x="849" y="576" name="vedic"/>
  <outline>
    <contour>
      <point x="78" y="0" type="curve" smooth="yes"/>
      <point x="1433" y="0" type="line"/>
      <point x="1448" y="67" type="line"/>
      <point x="81" y="67" type="line" smooth="yes"/>
      <point x="63" y="67"/>
      <point x="51" y="79"/>
      <point x="51" y="98" type="curve" smooth="yes"/>
      <point x="51" y="119"/>
      <point x="64" y="131"/>
      <point x="85" y="131" type="curve" smooth="yes"/>
      <point x="286" y="131" type="line" smooth="yes"/>
      <point x="457" y="131"/>
      <point x="608" y="213"/>
      <point x="608" y="385" type="curve" smooth="yes"/>
      <point x="608" y="505"/>
      <point x="514" y="581"/>
      <point x="361" y="581" type="curve" smooth="yes"/>
      <point x="227" y="581"/>
      <point x="104" y="491"/>
      <point x="104" y="360" type="curve" smooth="yes"/>
      <point x="104" y="286"/>
      <point x="157" y="241"/>
      <point x="222" y="241" type="curve" smooth="yes"/>
      <point x="311" y="241"/>
      <point x="381" y="295"/>
      <point x="381" y="393" type="curve" smooth="yes"/>
      <point x="381" y="454"/>
      <point x="347" y="505"/>
      <point x="307" y="538" type="curve"/>
      <point x="240" y="532" type="line"/>
      <point x="280" y="495"/>
      <point x="294" y="456"/>
      <point x="294" y="410" type="curve" smooth="yes"/>
      <point x="294" y="357"/>
      <point x="270" y="317"/>
      <point x="221" y="317" type="curve" smooth="yes"/>
      <point x="197" y="317"/>
      <point x="178" y="339"/>
      <point x="178" y="374" type="curve" smooth="yes"/>
      <point x="178" y="451"/>
      <point x="250" y="514"/>
      <point x="326" y="514" type="curve" smooth="yes"/>
      <point x="406" y="514"/>
      <point x="451" y="469"/>
      <point x="451" y="392" type="curve" smooth="yes"/>
      <point x="451" y="277"/>
      <point x="382" y="194"/>
      <point x="275" y="194" type="curve" smooth="yes"/>
      <point x="95" y="194" type="line" smooth="yes"/>
      <point x="20" y="194"/>
      <point x="-14" y="149"/>
      <point x="-14" y="90" type="curve" smooth="yes"/>
      <point x="-14" y="34"/>
      <point x="29" y="0"/>
    </contour>
    <contour>
      <point x="792" y="124" type="curve" smooth="yes"/>
      <point x="888" y="124"/>
      <point x="966" y="191"/>
      <point x="966" y="295" type="curve" smooth="yes"/>
      <point x="966" y="364"/>
      <point x="921" y="407"/>
      <point x="860" y="407" type="curve" smooth="yes"/>
      <point x="768" y="407"/>
      <point x="710" y="325"/>
      <point x="690" y="236" type="curve"/>
      <point x="719" y="214" type="line"/>
      <point x="735" y="284"/>
      <point x="774" y="334"/>
      <point x="815" y="334" type="curve" smooth="yes"/>
      <point x="846" y="334"/>
      <point x="861" y="307"/>
      <point x="861" y="279" type="curve" smooth="yes"/>
      <point x="861" y="235"/>
      <point x="833" y="192"/>
      <point x="786" y="192" type="curve" smooth="yes"/>
      <point x="748" y="192"/>
      <point x="709" y="225"/>
      <point x="709" y="303" type="curve" smooth="yes"/>
      <point x="709" y="420"/>
      <point x="786" y="515"/>
      <point x="907" y="515" type="curve" smooth="yes"/>
      <point x="1011" y="515"/>
      <point x="1062" y="456"/>
      <point x="1037" y="348" type="curve"/>
      <point x="1099" y="348" type="line"/>
      <point x="1126" y="487"/>
      <point x="1049" y="581"/>
      <point x="910" y="581" type="curve" smooth="yes"/>
      <point x="754" y="581"/>
      <point x="644" y="448"/>
      <point x="644" y="291" type="curve" smooth="yes"/>
      <point x="644" y="189"/>
      <point x="716" y="124"/>
    </contour>
    <contour>
      <point x="990" y="125" type="line"/>
      <point x="1132" y="125" type="line"/>
      <point x="1215" y="515" type="line"/>
      <point x="1323" y="515" type="line"/>
      <point x="1240" y="125" type="line"/>
      <point x="1383" y="125" type="line"/>
      <point x="1466" y="515" type="line"/>
      <point x="1544" y="515" type="line"/>
      <point x="1557" y="576" type="line"/>
      <point x="1118" y="576" type="line"/>
      <point x="1087" y="401" type="line"/>
      <point x="1049" y="401" type="line"/>
    </contour>
  </outline>
</glyph>
<glyph name="e-tamil" format="2">
  <advance width="799"/>
  <unicode hex="0B8E"/>
  <note>
uni0B8E
</note>
  <anchor x="357" y="0" name="bottom"/>
  <anchor x="357" y="0" name="nukta"/>
  <anchor x="481" y="576" name="top"/>
  <anchor x="482" y="576" name="vedic"/>
  <outline>
    <contour>
      <point x="202" y="-5" type="curve" smooth="yes"/>
      <point x="314" y="-5"/>
      <point x="397" y="78"/>
      <point x="397" y="202" type="curve" smooth="yes"/>
      <point x="397" y="286"/>
      <point x="348" y="342"/>
      <point x="267" y="342" type="curve" smooth="yes"/>
      <point x="181" y="342"/>
      <point x="115" y="276"/>
      <point x="69" y="158" type="curve"/>
      <point x="98" y="125" type="line"/>
      <point x="132" y="210"/>
      <point x="160" y="235"/>
      <point x="193" y="235" type="curve" smooth="yes"/>
      <point x="221" y="235"/>
      <point x="238" y="208"/>
      <point x="238" y="174" type="curve" smooth="yes"/>
      <point x="238" y="116"/>
      <point x="208" y="77"/>
      <point x="165" y="77" type="curve" smooth="yes"/>
      <point x="123" y="77"/>
      <point x="100" y="130"/>
      <point x="100" y="208" type="curve" smooth="yes"/>
      <point x="100" y="378"/>
      <point x="208" y="509"/>
      <point x="406" y="509" type="curve" smooth="yes"/>
      <point x="567" y="509" type="line"/>
      <point x="459" y="0" type="line"/>
      <point x="632" y="0" type="line"/>
      <point x="740" y="509" type="line"/>
      <point x="833" y="509" type="line"/>
      <point x="848" y="576" type="line"/>
      <point x="404" y="576" type="line" smooth="yes"/>
      <point x="172" y="576"/>
      <point x="28" y="411"/>
      <point x="28" y="204" type="curve" smooth="yes"/>
      <point x="28" y="86"/>
      <point x="99" y="-5"/>
    </contour>
  </outline>
</glyph>
<glyph name="ee-tamil" format="2">
  <advance width="799"/>
  <unicode hex="0B8F"/>
  <note>
uni0B8F
</note>
  <anchor x="361" y="0" name="bottom"/>
  <anchor x="320" y="-190" name="nukta"/>
  <anchor x="487" y="576" name="top"/>
  <anchor x="486" y="576" name="vedic"/>
  <outline>
    <contour>
      <point x="327" y="-235" type="line"/>
      <point x="645" y="59" type="line"/>
      <point x="741" y="509" type="line"/>
      <point x="834" y="509" type="line"/>
      <point x="848" y="576" type="line"/>
      <point x="404" y="576" type="line" smooth="yes"/>
      <point x="172" y="576"/>
      <point x="28" y="411"/>
      <point x="28" y="204" type="curve" smooth="yes"/>
      <point x="28" y="86"/>
      <point x="89" y="-5"/>
      <point x="202" y="-5" type="curve" smooth="yes"/>
      <point x="314" y="-5"/>
      <point x="397" y="78"/>
      <point x="397" y="202" type="curve" smooth="yes"/>
      <point x="397" y="286"/>
      <point x="348" y="342"/>
      <point x="267" y="342" type="curve" smooth="yes"/>
      <point x="181" y="342"/>
      <point x="115" y="276"/>
      <point x="69" y="158" type="curve"/>
      <point x="98" y="125" type="line"/>
      <point x="132" y="210"/>
      <point x="160" y="235"/>
      <point x="193" y="235" type="curve" smooth="yes"/>
      <point x="221" y="235"/>
      <point x="238" y="208"/>
      <point x="238" y="174" type="curve" smooth="yes"/>
      <point x="238" y="116"/>
      <point x="208" y="77"/>
      <point x="165" y="77" type="curve" smooth="yes"/>
      <point x="123" y="77"/>
      <point x="100" y="130"/>
      <point x="100" y="208" type="curve" smooth="yes"/>
      <point x="100" y="378"/>
      <point x="208" y="509"/>
      <point x="406" y="509" type="curve" smooth="yes"/>
      <point x="567" y="509" type="line"/>
      <point x="454" y="-27" type="line"/>
      <point x="283" y="-185" type="line"/>
    </contour>
  </outline>
</glyph>
<glyph name="ai-tamil" format="2">
  <advance width="834"/>
  <unicode hex="0B90"/>
  <note>
uni0B90
</note>
  <anchor x="351" y="0" name="bottom"/>
  <anchor x="280" y="-331" name="nukta"/>
  <anchor x="483" y="576" name="top"/>
  <anchor x="480" y="576" name="vedic"/>
  <outline>
    <contour>
      <point x="119" y="-331" type="curve" smooth="yes"/>
      <point x="219" y="-331"/>
      <point x="286" y="-279"/>
      <point x="326" y="-202" type="curve"/>
      <point x="333" y="-275"/>
      <point x="386" y="-331"/>
      <point x="476" y="-331" type="curve" smooth="yes"/>
      <point x="625" y="-331"/>
      <point x="710" y="-218"/>
      <point x="710" y="-69" type="curve" smooth="yes"/>
      <point x="710" y="-24"/>
      <point x="700" y="24"/>
      <point x="687" y="62" type="curve"/>
      <point x="616" y="37" type="line"/>
      <point x="628" y="1"/>
      <point x="638" y="-40"/>
      <point x="638" y="-75" type="curve" smooth="yes"/>
      <point x="638" y="-182"/>
      <point x="583" y="-258"/>
      <point x="482" y="-258" type="curve" smooth="yes"/>
      <point x="410" y="-258"/>
      <point x="383" y="-209"/>
      <point x="401" y="-124" type="curve" smooth="yes"/>
      <point x="422" y="-23" type="line"/>
      <point x="297" y="-23" type="line"/>
      <point x="277" y="-118" type="line" smooth="yes"/>
      <point x="259" y="-203"/>
      <point x="223" y="-257"/>
      <point x="165" y="-257" type="curve" smooth="yes"/>
      <point x="122" y="-257"/>
      <point x="101" y="-221"/>
      <point x="101" y="-171" type="curve" smooth="yes"/>
      <point x="101" y="15"/>
      <point x="192" y="59"/>
      <point x="396" y="82" type="curve" smooth="yes"/>
      <point x="644" y="110"/>
      <point x="813" y="180"/>
      <point x="813" y="399" type="curve" smooth="yes"/>
      <point x="813" y="500"/>
      <point x="749" y="582"/>
      <point x="640" y="582" type="curve" smooth="yes"/>
      <point x="563" y="582"/>
      <point x="498" y="544"/>
      <point x="458" y="471" type="curve"/>
      <point x="441" y="543"/>
      <point x="380" y="582"/>
      <point x="296" y="582" type="curve" smooth="yes"/>
      <point x="145" y="582"/>
      <point x="48" y="444"/>
      <point x="48" y="296" type="curve" smooth="yes"/>
      <point x="48" y="215"/>
      <point x="95" y="153"/>
      <point x="164" y="153" type="curve" smooth="yes"/>
      <point x="254" y="153"/>
      <point x="314" y="223"/>
      <point x="314" y="311" type="curve" smooth="yes"/>
      <point x="314" y="372"/>
      <point x="277" y="410"/>
      <point x="227" y="410" type="curve" smooth="yes"/>
      <point x="160" y="410"/>
      <point x="114" y="358"/>
      <point x="78" y="260" type="curve"/>
      <point x="103" y="243" type="line"/>
      <point x="127" y="308"/>
      <point x="155" y="337"/>
      <point x="178" y="337" type="curve" smooth="yes"/>
      <point x="199" y="337"/>
      <point x="209" y="322"/>
      <point x="209" y="297" type="curve" smooth="yes"/>
      <point x="209" y="264"/>
      <point x="191" y="226"/>
      <point x="155" y="226" type="curve" smooth="yes"/>
      <point x="128" y="226"/>
      <point x="115" y="256"/>
      <point x="115" y="298" type="curve" smooth="yes"/>
      <point x="115" y="404"/>
      <point x="177" y="509"/>
      <point x="285" y="509" type="curve" smooth="yes"/>
      <point x="354" y="509"/>
      <point x="400" y="475"/>
      <point x="384" y="400" type="curve" smooth="yes"/>
      <point x="343" y="208" type="line"/>
      <point x="468" y="208" type="line"/>
      <point x="509" y="396" type="line" smooth="yes"/>
      <point x="524" y="466"/>
      <point x="550" y="507"/>
      <point x="597" y="507" type="curve" smooth="yes"/>
      <point x="640" y="507"/>
      <point x="660" y="472"/>
      <point x="660" y="422" type="curve" smooth="yes"/>
      <point x="660" y="207"/>
      <point x="573" y="154"/>
      <point x="339" y="127" type="curve" smooth="yes"/>
      <point x="139" y="104"/>
      <point x="-53" y="39"/>
      <point x="-53" y="-162" type="curve" smooth="yes"/>
      <point x="-53" y="-261"/>
      <point x="7" y="-331"/>
    </contour>
  </outline>
</glyph>
<glyph name="o-tamil" format="2">
  <advance width="903"/>
  <unicode hex="0B92"/>
  <note>
uni0B92
</note>
  <anchor x="392" y="0" name="bottom"/>
  <anchor x="319" y="-335" name="nukta"/>
  <anchor x="507" y="576" name="top"/>
  <anchor x="507" y="576" name="vedic"/>
  <outline>
    <contour>
      <point x="207" y="-325" type="curve" smooth="yes"/>
      <point x="400" y="-325"/>
      <point x="479" y="-129"/>
      <point x="609" y="-129" type="curve" smooth="yes"/>
      <point x="653" y="-129" type="line"/>
      <point x="667" y="-63" type="line"/>
      <point x="601" y="-63" type="line" smooth="yes"/>
      <point x="508" y="-63"/>
      <point x="462" y="-16"/>
      <point x="462" y="56" type="curve" smooth="yes"/>
      <point x="462" y="102"/>
      <point x="481" y="159"/>
      <point x="520" y="221" type="curve"/>
      <point x="525" y="218" type="line"/>
      <point x="511" y="183"/>
      <point x="505" y="150"/>
      <point x="505" y="121" type="curve" smooth="yes"/>
      <point x="505" y="47"/>
      <point x="548" y="-3"/>
      <point x="633" y="-3" type="curve" smooth="yes"/>
      <point x="755" y="-3"/>
      <point x="853" y="109"/>
      <point x="853" y="257" type="curve" smooth="yes"/>
      <point x="853" y="469"/>
      <point x="690" y="582"/>
      <point x="470" y="582" type="curve" smooth="yes"/>
      <point x="220" y="582"/>
      <point x="27" y="406"/>
      <point x="27" y="214" type="curve" smooth="yes"/>
      <point x="27" y="96"/>
      <point x="86" y="-5"/>
      <point x="199" y="-5" type="curve" smooth="yes"/>
      <point x="311" y="-5"/>
      <point x="392" y="78"/>
      <point x="392" y="202" type="curve" smooth="yes"/>
      <point x="392" y="286"/>
      <point x="345" y="342"/>
      <point x="264" y="342" type="curve" smooth="yes"/>
      <point x="178" y="342"/>
      <point x="114" y="276"/>
      <point x="68" y="158" type="curve"/>
      <point x="97" y="125" type="line"/>
      <point x="131" y="210"/>
      <point x="157" y="235"/>
      <point x="190" y="235" type="curve" smooth="yes"/>
      <point x="218" y="235"/>
      <point x="233" y="208"/>
      <point x="233" y="174" type="curve" smooth="yes"/>
      <point x="233" y="116"/>
      <point x="205" y="77"/>
      <point x="162" y="77" type="curve" smooth="yes"/>
      <point x="120" y="77"/>
      <point x="99" y="140"/>
      <point x="99" y="218" type="curve" smooth="yes"/>
      <point x="99" y="383"/>
      <point x="272" y="511"/>
      <point x="442" y="511" type="curve" smooth="yes"/>
      <point x="594" y="511"/>
      <point x="696" y="426"/>
      <point x="696" y="266" type="curve" smooth="yes"/>
      <point x="696" y="169"/>
      <point x="656" y="86"/>
      <point x="600" y="86" type="curve" smooth="yes"/>
      <point x="572" y="86"/>
      <point x="560" y="109"/>
      <point x="560" y="142" type="curve" smooth="yes"/>
      <point x="560" y="179"/>
      <point x="575" y="228"/>
      <point x="598" y="272" type="curve"/>
      <point x="522" y="309" type="line"/>
      <point x="452" y="217"/>
      <point x="407" y="121"/>
      <point x="407" y="43" type="curve" smooth="yes"/>
      <point x="407" y="-14"/>
      <point x="431" y="-61"/>
      <point x="488" y="-89" type="curve"/>
      <point x="487" y="-94" type="line"/>
      <point x="356" y="-124"/>
      <point x="293" y="-249"/>
      <point x="194" y="-249" type="curve" smooth="yes"/>
      <point x="148" y="-249"/>
      <point x="123" y="-220"/>
      <point x="123" y="-186" type="curve" smooth="yes"/>
      <point x="123" y="-146"/>
      <point x="140" y="-124"/>
      <point x="179" y="-92" type="curve"/>
      <point x="144" y="-49" type="line"/>
      <point x="89" y="-93"/>
      <point x="58" y="-130"/>
      <point x="58" y="-197" type="curve" smooth="yes"/>
      <point x="58" y="-264"/>
      <point x="112" y="-325"/>
    </contour>
  </outline>
</glyph>
<glyph name="oo-tamil" format="2">
  <advance width="903"/>
  <unicode hex="0B93"/>
  <note>
uni0B93
</note>
  <anchor x="393" y="0" name="bottom"/>
  <anchor x="326" y="-304" name="nukta"/>
  <anchor x="508" y="576" name="top"/>
  <anchor x="508" y="576" name="vedic"/>
  <outline>
    <contour>
      <point x="181" y="-337" type="curve" smooth="yes"/>
      <point x="379" y="-337"/>
      <point x="479" y="-129"/>
      <point x="609" y="-129" type="curve" smooth="yes"/>
      <point x="653" y="-129" type="line"/>
      <point x="667" y="-63" type="line"/>
      <point x="601" y="-63" type="line" smooth="yes"/>
      <point x="508" y="-63"/>
      <point x="462" y="-16"/>
      <point x="462" y="56" type="curve" smooth="yes"/>
      <point x="462" y="102"/>
      <point x="481" y="159"/>
      <point x="520" y="221" type="curve"/>
      <point x="525" y="218" type="line"/>
      <point x="511" y="183"/>
      <point x="505" y="150"/>
      <point x="505" y="121" type="curve" smooth="yes"/>
      <point x="505" y="47"/>
      <point x="548" y="-3"/>
      <point x="633" y="-3" type="curve" smooth="yes"/>
      <point x="755" y="-3"/>
      <point x="853" y="109"/>
      <point x="853" y="257" type="curve" smooth="yes"/>
      <point x="853" y="469"/>
      <point x="690" y="582"/>
      <point x="470" y="582" type="curve" smooth="yes"/>
      <point x="220" y="582"/>
      <point x="27" y="406"/>
      <point x="27" y="214" type="curve" smooth="yes"/>
      <point x="27" y="96"/>
      <point x="86" y="-5"/>
      <point x="199" y="-5" type="curve" smooth="yes"/>
      <point x="311" y="-5"/>
      <point x="392" y="78"/>
      <point x="392" y="202" type="curve" smooth="yes"/>
      <point x="392" y="286"/>
      <point x="345" y="342"/>
      <point x="264" y="342" type="curve" smooth="yes"/>
      <point x="178" y="342"/>
      <point x="114" y="276"/>
      <point x="68" y="158" type="curve"/>
      <point x="97" y="125" type="line"/>
      <point x="131" y="210"/>
      <point x="157" y="235"/>
      <point x="190" y="235" type="curve" smooth="yes"/>
      <point x="218" y="235"/>
      <point x="233" y="208"/>
      <point x="233" y="174" type="curve" smooth="yes"/>
      <point x="233" y="116"/>
      <point x="205" y="77"/>
      <point x="162" y="77" type="curve" smooth="yes"/>
      <point x="120" y="77"/>
      <point x="99" y="140"/>
      <point x="99" y="218" type="curve" smooth="yes"/>
      <point x="99" y="383"/>
      <point x="272" y="511"/>
      <point x="442" y="511" type="curve" smooth="yes"/>
      <point x="594" y="511"/>
      <point x="696" y="426"/>
      <point x="696" y="266" type="curve" smooth="yes"/>
      <point x="696" y="169"/>
      <point x="656" y="86"/>
      <point x="600" y="86" type="curve" smooth="yes"/>
      <point x="572" y="86"/>
      <point x="560" y="109"/>
      <point x="560" y="142" type="curve" smooth="yes"/>
      <point x="560" y="179"/>
      <point x="575" y="228"/>
      <point x="598" y="272" type="curve"/>
      <point x="522" y="309" type="line"/>
      <point x="452" y="217"/>
      <point x="407" y="121"/>
      <point x="407" y="43" type="curve" smooth="yes"/>
      <point x="407" y="-14"/>
      <point x="431" y="-61"/>
      <point x="488" y="-89" type="curve"/>
      <point x="487" y="-94" type="line"/>
      <point x="356" y="-124"/>
      <point x="260" y="-261"/>
      <point x="161" y="-261" type="curve" smooth="yes"/>
      <point x="115" y="-261"/>
      <point x="95" y="-232"/>
      <point x="95" y="-198" type="curve" smooth="yes"/>
      <point x="95" y="-155"/>
      <point x="121" y="-125"/>
      <point x="158" y="-125" type="curve" smooth="yes"/>
      <point x="192" y="-125"/>
      <point x="212" y="-147"/>
      <point x="217" y="-190" type="curve"/>
      <point x="260" y="-177"/>
      <point x="286" y="-149"/>
      <point x="286" y="-112" type="curve" smooth="yes"/>
      <point x="286" y="-72"/>
      <point x="248" y="-47"/>
      <point x="197" y="-47" type="curve" smooth="yes"/>
      <point x="102" y="-47"/>
      <point x="33" y="-118"/>
      <point x="33" y="-204" type="curve" smooth="yes"/>
      <point x="33" y="-280"/>
      <point x="93" y="-337"/>
    </contour>
  </outline>
</glyph>
<glyph name="ka-tamil" format="2">
  <advance width="734"/>
  <unicode hex="0B95"/>
  <note>
uni0B95
</note>
  <anchor x="310" y="0" name="bottom"/>
  <anchor x="580" y="576" name="imatra"/>
  <anchor x="310" y="0" name="nukta"/>
  <anchor x="444" y="576" name="top"/>
  <anchor x="433" y="576" name="vedic"/>
  <outline>
    <contour>
      <point x="202" y="-4" type="curve" smooth="yes"/>
      <point x="339" y="-4"/>
      <point x="410" y="60"/>
      <point x="436" y="189" type="curve" smooth="yes"/>
      <point x="453" y="273" type="line"/>
      <point x="469" y="273" type="line" smooth="yes"/>
      <point x="503" y="273"/>
      <point x="522" y="247"/>
      <point x="522" y="198" type="curve" smooth="yes"/>
      <point x="522" y="129"/>
      <point x="492" y="63"/>
      <point x="432" y="63" type="curve" smooth="yes"/>
      <point x="423" y="63" type="line"/>
      <point x="409" y="-4" type="line"/>
      <point x="461" y="-4" type="line" smooth="yes"/>
      <point x="595" y="-4"/>
      <point x="687" y="66"/>
      <point x="687" y="196" type="curve" smooth="yes"/>
      <point x="687" y="296"/>
      <point x="611" y="340"/>
      <point x="497" y="340" type="curve" smooth="yes"/>
      <point x="467" y="340" type="line"/>
      <point x="503" y="509" type="line"/>
      <point x="620" y="509" type="line"/>
      <point x="635" y="576" type="line"/>
      <point x="177" y="576" type="line"/>
      <point x="119" y="303" type="line"/>
      <point x="188" y="303" type="line"/>
      <point x="231" y="509" type="line"/>
      <point x="325" y="509" type="line"/>
      <point x="290" y="340" type="line"/>
      <point x="186" y="340" type="line" smooth="yes"/>
      <point x="81" y="340"/>
      <point x="14" y="255"/>
      <point x="14" y="155" type="curve" smooth="yes"/>
      <point x="14" y="74"/>
      <point x="85" y="-4"/>
    </contour>
    <contour>
      <point x="168" y="78" type="curve" smooth="yes"/>
      <point x="120" y="78"/>
      <point x="84" y="111"/>
      <point x="84" y="166" type="curve" smooth="yes"/>
      <point x="84" y="226"/>
      <point x="115" y="273"/>
      <point x="180" y="273" type="curve" smooth="yes"/>
      <point x="275" y="273" type="line"/>
      <point x="256" y="177" type="line" smooth="yes"/>
      <point x="241" y="100"/>
      <point x="217" y="78"/>
    </contour>
  </outline>
</glyph>
<glyph name="tta-tamil" format="2">
  <advance width="766"/>
  <unicode hex="0B9F"/>
  <note>
uni0B9F
</note>
  <anchor x="329" y="0" name="bottom"/>
  <anchor x="329" y="0" name="nukta"/>
  <anchor x="462" y="576" name="top"/>
  <anchor x="468" y="576" name="vedic"/>
  <outline>
    <contour>
      <point x="-5" y="0" type="line"/>
      <point x="697" y="0" type="line"/>
      <point x="711" y="67" type="line"/>
      <point x="183" y="67" type="line"/>
      <point x="291" y="576" type="line"/>
      <point x="117" y="576" type="line"/>
    </contour>
  </outline>
</glyph>
<glyph name="na-tamil" format="2">
  <advance width="715"/>
  <unicode hex="0BA8"/>
  <note>
uni0BA8
</note>
  <anchor x="277" y="0" name="bottom"/>
  <anchor x="511" y="576" name="imatra"/>
  <anchor x="274" y="-221" name="nukta"/>
  <anchor x="399" y="576" name="top"/>
  <anchor x="423" y="576" name="vedic"/>
  <outline>
    <contour>
      <point x="67" y="-295" type="curve"/>
      <point x="85" y="-190"/>
      <point x="128" y="-129"/>
      <point x="232" y="-129" type="curve" smooth="yes"/>
      <point x="331" y="-129" type="line" smooth="yes"/>
      <point x="515" y="-129"/>
      <point x="655" y="11"/>
      <point x="655" y="198" type="curve" smooth="yes"/>
      <point x="655" y="296"/>
      <point x="611" y="355"/>
      <point x="530" y="355" type="curve" smooth="yes"/>
      <point x="471" y="355"/>
      <point x="443" y="322"/>
      <point x="406" y="283" type="curve"/>
      <point x="453" y="509" type="line"/>
      <point x="552" y="509" type="line"/>
      <point x="566" y="576" type="line"/>
      <point x="119" y="576" type="line"/>
      <point x="-3" y="0" type="line"/>
      <point x="67" y="0" type="line"/>
      <point x="175" y="509" type="line"/>
      <point x="279" y="509" type="line"/>
      <point x="171" y="0" type="line"/>
      <point x="345" y="0" type="line"/>
      <point x="383" y="177" type="line" smooth="yes"/>
      <point x="394" y="228"/>
      <point x="420" y="245"/>
      <point x="444" y="245" type="curve" smooth="yes"/>
      <point x="478" y="245"/>
      <point x="493" y="220"/>
      <point x="493" y="176" type="curve" smooth="yes"/>
      <point x="493" y="38"/>
      <point x="425" y="-71"/>
      <point x="292" y="-71" type="curve" smooth="yes"/>
      <point x="188" y="-71" type="line" smooth="yes"/>
      <point x="67" y="-71"/>
      <point x="-42" y="-99"/>
      <point x="-42" y="-205" type="curve" smooth="yes"/>
      <point x="-42" y="-261"/>
      <point x="0" y="-295"/>
    </contour>
  </outline>
</glyph>
<glyph name="pa-tamil" format="2">
  <advance width="762"/>
  <unicode hex="0BAA"/>
  <note>
uni0BAA
</note>
  <anchor x="324" y="0" name="bottom"/>
  <anchor x="759" y="576" name="imatra"/>
  <anchor x="324" y="0" name="nukta"/>
  <anchor x="450" y="576" name="top"/>
  <anchor x="441" y="576" name="vedic"/>
  <outline>
    <contour>
      <point x="-5" y="0" type="line"/>
      <point x="645" y="0" type="line"/>
      <point x="767" y="576" type="line"/>
      <point x="596" y="576" type="line"/>
      <point x="488" y="67" type="line"/>
      <point x="183" y="67" type="line"/>
      <point x="291" y="576" type="line"/>
      <point x="117" y="576" type="line"/>
    </contour>
  </outline>
</glyph>
<glyph name="ma-tamil" format="2">
  <advance width="755"/>
  <unicode hex="0BAE"/>
  <note>
uni0BAE
</note>
  <anchor x="313" y="0" name="bottom"/>
  <anchor x="772" y="576" name="imatra"/>
  <anchor x="314" y="0" name="nukta"/>
  <anchor x="426" y="576" name="top"/>
  <anchor x="456" y="576" name="vedic"/>
  <outline>
    <contour>
      <point x="-5" y="0" type="line"/>
      <point x="515" y="0" type="line" smooth="yes"/>
      <point x="659" y="0"/>
      <point x="720" y="188"/>
      <point x="720" y="355" type="curve" smooth="yes"/>
      <point x="720" y="505"/>
      <point x="646" y="582"/>
      <point x="548" y="582" type="curve" smooth="yes"/>
      <point x="441" y="582"/>
      <point x="393" y="508"/>
      <point x="375" y="422" type="curve" smooth="yes"/>
      <point x="299" y="67" type="line"/>
      <point x="183" y="67" type="line"/>
      <point x="291" y="576" type="line"/>
      <point x="117" y="576" type="line"/>
    </contour>
    <contour>
      <point x="474" y="67" type="line"/>
      <point x="551" y="428" type="line" smooth="yes"/>
      <point x="559" y="467"/>
      <point x="570" y="484"/>
      <point x="594" y="484" type="curve" smooth="yes"/>
      <point x="622" y="484"/>
      <point x="649" y="447"/>
      <point x="649" y="348" type="curve" smooth="yes"/>
      <point x="649" y="242"/>
      <point x="609" y="67"/>
      <point x="525" y="67" type="curve" smooth="yes"/>
    </contour>
  </outline>
</glyph>
<glyph name="ya-tamil" format="2">
  <advance width="865"/>
  <unicode hex="0BAF"/>
  <note>
uni0BAF
</note>
  <anchor x="358" y="0" name="bottom"/>
  <anchor x="869" y="576" name="imatra"/>
  <anchor x="353" y="0" name="nukta"/>
  <anchor x="498" y="576" name="top"/>
  <anchor x="497" y="576" name="vedic"/>
  <outline>
    <contour>
      <point x="140" y="-12" type="curve" smooth="yes"/>
      <point x="194" y="-12"/>
      <point x="240" y="11"/>
      <point x="277" y="55" type="curve"/>
      <point x="265" y="0" type="line"/>
      <point x="748" y="0" type="line"/>
      <point x="870" y="576" type="line"/>
      <point x="696" y="576" type="line"/>
      <point x="587" y="67" type="line"/>
      <point x="427" y="67" type="line"/>
      <point x="535" y="576" type="line"/>
      <point x="368" y="576" type="line"/>
      <point x="274" y="131" type="line" smooth="yes"/>
      <point x="266" y="92"/>
      <point x="246" y="78"/>
      <point x="223" y="78" type="curve" smooth="yes"/>
      <point x="197" y="78"/>
      <point x="186" y="99"/>
      <point x="197" y="150" type="curve" smooth="yes"/>
      <point x="287" y="576" type="line"/>
      <point x="115" y="576" type="line"/>
      <point x="28" y="168" type="line" smooth="yes"/>
      <point x="3" y="52"/>
      <point x="59" y="-12"/>
    </contour>
  </outline>
</glyph>
<glyph name="ra-tamil" format="2">
  <advance width="532"/>
  <unicode hex="0BB0"/>
  <note>
uni0BB0
</note>
  <anchor x="196" y="0" name="bottom"/>
  <anchor x="527" y="576" name="imatra"/>
  <anchor x="143" y="-251" name="nukta"/>
  <anchor x="337" y="576" name="top"/>
  <anchor x="347" y="576" name="vedic"/>
  <outline>
    <contour>
      <point x="60" y="-235" type="line"/>
      <point x="378" y="59" type="line"/>
      <point x="474" y="509" type="line"/>
      <point x="567" y="509" type="line"/>
      <point x="581" y="576" type="line"/>
      <point x="117" y="576" type="line"/>
      <point x="-5" y="0" type="line"/>
      <point x="66" y="0" type="line"/>
      <point x="174" y="509" type="line"/>
      <point x="300" y="509" type="line"/>
      <point x="187" y="-27" type="line"/>
      <point x="16" y="-185" type="line"/>
    </contour>
  </outline>
</glyph>
<glyph name="ssa-tamil" format="2">
  <advance width="1335"/>
  <unicode hex="0BB7"/>
  <note>
uni0BB7
</note>
  <anchor x="609" y="0" name="bottom"/>
  <anchor x="470" y="0" name="nukta"/>
  <anchor x="754" y="576" name="top"/>
  <anchor x="731" y="576" name="vedic"/>
  <outline>
    <contour>
      <point x="202" y="-5" type="curve" smooth="yes"/>
      <point x="314" y="-5"/>
      <point x="397" y="78"/>
      <point x="397" y="202" type="curve" smooth="yes"/>
      <point x="397" y="286"/>
      <point x="348" y="342"/>
      <point x="267" y="342" type="curve" smooth="yes"/>
      <point x="181" y="342"/>
      <point x="115" y="276"/>
      <point x="69" y="158" type="curve"/>
      <point x="98" y="125" type="line"/>
      <point x="132" y="210"/>
      <point x="160" y="235"/>
      <point x="193" y="235" type="curve" smooth="yes"/>
      <point x="221" y="235"/>
      <point x="238" y="208"/>
      <point x="238" y="174" type="curve" smooth="yes"/>
      <point x="238" y="116"/>
      <point x="208" y="77"/>
      <point x="165" y="77" type="curve" smooth="yes"/>
      <point x="123" y="77"/>
      <point x="100" y="140"/>
      <point x="100" y="218" type="curve" smooth="yes"/>
      <point x="100" y="373"/>
      <point x="216" y="504"/>
      <point x="349" y="504" type="curve" smooth="yes"/>
      <point x="445" y="504"/>
      <point x="505" y="449"/>
      <point x="505" y="326" type="curve" smooth="yes"/>
      <point x="505" y="226"/>
      <point x="468" y="130"/>
      <point x="411" y="48" type="curve"/>
      <point x="427" y="0" type="line"/>
      <point x="1230" y="0" type="line"/>
      <point x="1300" y="325" type="line"/>
      <point x="1132" y="275" type="line"/>
      <point x="1088" y="67" type="line"/>
      <point x="526" y="67" type="line"/>
      <point x="607" y="131"/>
      <point x="676" y="227"/>
      <point x="676" y="342" type="curve" smooth="yes"/>
      <point x="676" y="511"/>
      <point x="540" y="582"/>
      <point x="389" y="582" type="curve" smooth="yes"/>
      <point x="184" y="582"/>
      <point x="28" y="409"/>
      <point x="28" y="214" type="curve" smooth="yes"/>
      <point x="28" y="96"/>
      <point x="89" y="-5"/>
    </contour>
    <contour>
      <point x="763" y="-275" type="line"/>
      <point x="923" y="-275" type="line"/>
      <point x="1067" y="403" type="line" smooth="yes"/>
      <point x="1089" y="505"/>
      <point x="1051" y="582"/>
      <point x="946" y="582" type="curve" smooth="yes"/>
      <point x="829" y="582"/>
      <point x="745" y="489"/>
      <point x="745" y="367" type="curve" smooth="yes"/>
      <point x="745" y="273"/>
      <point x="815" y="202"/>
      <point x="937" y="202" type="curve" smooth="yes"/>
      <point x="1067" y="202"/>
      <point x="1163" y="241"/>
      <point x="1298" y="318" type="curve"/>
      <point x="1299" y="329" type="line"/>
      <point x="1276" y="378" type="line"/>
      <point x="1152" y="307"/>
      <point x="1053" y="267"/>
      <point x="944" y="267" type="curve" smooth="yes"/>
      <point x="853" y="267"/>
      <point x="811" y="312"/>
      <point x="811" y="379" type="curve" smooth="yes"/>
      <point x="811" y="426"/>
      <point x="837" y="475"/>
      <point x="877" y="475" type="curve" smooth="yes"/>
      <point x="906" y="475"/>
      <point x="918" y="448"/>
      <point x="910" y="412" type="curve" smooth="yes"/>
    </contour>
  </outline>
</glyph>
<glyph name="sa-tamil" format="2">
  <advance width="1196"/>
  <unicode hex="0BB8"/>
  <note>
uni0BB8
</note>
  <anchor x="576" y="0" name="bottom"/>
  <anchor x="571" y="0" name="nukta"/>
  <anchor x="691" y="576" name="top"/>
  <anchor x="694" y="576" name="vedic"/>
  <outline>
    <contour>
      <point x="434" y="0" type="line"/>
      <point x="606" y="0" type="line"/>
      <point x="700" y="442" type="line" smooth="yes"/>
      <point x="712" y="498"/>
      <point x="732" y="509"/>
      <point x="762" y="509" type="curve" smooth="yes"/>
      <point x="791" y="509"/>
      <point x="811" y="485"/>
      <point x="801" y="440" type="curve" smooth="yes"/>
      <point x="743" y="176" type="line" smooth="yes"/>
      <point x="719" y="65"/>
      <point x="757" y="-5"/>
      <point x="874" y="-5" type="curve" smooth="yes"/>
      <point x="1050" y="-5"/>
      <point x="1167" y="162"/>
      <point x="1167" y="374" type="curve" smooth="yes"/>
      <point x="1167" y="453"/>
      <point x="1150" y="519"/>
      <point x="1125" y="581" type="curve"/>
      <point x="1056" y="553" type="line"/>
      <point x="1079" y="497"/>
      <point x="1095" y="435"/>
      <point x="1095" y="369" type="curve" smooth="yes"/>
      <point x="1095" y="203"/>
      <point x="1013" y="83"/>
      <point x="938" y="83" type="curve" smooth="yes"/>
      <point x="903" y="83"/>
      <point x="906" y="120"/>
      <point x="916" y="165" type="curve" smooth="yes"/>
      <point x="964" y="386" type="line" smooth="yes"/>
      <point x="992" y="513"/>
      <point x="904" y="580"/>
      <point x="781" y="580" type="curve" smooth="yes"/>
      <point x="672" y="580"/>
      <point x="582" y="533"/>
      <point x="559" y="430" type="curve" smooth="yes"/>
      <point x="543" y="358" type="line"/>
      <point x="510" y="358" type="line"/>
    </contour>
    <contour>
      <point x="202" y="-5" type="curve" smooth="yes"/>
      <point x="314" y="-5"/>
      <point x="397" y="78"/>
      <point x="397" y="202" type="curve" smooth="yes"/>
      <point x="397" y="286"/>
      <point x="348" y="342"/>
      <point x="267" y="342" type="curve" smooth="yes"/>
      <point x="181" y="342"/>
      <point x="115" y="276"/>
      <point x="69" y="158" type="curve"/>
      <point x="98" y="125" type="line"/>
      <point x="132" y="210"/>
      <point x="160" y="235"/>
      <point x="193" y="235" type="curve" smooth="yes"/>
      <point x="221" y="235"/>
      <point x="238" y="208"/>
      <point x="238" y="174" type="curve" smooth="yes"/>
      <point x="238" y="116"/>
      <point x="208" y="77"/>
      <point x="165" y="77" type="curve" smooth="yes"/>
      <point x="123" y="77"/>
      <point x="100" y="140"/>
      <point x="100" y="218" type="curve" smooth="yes"/>
      <point x="100" y="373"/>
      <point x="226" y="504"/>
      <point x="359" y="504" type="curve" smooth="yes"/>
      <point x="488" y="504"/>
      <point x="525" y="426"/>
      <point x="497" y="297" type="curve"/>
      <point x="569" y="313" type="line"/>
      <point x="601" y="510"/>
      <point x="495" y="581"/>
      <point x="379" y="581" type="curve" smooth="yes"/>
      <point x="192" y="581"/>
      <point x="28" y="399"/>
      <point x="28" y="214" type="curve" smooth="yes"/>
      <point x="28" y="96"/>
      <point x="89" y="-5"/>
    </contour>
  </outline>
</glyph>
<glyph name="aaMatra-tamil" format="2">
  <advance width="532"/>
  <unicode hex="0BBE"/>
  <note>
uni0BBE
</note>
  <outline>
    <contour>
      <point x="-5" y="0" type="line"/>
      <point x="66" y="0" type="line"/>
      <point x="174" y="509" type="line"/>
      <point x="300" y="509" type="line"/>
      <point x="192" y="0" type="line"/>
      <point x="366" y="0" type="line"/>
      <point x="474" y="509" type="line"/>
      <point x="567" y="509" type="line"/>
      <point x="581" y="576" type="line"/>
      <point x="117" y="576" type="line"/>
    </contour>
  </outline>
</glyph>
<glyph name="iMatra-tamil" format="2">
  <advance width="192"/>
  <unicode hex="0BBF"/>
  <note>
uni0BBF
</note>
  <anchor x="7" y="846" name="top"/>
  <outline>
    <contour>
      <point x="-15" y="0" type="line"/>
      <point x="56" y="0" type="line"/>
      <point x="178" y="571" type="line" smooth="yes"/>
      <point x="213" y="736"/>
      <point x="98" y="846"/>
      <point x="-71" y="846" type="curve" smooth="yes"/>
      <point x="-217" y="846"/>
      <point x="-319" y="763"/>
      <point x="-319" y="652" type="curve" smooth="yes"/>
      <point x="-319" y="589"/>
      <point x="-271" y="530"/>
      <point x="-173" y="530" type="curve" smooth="yes"/>
      <point x="-172" y="530" type="line"/>
      <point x="-159" y="576" type="line"/>
      <point x="-160" y="576" type="line" smooth="yes"/>
      <point x="-199" y="576"/>
      <point x="-228" y="582"/>
      <point x="-228" y="619" type="curve" smooth="yes"/>
      <point x="-228" y="664"/>
      <point x="-172" y="705"/>
      <point x="-84" y="705" type="curve" smooth="yes"/>
      <point x="28" y="705"/>
      <point x="121" y="646"/>
      <point x="97" y="530" type="curve" smooth="yes"/>
    </contour>
  </outline>
</glyph>
<glyph name="iiMatra-tamil" format="2">
  <unicode hex="0BC0"/>
  <note>
uni0BC0
</note>
  <anchor x="64" y="576" name="_imatra"/>
  <outline>
    <contour>
      <point x="33" y="509" type="curve" smooth="yes"/>
      <point x="48" y="509" type="line"/>
      <point x="63" y="576" type="line"/>
      <point x="47" y="576" type="line" smooth="yes"/>
      <point x="-17" y="576"/>
      <point x="-51" y="623"/>
      <point x="-51" y="693" type="curve" smooth="yes"/>
      <point x="-51" y="781"/>
      <point x="-5" y="858"/>
      <point x="85" y="858" type="curve" smooth="yes"/>
      <point x="136" y="858"/>
      <point x="158" y="832"/>
      <point x="158" y="785" type="curve" smooth="yes"/>
      <point x="158" y="745"/>
      <point x="140" y="704"/>
      <point x="100" y="704" type="curve" smooth="yes"/>
      <point x="75" y="704"/>
      <point x="63" y="727"/>
      <point x="63" y="758" type="curve" smooth="yes"/>
      <point x="63" y="794"/>
      <point x="78" y="842"/>
      <point x="103" y="880" type="curve"/>
      <point x="59" y="885" type="line"/>
      <point x="24" y="836"/>
      <point x="6" y="781"/>
      <point x="6" y="734" type="curve" smooth="yes"/>
      <point x="6" y="665"/>
      <point x="45" y="612"/>
      <point x="126" y="612" type="curve" smooth="yes"/>
      <point x="208" y="612"/>
      <point x="286" y="676"/>
      <point x="286" y="776" type="curve" smooth="yes"/>
      <point x="286" y="870"/>
      <point x="213" y="929"/>
      <point x="104" y="929" type="curve" smooth="yes"/>
      <point x="-18" y="929"/>
      <point x="-119" y="828"/>
      <point x="-119" y="686" type="curve" smooth="yes"/>
      <point x="-119" y="584"/>
      <point x="-63" y="509"/>
    </contour>
  </outline>
</glyph>
<glyph name="eMatra-tamil" format="2">
  <advance width="701"/>
  <unicode hex="0BC6"/>
  <note>
uni0BC6
</note>
  <outline>
    <contour>
      <point x="237" y="-5" type="curve" smooth="yes"/>
      <point x="349" y="-5"/>
      <point x="436" y="78"/>
      <point x="436" y="202" type="curve" smooth="yes"/>
      <point x="436" y="286"/>
      <point x="387" y="342"/>
      <point x="306" y="342" type="curve" smooth="yes"/>
      <point x="220" y="342"/>
      <point x="154" y="276"/>
      <point x="108" y="158" type="curve"/>
      <point x="137" y="125" type="line"/>
      <point x="171" y="210"/>
      <point x="199" y="235"/>
      <point x="232" y="235" type="curve" smooth="yes"/>
      <point x="260" y="235"/>
      <point x="277" y="208"/>
      <point x="277" y="174" type="curve" smooth="yes"/>
      <point x="277" y="116"/>
      <point x="247" y="77"/>
      <point x="204" y="77" type="curve" smooth="yes"/>
      <point x="148" y="77"/>
      <point x="123" y="151"/>
      <point x="123" y="272" type="curve" smooth="yes"/>
      <point x="123" y="488"/>
      <point x="242" y="698"/>
      <point x="444" y="698" type="curve" smooth="yes"/>
      <point x="550" y="698"/>
      <point x="608" y="648"/>
      <point x="608" y="555" type="curve" smooth="yes"/>
      <point x="608" y="538"/>
      <point x="605" y="518"/>
      <point x="601" y="497" type="curve" smooth="yes"/>
      <point x="497" y="0" type="line"/>
      <point x="566" y="0" type="line"/>
      <point x="680" y="538" type="line" smooth="yes"/>
      <point x="686" y="568"/>
      <point x="690" y="597"/>
      <point x="690" y="624" type="curve" smooth="yes"/>
      <point x="690" y="759"/>
      <point x="610" y="846"/>
      <point x="470" y="846" type="curve" smooth="yes"/>
      <point x="207" y="846"/>
      <point x="52" y="541"/>
      <point x="52" y="262" type="curve" smooth="yes"/>
      <point x="52" y="101"/>
      <point x="122" y="-5"/>
    </contour>
  </outline>
</glyph>
<glyph name="eeMatra-tamil" format="2">
  <advance width="535"/>
  <unicode hex="0BC7"/>
  <note>
uni0BC7
</note>
  <outline>
    <contour>
      <point x="281" y="-5" type="curve" smooth="yes"/>
      <point x="390" y="-5"/>
      <point x="484" y="78"/>
      <point x="484" y="202" type="curve" smooth="yes"/>
      <point x="484" y="286"/>
      <point x="436" y="342"/>
      <point x="357" y="342" type="curve" smooth="yes"/>
      <point x="255" y="342"/>
      <point x="188" y="250"/>
      <point x="148" y="108" type="curve"/>
      <point x="188" y="79" type="line"/>
      <point x="219" y="186"/>
      <point x="247" y="235"/>
      <point x="283" y="235" type="curve" smooth="yes"/>
      <point x="313" y="235"/>
      <point x="325" y="210"/>
      <point x="325" y="174" type="curve" smooth="yes"/>
      <point x="325" y="116"/>
      <point x="295" y="77"/>
      <point x="252" y="77" type="curve" smooth="yes"/>
      <point x="170" y="77"/>
      <point x="138" y="195"/>
      <point x="138" y="350" type="curve" smooth="yes"/>
      <point x="138" y="512"/>
      <point x="257" y="764"/>
      <point x="398" y="764" type="curve" smooth="yes"/>
      <point x="431" y="764"/>
      <point x="444" y="745"/>
      <point x="444" y="702" type="curve" smooth="yes"/>
      <point x="444" y="654"/>
      <point x="417" y="605"/>
      <point x="377" y="605" type="curve" smooth="yes"/>
      <point x="332" y="605"/>
      <point x="336" y="703"/>
      <point x="348" y="771" type="curve"/>
      <point x="299" y="748" type="line"/>
      <point x="279" y="621"/>
      <point x="304" y="499"/>
      <point x="417" y="499" type="curve" smooth="yes"/>
      <point x="516" y="499"/>
      <point x="596" y="586"/>
      <point x="596" y="691" type="curve" smooth="yes"/>
      <point x="596" y="796"/>
      <point x="535" y="846"/>
      <point x="440" y="846" type="curve" smooth="yes"/>
      <point x="227" y="846"/>
      <point x="66" y="560"/>
      <point x="66" y="343" type="curve" smooth="yes"/>
      <point x="66" y="143"/>
      <point x="122" y="-5"/>
    </contour>
  </outline>
</glyph>
<glyph name="aiMatra-tamil" format="2">
  <advance width="1124"/>
  <unicode hex="0BC8"/>
  <note>
uni0BC8
</note>
  <outline>
    <contour>
      <point x="827" y="-12" type="line"/>
      <point x="986" y="57"/>
      <point x="1090" y="174"/>
      <point x="1090" y="334" type="curve" smooth="yes"/>
      <point x="1090" y="503"/>
      <point x="961" y="582"/>
      <point x="812" y="582" type="curve" smooth="yes"/>
      <point x="633" y="582"/>
      <point x="435" y="381"/>
      <point x="435" y="150" type="curve" smooth="yes"/>
      <point x="435" y="58"/>
      <point x="487" y="-4"/>
      <point x="572" y="-4" type="curve" smooth="yes"/>
      <point x="699" y="-4"/>
      <point x="779" y="92"/>
      <point x="779" y="242" type="curve" smooth="yes"/>
      <point x="779" y="450"/>
      <point x="634" y="582"/>
      <point x="416" y="582" type="curve" smooth="yes"/>
      <point x="216" y="582"/>
      <point x="27" y="409"/>
      <point x="27" y="214" type="curve" smooth="yes"/>
      <point x="27" y="96"/>
      <point x="88" y="-5"/>
      <point x="201" y="-5" type="curve" smooth="yes"/>
      <point x="313" y="-5"/>
      <point x="396" y="78"/>
      <point x="396" y="202" type="curve" smooth="yes"/>
      <point x="396" y="286"/>
      <point x="347" y="342"/>
      <point x="266" y="342" type="curve" smooth="yes"/>
      <point x="180" y="342"/>
      <point x="114" y="276"/>
      <point x="68" y="158" type="curve"/>
      <point x="97" y="125" type="line"/>
      <point x="131" y="210"/>
      <point x="159" y="235"/>
      <point x="192" y="235" type="curve" smooth="yes"/>
      <point x="220" y="235"/>
      <point x="237" y="208"/>
      <point x="237" y="174" type="curve" smooth="yes"/>
      <point x="237" y="116"/>
      <point x="207" y="77"/>
      <point x="164" y="77" type="curve" smooth="yes"/>
      <point x="122" y="77"/>
      <point x="99" y="140"/>
      <point x="99" y="218" type="curve" smooth="yes"/>
      <point x="99" y="373"/>
      <point x="238" y="509"/>
      <point x="402" y="509" type="curve" smooth="yes"/>
      <point x="578" y="509"/>
      <point x="626" y="389"/>
      <point x="626" y="255" type="curve" smooth="yes"/>
      <point x="626" y="175"/>
      <point x="608" y="79"/>
      <point x="544" y="79" type="curve" smooth="yes"/>
      <point x="519" y="79"/>
      <point x="504" y="105"/>
      <point x="504" y="155" type="curve" smooth="yes"/>
      <point x="504" y="347"/>
      <point x="663" y="509"/>
      <point x="795" y="509" type="curve" smooth="yes"/>
      <point x="884" y="509"/>
      <point x="942" y="457"/>
      <point x="942" y="351" type="curve" smooth="yes"/>
      <point x="942" y="228"/>
      <point x="897" y="122"/>
      <point x="801" y="34" type="curve"/>
    </contour>
  </outline>
</glyph>
<glyph name="halant-tamil" format="2">
  <unicode hex="0BCD"/>
  <note>
uni0BCD
</note>
  <anchor x="64" y="576" name="_top"/>
  <anchor x="105" y="777" name="top"/>
  <outline>
    <contour>
      <point x="92" y="636" type="curve" smooth="yes"/>
      <point x="141" y="636"/>
      <point x="182" y="676"/>
      <point x="182" y="723" type="curve" smooth="yes"/>
      <point x="182" y="771"/>
      <point x="141" y="811"/>
      <point x="93" y="811" type="curve" smooth="yes"/>
      <point x="43" y="811"/>
      <point x="3" y="771"/>
      <point x="3" y="723" type="curve" smooth="yes"/>
      <point x="3" y="676"/>
      <point x="43" y="636"/>
    </contour>
  </outline>
</glyph>
<glyph name="om-tamil" format="2">
  <advance width="905"/>
  <unicode hex="0BD0"/>
  <note>
uni0BD0
</note>
  <outline>
    <contour>
      <point x="181" y="-392" type="curve" smooth="yes"/>
      <point x="433" y="-392"/>
      <point x="488" y="-158"/>
      <point x="618" y="-158" type="curve" smooth="yes"/>
      <point x="657" y="-158" type="line"/>
      <point x="671" y="-92" type="line"/>
      <point x="610" y="-92" type="line" smooth="yes"/>
      <point x="515" y="-92"/>
      <point x="466" y="-32"/>
      <point x="466" y="51" type="curve" smooth="yes"/>
      <point x="466" y="102"/>
      <point x="485" y="162"/>
      <point x="522" y="221" type="curve"/>
      <point x="527" y="218" type="line"/>
      <point x="513" y="183"/>
      <point x="507" y="150"/>
      <point x="507" y="121" type="curve" smooth="yes"/>
      <point x="507" y="47"/>
      <point x="550" y="-3"/>
      <point x="635" y="-3" type="curve" smooth="yes"/>
      <point x="757" y="-3"/>
      <point x="855" y="109"/>
      <point x="855" y="257" type="curve" smooth="yes"/>
      <point x="855" y="469"/>
      <point x="692" y="582"/>
      <point x="472" y="582" type="curve" smooth="yes"/>
      <point x="222" y="582"/>
      <point x="29" y="416"/>
      <point x="29" y="224" type="curve" smooth="yes"/>
      <point x="29" y="106"/>
      <point x="88" y="5"/>
      <point x="201" y="5" type="curve" smooth="yes"/>
      <point x="313" y="5"/>
      <point x="394" y="88"/>
      <point x="394" y="212" type="curve" smooth="yes"/>
      <point x="394" y="296"/>
      <point x="347" y="352"/>
      <point x="266" y="352" type="curve" smooth="yes"/>
      <point x="180" y="352"/>
      <point x="116" y="286"/>
      <point x="70" y="168" type="curve"/>
      <point x="99" y="135" type="line"/>
      <point x="133" y="220"/>
      <point x="159" y="245"/>
      <point x="192" y="245" type="curve" smooth="yes"/>
      <point x="220" y="245"/>
      <point x="235" y="218"/>
      <point x="235" y="184" type="curve" smooth="yes"/>
      <point x="235" y="126"/>
      <point x="207" y="87"/>
      <point x="164" y="87" type="curve" smooth="yes"/>
      <point x="122" y="87"/>
      <point x="101" y="150"/>
      <point x="101" y="228" type="curve" smooth="yes"/>
      <point x="101" y="393"/>
      <point x="274" y="511"/>
      <point x="444" y="511" type="curve" smooth="yes"/>
      <point x="596" y="511"/>
      <point x="698" y="426"/>
      <point x="698" y="266" type="curve" smooth="yes"/>
      <point x="698" y="169"/>
      <point x="658" y="86"/>
      <point x="602" y="86" type="curve" smooth="yes"/>
      <point x="574" y="86"/>
      <point x="562" y="109"/>
      <point x="562" y="142" type="curve" smooth="yes"/>
      <point x="562" y="179"/>
      <point x="577" y="228"/>
      <point x="600" y="272" type="curve"/>
      <point x="524" y="309" type="line"/>
      <point x="455" y="218"/>
      <point x="408" y="114"/>
      <point x="408" y="29" type="curve" smooth="yes"/>
      <point x="408" y="-35"/>
      <point x="434" y="-88"/>
      <point x="497" y="-118" type="curve"/>
      <point x="496" y="-123" type="line"/>
      <point x="365" y="-153"/>
      <point x="356" y="-319"/>
      <point x="164" y="-319" type="curve" smooth="yes"/>
      <point x="84" y="-319"/>
      <point x="40" y="-286"/>
      <point x="40" y="-227" type="curve" smooth="yes"/>
      <point x="40" y="-213"/>
      <point x="42" y="-196"/>
      <point x="48" y="-179" type="curve"/>
      <point x="-8" y="-171" type="line"/>
      <point x="-16" y="-195"/>
      <point x="-19" y="-218"/>
      <point x="-19" y="-239" type="curve" smooth="yes"/>
      <point x="-19" y="-331"/>
      <point x="52" y="-392"/>
    </contour>
    <contour>
      <point x="82" y="-257" type="line"/>
      <point x="134" y="-257" type="line"/>
      <point x="167" y="-100" type="line"/>
      <point x="115" y="-100" type="line"/>
    </contour>
    <contour>
      <point x="98" y="-257" type="line"/>
      <point x="267" y="-257" type="line"/>
      <point x="277" y="-212" type="line"/>
      <point x="109" y="-212" type="line"/>
    </contour>
    <contour>
      <point x="162" y="-257" type="line"/>
      <point x="211" y="-257" type="line"/>
      <point x="233" y="-154" type="line" smooth="yes"/>
      <point x="235" y="-143"/>
      <point x="241" y="-140"/>
      <point x="248" y="-140" type="curve" smooth="yes"/>
      <point x="259" y="-140"/>
      <point x="260" y="-150"/>
      <point x="258" y="-160" type="curve" smooth="yes"/>
      <point x="238" y="-257" type="line"/>
      <point x="289" y="-257" type="line"/>
      <point x="306" y="-171" type="line" smooth="yes"/>
      <point x="315" y="-125"/>
      <point x="295" y="-98"/>
      <point x="253" y="-98" type="curve" smooth="yes"/>
      <point x="216" y="-98"/>
      <point x="192" y="-119"/>
      <point x="182" y="-165" type="curve" smooth="yes"/>
    </contour>
    <contour>
      <point x="235" y="-79" type="curve" smooth="yes"/>
      <point x="254" y="-79"/>
      <point x="268" y="-64"/>
      <point x="268" y="-47" type="curve" smooth="yes"/>
      <point x="268" y="-31"/>
      <point x="252" y="-17"/>
      <point x="235" y="-17" type="curve" smooth="yes"/>
      <point x="218" y="-17"/>
      <point x="203" y="-32"/>
      <point x="203" y="-49" type="curve" smooth="yes"/>
      <point x="203" y="-65"/>
      <point x="218" y="-79"/>
    </contour>
  </outline>
</glyph>
<glyph name="zero-tamil" format="2">
  <advance width="529"/>
  <unicode hex="0BE6"/>
  <note>
uni0BE6
</note>
  <outline>
    <contour>
      <point x="210" y="-5" type="curve" smooth="yes"/>
      <point x="376" y="-5"/>
      <point x="502" y="167"/>
      <point x="502" y="361" type="curve" smooth="yes"/>
      <point x="502" y="504"/>
      <point x="426" y="582"/>
      <point x="312" y="582" type="curve" smooth="yes"/>
      <point x="134" y="582"/>
      <point x="30" y="385"/>
      <point x="30" y="207" type="curve" smooth="yes"/>
      <point x="30" y="77"/>
      <point x="96" y="-5"/>
    </contour>
    <contour>
      <point x="186" y="76" type="curve" smooth="yes"/>
      <point x="126" y="76"/>
      <point x="100" y="129"/>
      <point x="100" y="211" type="curve" smooth="yes"/>
      <point x="100" y="340"/>
      <point x="164" y="500"/>
      <point x="269" y="500" type="curve" smooth="yes"/>
      <point x="335" y="500"/>
      <point x="357" y="450"/>
      <point x="357" y="364" type="curve" smooth="yes"/>
      <point x="357" y="226"/>
      <point x="296" y="76"/>
    </contour>
  </outline>
</glyph>
<glyph name="two-tamil" format="2">
  <advance width="832"/>
  <unicode hex="0BE8"/>
  <note>
uni0BE8
</note>
  <outline>
    <contour>
      <point x="100" y="0" type="curve" smooth="yes"/>
      <point x="750" y="0" type="line"/>
      <point x="765" y="67" type="line"/>
      <point x="103" y="67" type="line" smooth="yes"/>
      <point x="85" y="67"/>
      <point x="73" y="79"/>
      <point x="73" y="98" type="curve" smooth="yes"/>
      <point x="73" y="119"/>
      <point x="86" y="131"/>
      <point x="107" y="131" type="curve" smooth="yes"/>
      <point x="315" y="131" type="line" smooth="yes"/>
      <point x="486" y="131"/>
      <point x="617" y="211"/>
      <point x="617" y="383" type="curve" smooth="yes"/>
      <point x="617" y="509"/>
      <point x="521" y="581"/>
      <point x="393" y="581" type="curve" smooth="yes"/>
      <point x="230" y="581"/>
      <point x="129" y="468"/>
      <point x="129" y="323" type="curve" smooth="yes"/>
      <point x="129" y="222"/>
      <point x="178" y="152"/>
      <point x="282" y="152" type="curve"/>
      <point x="292" y="194" type="line"/>
      <point x="222" y="194"/>
      <point x="194" y="254"/>
      <point x="194" y="319" type="curve" smooth="yes"/>
      <point x="194" y="412"/>
      <point x="248" y="513"/>
      <point x="352" y="513" type="curve" smooth="yes"/>
      <point x="424" y="513"/>
      <point x="460" y="466"/>
      <point x="460" y="394" type="curve" smooth="yes"/>
      <point x="460" y="279"/>
      <point x="398" y="194"/>
      <point x="301" y="194" type="curve" smooth="yes"/>
      <point x="117" y="194" type="line" smooth="yes"/>
      <point x="42" y="194"/>
      <point x="8" y="149"/>
      <point x="8" y="90" type="curve" smooth="yes"/>
      <point x="8" y="34"/>
      <point x="51" y="0"/>
    </contour>
  </outline>
</glyph>
<glyph name="three-tamil" format="2">
  <advance width="728"/>
  <unicode hex="0BE9"/>
  <note>
uni0BE9
</note>
  <outline>
    <contour>
      <point x="-5" y="0" type="line"/>
      <point x="66" y="0" type="line"/>
      <point x="174" y="509" type="line"/>
      <point x="262" y="509" type="line"/>
      <point x="191" y="175" type="line"/>
      <point x="349" y="175" type="line"/>
      <point x="366" y="257" type="line" smooth="yes"/>
      <point x="370" y="274"/>
      <point x="378" y="288"/>
      <point x="396" y="288" type="curve" smooth="yes"/>
      <point x="411" y="288"/>
      <point x="422" y="277"/>
      <point x="422" y="252" type="curve" smooth="yes"/>
      <point x="422" y="157"/>
      <point x="361" y="67"/>
      <point x="276" y="67" type="curve" smooth="yes"/>
      <point x="168" y="67" type="line"/>
      <point x="154" y="0" type="line"/>
      <point x="653" y="0" type="line"/>
      <point x="667" y="67" type="line"/>
      <point x="413" y="67" type="line"/>
      <point x="513" y="95"/>
      <point x="589" y="186"/>
      <point x="589" y="287" type="curve" smooth="yes"/>
      <point x="589" y="358"/>
      <point x="547" y="398"/>
      <point x="489" y="398" type="curve" smooth="yes"/>
      <point x="444" y="398"/>
      <point x="418" y="379"/>
      <point x="391" y="346" type="curve"/>
      <point x="426" y="509" type="line"/>
      <point x="535" y="509" type="line"/>
      <point x="549" y="576" type="line"/>
      <point x="117" y="576" type="line"/>
    </contour>
  </outline>
</glyph>
<glyph name="six-tamil" format="2">
  <advance width="1029"/>
  <unicode hex="0BEC"/>
  <note>
uni0BEC
</note>
  <outline>
    <contour>
      <point x="202" y="-4" type="curve" smooth="yes"/>
      <point x="339" y="-4"/>
      <point x="410" y="60"/>
      <point x="436" y="189" type="curve" smooth="yes"/>
      <point x="453" y="273" type="line"/>
      <point x="485" y="273" type="line" smooth="yes"/>
      <point x="512" y="273"/>
      <point x="525" y="257"/>
      <point x="518" y="223" type="curve" smooth="yes"/>
      <point x="470" y="0" type="line"/>
      <point x="638" y="0" type="line"/>
      <point x="684" y="220" type="line" smooth="yes"/>
      <point x="691" y="255"/>
      <point x="710" y="273"/>
      <point x="743" y="273" type="curve" smooth="yes"/>
      <point x="995" y="273" type="line"/>
      <point x="1009" y="340" type="line"/>
      <point x="719" y="340" type="line" smooth="yes"/>
      <point x="668" y="340"/>
      <point x="633" y="314"/>
      <point x="611" y="265" type="curve"/>
      <point x="607" y="313"/>
      <point x="572" y="340"/>
      <point x="524" y="340" type="curve" smooth="yes"/>
      <point x="467" y="340" type="line"/>
      <point x="503" y="509" type="line"/>
      <point x="620" y="509" type="line"/>
      <point x="635" y="576" type="line"/>
      <point x="177" y="576" type="line"/>
      <point x="119" y="303" type="line"/>
      <point x="188" y="303" type="line"/>
      <point x="231" y="509" type="line"/>
      <point x="325" y="509" type="line"/>
      <point x="290" y="340" type="line"/>
      <point x="186" y="340" type="line" smooth="yes"/>
      <point x="81" y="340"/>
      <point x="14" y="255"/>
      <point x="14" y="155" type="curve" smooth="yes"/>
      <point x="14" y="74"/>
      <point x="85" y="-4"/>
    </contour>
    <contour>
      <point x="168" y="78" type="curve" smooth="yes"/>
      <point x="120" y="78"/>
      <point x="84" y="111"/>
      <point x="84" y="166" type="curve" smooth="yes"/>
      <point x="84" y="226"/>
      <point x="115" y="273"/>
      <point x="180" y="273" type="curve" smooth="yes"/>
      <point x="275" y="273" type="line"/>
      <point x="256" y="177" type="line" smooth="yes"/>
      <point x="241" y="100"/>
      <point x="217" y="78"/>
    </contour>
    <contour>
      <point x="717" y="0" type="line"/>
      <point x="887" y="0" type="line"/>
      <point x="950" y="297" type="line"/>
      <point x="780" y="297" type="line"/>
    </contour>
  </outline>
</glyph>
<glyph name="eight-tamil" format="2">
  <advance width="1142"/>
  <unicode hex="0BEE"/>
  <note>
uni0BEE
</note>
  <outline>
    <contour>
      <point x="804" y="-221" type="line"/>
      <point x="977" y="-221" type="line"/>
      <point x="1147" y="576" type="line"/>
      <point x="973" y="576" type="line"/>
      <point x="884" y="157" type="line"/>
      <point x="72" y="157" type="line" smooth="yes"/>
      <point x="12" y="157"/>
      <point x="-26" y="109"/>
      <point x="-26" y="50" type="curve" smooth="yes"/>
      <point x="-26" y="-66"/>
      <point x="118" y="-156"/>
      <point x="293" y="-156" type="curve" smooth="yes"/>
      <point x="583" y="-156"/>
      <point x="821" y="23"/>
      <point x="821" y="305" type="curve" smooth="yes"/>
      <point x="821" y="476"/>
      <point x="724" y="581"/>
      <point x="557" y="581" type="curve" smooth="yes"/>
      <point x="386" y="581"/>
      <point x="289" y="418"/>
      <point x="289" y="273" type="curve" smooth="yes"/>
      <point x="289" y="219"/>
      <point x="299" y="165"/>
      <point x="313" y="124" type="curve"/>
      <point x="380" y="124" type="line"/>
      <point x="364" y="171"/>
      <point x="359" y="217"/>
      <point x="359" y="268" type="curve" smooth="yes"/>
      <point x="359" y="382"/>
      <point x="417" y="509"/>
      <point x="531" y="509" type="curve" smooth="yes"/>
      <point x="628" y="509"/>
      <point x="667" y="441"/>
      <point x="667" y="330" type="curve" smooth="yes"/>
      <point x="667" y="93"/>
      <point x="525" y="-86"/>
      <point x="279" y="-86" type="curve" smooth="yes"/>
      <point x="152" y="-86"/>
      <point x="52" y="-16"/>
      <point x="52" y="50" type="curve" smooth="yes"/>
      <point x="52" y="76"/>
      <point x="62" y="88"/>
      <point x="84" y="88" type="curve" smooth="yes"/>
      <point x="869" y="88" type="line"/>
    </contour>
  </outline>
</glyph>
<glyph name="ten-tamil" format="2">
  <advance width="798"/>
  <unicode hex="0BF0"/>
  <note>
uni0BF0
</note>
  <outline>
    <contour>
      <point x="437" y="-5" type="curve" smooth="yes"/>
      <point x="646" y="-5"/>
      <point x="774" y="229"/>
      <point x="774" y="456" type="curve" smooth="yes"/>
      <point x="774" y="681"/>
      <point x="660" y="809"/>
      <point x="434" y="838" type="curve"/>
      <point x="416" y="767" type="line"/>
      <point x="609" y="741"/>
      <point x="703" y="647"/>
      <point x="703" y="451" type="curve" smooth="yes"/>
      <point x="703" y="273"/>
      <point x="606" y="77"/>
      <point x="491" y="77" type="curve" smooth="yes"/>
      <point x="460" y="77"/>
      <point x="453" y="101"/>
      <point x="459" y="128" type="curve" smooth="yes"/>
      <point x="555" y="576" type="line"/>
      <point x="389" y="576" type="line"/>
      <point x="302" y="165" type="line" smooth="yes"/>
      <point x="282" y="69"/>
      <point x="320" y="-5"/>
    </contour>
    <contour>
      <point x="165" y="-10" type="curve" smooth="yes"/>
      <point x="234" y="-10"/>
      <point x="307" y="29"/>
      <point x="328" y="128" type="curve" smooth="yes"/>
      <point x="344" y="204" type="line"/>
      <point x="310" y="204" type="line"/>
      <point x="294" y="128" type="line" smooth="yes"/>
      <point x="286" y="90"/>
      <point x="263" y="77"/>
      <point x="243" y="77" type="curve" smooth="yes"/>
      <point x="210" y="77"/>
      <point x="202" y="107"/>
      <point x="212" y="152" type="curve" smooth="yes"/>
      <point x="302" y="576" type="line"/>
      <point x="128" y="576" type="line"/>
      <point x="42" y="171" type="line" smooth="yes"/>
      <point x="20" y="69"/>
      <point x="65" y="-10"/>
    </contour>
  </outline>
</glyph>
<glyph name="month-tamil" format="2">
  <advance width="977"/>
  <unicode hex="0BF4"/>
  <note>
uni0BF4
</note>
  <anchor x="313" y="0" name="bottom"/>
  <anchor x="772" y="576" name="imatra"/>
  <anchor x="314" y="0" name="nukta"/>
  <anchor x="426" y="576" name="top"/>
  <anchor x="456" y="576" name="vedic"/>
  <outline>
    <contour>
      <point x="654" y="486" type="curve"/>
      <point x="683" y="506" type="line"/>
      <point x="658" y="548"/>
      <point x="640" y="596"/>
      <point x="640" y="651" type="curve" smooth="yes"/>
      <point x="640" y="747"/>
      <point x="693" y="821"/>
      <point x="772" y="821" type="curve" smooth="yes"/>
      <point x="830" y="821"/>
      <point x="854" y="788"/>
      <point x="854" y="737" type="curve" smooth="yes"/>
      <point x="854" y="700"/>
      <point x="836" y="656"/>
      <point x="796" y="656" type="curve" smooth="yes"/>
      <point x="769" y="656"/>
      <point x="762" y="689"/>
      <point x="762" y="725" type="curve" smooth="yes"/>
      <point x="762" y="819"/>
      <point x="822" y="926"/>
      <point x="915" y="926" type="curve" smooth="yes"/>
      <point x="993" y="926"/>
      <point x="1015" y="876"/>
      <point x="1001" y="807" type="curve" smooth="yes"/>
      <point x="956" y="592" type="line"/>
      <point x="1061" y="592" type="line"/>
      <point x="1110" y="822" type="line" smooth="yes"/>
      <point x="1123" y="885"/>
      <point x="1157" y="925"/>
      <point x="1214" y="909" type="curve"/>
      <point x="1235" y="978" type="line"/>
      <point x="1154" y="995"/>
      <point x="1097" y="951"/>
      <point x="1067" y="877" type="curve"/>
      <point x="1063" y="877" type="line"/>
      <point x="1055" y="945"/>
      <point x="1000" y="990"/>
      <point x="925" y="990" type="curve" smooth="yes"/>
      <point x="803" y="990"/>
      <point x="701" y="852"/>
      <point x="701" y="718" type="curve" smooth="yes"/>
      <point x="701" y="641"/>
      <point x="733" y="585"/>
      <point x="800" y="585" type="curve" smooth="yes"/>
      <point x="881" y="585"/>
      <point x="940" y="652"/>
      <point x="940" y="745" type="curve" smooth="yes"/>
      <point x="940" y="828"/>
      <point x="882" y="887"/>
      <point x="791" y="887" type="curve" smooth="yes"/>
      <point x="674" y="887"/>
      <point x="583" y="777"/>
      <point x="583" y="661" type="curve" smooth="yes"/>
      <point x="583" y="591"/>
      <point x="611" y="537"/>
    </contour>
    <component base="ma-tamil"/>
  </outline>
</glyph>
<glyph name="year-tamil" format="2">
  <advance width="1958"/>
  <unicode hex="0BF5"/>
  <note>
uni0BF5
</note>
  <anchor x="671" y="0" name="bottom"/>
  <anchor x="1219" y="576" name="imatra"/>
  <anchor x="673" y="0" name="nukta"/>
  <anchor x="807" y="576" name="top"/>
  <anchor x="810" y="576" name="vedic"/>
  <outline>
    <contour>
      <point x="683" y="-275" type="curve" smooth="yes"/>
      <point x="1043" y="-275"/>
      <point x="1434" y="-139"/>
      <point x="1434" y="200" type="curve" smooth="yes"/>
      <point x="1434" y="294"/>
      <point x="1391" y="354"/>
      <point x="1307" y="354" type="curve" smooth="yes"/>
      <point x="1216" y="354"/>
      <point x="1155" y="281"/>
      <point x="1136" y="179" type="curve" smooth="yes"/>
      <point x="1131" y="152" type="line"/>
      <point x="1151" y="152" type="line"/>
      <point x="1157" y="179" type="line" smooth="yes"/>
      <point x="1167" y="225"/>
      <point x="1186" y="245"/>
      <point x="1221" y="245" type="curve" smooth="yes"/>
      <point x="1257" y="245"/>
      <point x="1277" y="219"/>
      <point x="1277" y="174" type="curve" smooth="yes"/>
      <point x="1277" y="-97"/>
      <point x="972" y="-203"/>
      <point x="685" y="-203" type="curve" smooth="yes"/>
      <point x="328" y="-203"/>
      <point x="106" y="-65"/>
      <point x="106" y="208" type="curve" smooth="yes"/>
      <point x="106" y="584"/>
      <point x="457" y="773"/>
      <point x="934" y="773" type="curve" smooth="yes"/>
      <point x="1297" y="773"/>
      <point x="1609" y="618"/>
      <point x="1531" y="293" type="curve" smooth="yes"/>
      <point x="1503" y="176" type="line" smooth="yes"/>
      <point x="1476" y="65"/>
      <point x="1517" y="-5"/>
      <point x="1634" y="-5" type="curve" smooth="yes"/>
      <point x="1810" y="-5"/>
      <point x="1927" y="162"/>
      <point x="1927" y="374" type="curve" smooth="yes"/>
      <point x="1927" y="453"/>
      <point x="1910" y="516"/>
      <point x="1885" y="578" type="curve"/>
      <point x="1816" y="550" type="line"/>
      <point x="1839" y="494"/>
      <point x="1855" y="435"/>
      <point x="1855" y="369" type="curve" smooth="yes"/>
      <point x="1855" y="203"/>
      <point x="1773" y="83"/>
      <point x="1698" y="83" type="curve" smooth="yes"/>
      <point x="1663" y="83"/>
      <point x="1665" y="120"/>
      <point x="1676" y="165" type="curve" smooth="yes"/>
      <point x="1710" y="306" type="line" smooth="yes"/>
      <point x="1799" y="677"/>
      <point x="1375" y="846"/>
      <point x="945" y="846" type="curve" smooth="yes"/>
      <point x="416" y="846"/>
      <point x="32" y="626"/>
      <point x="32" y="200" type="curve" smooth="yes"/>
      <point x="32" y="-98"/>
      <point x="281" y="-275"/>
    </contour>
    <component base="lla-tamil" xOffset="179"/>
  </outline>
</glyph>
<glyph name="debit-tamil" format="2">
  <advance width="1058"/>
  <unicode hex="0BF6"/>
  <note>
uni0BF6
</note>
  <outline>
    <contour>
      <point x="226" y="-336" type="curve" smooth="yes"/>
      <point x="413" y="-336"/>
      <point x="590" y="-229"/>
      <point x="632" y="-31" type="curve" smooth="yes"/>
      <point x="760" y="576" type="line"/>
      <point x="590" y="576" type="line"/>
      <point x="463" y="-25" type="line" smooth="yes"/>
      <point x="427" y="-193"/>
      <point x="344" y="-270"/>
      <point x="205" y="-270" type="curve" smooth="yes"/>
      <point x="87" y="-270"/>
      <point x="40" y="-196"/>
      <point x="40" y="-148" type="curve" smooth="yes"/>
      <point x="40" y="-129"/>
      <point x="53" y="-120"/>
      <point x="71" y="-120" type="curve" smooth="yes"/>
      <point x="915" y="-120" type="line"/>
      <point x="1063" y="576" type="line"/>
      <point x="890" y="576" type="line"/>
      <point x="756" y="-52" type="line"/>
      <point x="58" y="-52" type="line" smooth="yes"/>
      <point x="0" y="-52"/>
      <point x="-39" y="-84"/>
      <point x="-39" y="-145" type="curve" smooth="yes"/>
      <point x="-39" y="-240"/>
      <point x="55" y="-336"/>
    </contour>
    <contour>
      <point x="0" y="13" type="line"/>
      <point x="558" y="13" type="line"/>
      <point x="573" y="83" type="line"/>
      <point x="188" y="83" type="line"/>
      <point x="293" y="576" type="line"/>
      <point x="119" y="576" type="line"/>
    </contour>
  </outline>
</glyph>
<glyph name="credit-tamil" format="2">
  <advance width="1335"/>
  <unicode hex="0BF7"/>
  <note>
uni0BF7
</note>
  <anchor x="357" y="0" name="bottom"/>
  <anchor x="357" y="0" name="nukta"/>
  <anchor x="481" y="576" name="top"/>
  <anchor x="482" y="576" name="vedic"/>
  <outline>
    <contour>
      <point x="847" y="-5" type="curve" smooth="yes"/>
      <point x="945" y="-5"/>
      <point x="1010" y="84"/>
      <point x="1010" y="182" type="curve" smooth="yes"/>
      <point x="1010" y="298"/>
      <point x="931" y="340"/>
      <point x="831" y="340" type="curve" smooth="yes"/>
      <point x="760" y="340"/>
      <point x="694" y="309"/>
      <point x="640" y="266" type="curve"/>
      <point x="625" y="193" type="line"/>
      <point x="703" y="256"/>
      <point x="750" y="273"/>
      <point x="802" y="273" type="curve" smooth="yes"/>
      <point x="845" y="273"/>
      <point x="871" y="252"/>
      <point x="871" y="181" type="curve" smooth="yes"/>
      <point x="871" y="138"/>
      <point x="858" y="76"/>
      <point x="817" y="76" type="curve" smooth="yes"/>
      <point x="796" y="76"/>
      <point x="790" y="98"/>
      <point x="790" y="140" type="curve" smooth="yes"/>
      <point x="790" y="243"/>
      <point x="866" y="365"/>
      <point x="982" y="365" type="curve" smooth="yes"/>
      <point x="1055" y="365"/>
      <point x="1112" y="325"/>
      <point x="1112" y="234" type="curve" smooth="yes"/>
      <point x="1112" y="157"/>
      <point x="1076" y="103"/>
      <point x="1026" y="43" type="curve"/>
      <point x="1036" y="0" type="line"/>
      <point x="1262" y="0" type="line"/>
      <point x="1276" y="67" type="line"/>
      <point x="1079" y="67" type="line"/>
      <point x="1086" y="38" type="line"/>
      <point x="1178" y="87"/>
      <point x="1241" y="169"/>
      <point x="1241" y="265" type="curve" smooth="yes"/>
      <point x="1241" y="391"/>
      <point x="1129" y="439"/>
      <point x="1023" y="439" type="curve" smooth="yes"/>
      <point x="858" y="439"/>
      <point x="729" y="286"/>
      <point x="729" y="136" type="curve" smooth="yes"/>
      <point x="729" y="50"/>
      <point x="766" y="-5"/>
    </contour>
    <component base="e-tamil"/>
  </outline>
</glyph>
<glyph name="asabove-tamil" format="2">
  <advance width="1626"/>
  <unicode hex="0BF8"/>
  <note>
uni0BF8
</note>
  <outline>
    <contour>
      <point x="583" y="-4" type="curve" smooth="yes"/>
      <point x="719" y="-4"/>
      <point x="805" y="141"/>
      <point x="805" y="301" type="curve" smooth="yes"/>
      <point x="805" y="505"/>
      <point x="682" y="660"/>
      <point x="461" y="660" type="curve" smooth="yes"/>
      <point x="226" y="660"/>
      <point x="30" y="449"/>
      <point x="30" y="214" type="curve" smooth="yes"/>
      <point x="30" y="92"/>
      <point x="91" y="-5"/>
      <point x="204" y="-5" type="curve" smooth="yes"/>
      <point x="316" y="-5"/>
      <point x="399" y="78"/>
      <point x="399" y="202" type="curve" smooth="yes"/>
      <point x="399" y="286"/>
      <point x="350" y="342"/>
      <point x="269" y="342" type="curve" smooth="yes"/>
      <point x="183" y="342"/>
      <point x="117" y="276"/>
      <point x="71" y="158" type="curve"/>
      <point x="100" y="125" type="line"/>
      <point x="134" y="210"/>
      <point x="162" y="235"/>
      <point x="195" y="235" type="curve" smooth="yes"/>
      <point x="223" y="235"/>
      <point x="240" y="208"/>
      <point x="240" y="174" type="curve" smooth="yes"/>
      <point x="240" y="116"/>
      <point x="210" y="77"/>
      <point x="167" y="77" type="curve" smooth="yes"/>
      <point x="125" y="77"/>
      <point x="102" y="136"/>
      <point x="102" y="218" type="curve" smooth="yes"/>
      <point x="102" y="413"/>
      <point x="261" y="587"/>
      <point x="433" y="587" type="curve" smooth="yes"/>
      <point x="599" y="587"/>
      <point x="654" y="487"/>
      <point x="654" y="317" type="curve" smooth="yes"/>
      <point x="654" y="203"/>
      <point x="625" y="79"/>
      <point x="557" y="79" type="curve" smooth="yes"/>
      <point x="534" y="79"/>
      <point x="518" y="103"/>
      <point x="518" y="153" type="curve" smooth="yes"/>
      <point x="518" y="321"/>
      <point x="636" y="510"/>
      <point x="775" y="510" type="curve" smooth="yes"/>
      <point x="871" y="510"/>
      <point x="920" y="454"/>
      <point x="920" y="331" type="curve" smooth="yes"/>
      <point x="920" y="231"/>
      <point x="883" y="130"/>
      <point x="826" y="48" type="curve"/>
      <point x="842" y="0" type="line"/>
      <point x="1549" y="0" type="line"/>
      <point x="1564" y="67" type="line"/>
      <point x="941" y="67" type="line"/>
      <point x="1021" y="135"/>
      <point x="1074" y="237"/>
      <point x="1074" y="352" type="curve" smooth="yes"/>
      <point x="1074" y="499"/>
      <point x="960" y="582"/>
      <point x="809" y="582" type="curve" smooth="yes"/>
      <point x="611" y="582"/>
      <point x="449" y="373"/>
      <point x="449" y="148" type="curve" smooth="yes"/>
      <point x="449" y="60"/>
      <point x="495" y="-4"/>
    </contour>
    <contour>
      <point x="1207" y="-275" type="line"/>
      <point x="1378" y="-275" type="line"/>
      <point x="1521" y="393" type="line" smooth="yes"/>
      <point x="1546" y="509"/>
      <point x="1492" y="582"/>
      <point x="1389" y="582" type="curve" smooth="yes"/>
      <point x="1229" y="582"/>
      <point x="1129" y="382"/>
      <point x="1129" y="210" type="curve" smooth="yes"/>
      <point x="1129" y="92"/>
      <point x="1178" y="15"/>
      <point x="1274" y="15" type="curve"/>
      <point x="1285" y="67" type="line"/>
      <point x="1226" y="67"/>
      <point x="1198" y="126"/>
      <point x="1198" y="206" type="curve" smooth="yes"/>
      <point x="1198" y="317"/>
      <point x="1255" y="473"/>
      <point x="1323" y="473" type="curve" smooth="yes"/>
      <point x="1353" y="473"/>
      <point x="1361" y="446"/>
      <point x="1353" y="410" type="curve" smooth="yes"/>
    </contour>
  </outline>
</glyph>
<glyph name="number-tamil" format="2">
  <advance width="867"/>
  <unicode hex="0BFA"/>
  <note>
uni0BFA
</note>
  <anchor x="277" y="0" name="bottom"/>
  <anchor x="511" y="576" name="imatra"/>
  <anchor x="274" y="-221" name="nukta"/>
  <anchor x="399" y="576" name="top"/>
  <anchor x="423" y="576" name="vedic"/>
  <outline>
    <contour>
      <point x="722" y="509" type="line"/>
      <point x="917" y="509" type="line"/>
      <point x="931" y="576" type="line"/>
      <point x="763" y="576" type="line"/>
      <point x="760" y="544" type="line"/>
      <point x="878" y="617"/>
      <point x="962" y="718"/>
      <point x="962" y="842" type="curve" smooth="yes"/>
      <point x="962" y="952"/>
      <point x="880" y="1007"/>
      <point x="782" y="1007" type="curve" smooth="yes"/>
      <point x="655" y="1007"/>
      <point x="538" y="874"/>
      <point x="538" y="740" type="curve" smooth="yes"/>
      <point x="538" y="675"/>
      <point x="573" y="620"/>
      <point x="641" y="620" type="curve" smooth="yes"/>
      <point x="719" y="620"/>
      <point x="782" y="683"/>
      <point x="782" y="773" type="curve" smooth="yes"/>
      <point x="782" y="860"/>
      <point x="716" y="913"/>
      <point x="627" y="913" type="curve" smooth="yes"/>
      <point x="509" y="913"/>
      <point x="413" y="802"/>
      <point x="413" y="683" type="curve" smooth="yes"/>
      <point x="413" y="606"/>
      <point x="454" y="534"/>
      <point x="530" y="532" type="curve"/>
      <point x="554" y="576" type="line"/>
      <point x="494" y="576"/>
      <point x="472" y="629"/>
      <point x="472" y="679" type="curve" smooth="yes"/>
      <point x="472" y="767"/>
      <point x="523" y="847"/>
      <point x="615" y="847" type="curve" smooth="yes"/>
      <point x="672" y="847"/>
      <point x="699" y="815"/>
      <point x="699" y="771" type="curve" smooth="yes"/>
      <point x="699" y="716"/>
      <point x="668" y="689"/>
      <point x="638" y="689" type="curve" smooth="yes"/>
      <point x="609" y="689"/>
      <point x="595" y="714"/>
      <point x="595" y="750" type="curve" smooth="yes"/>
      <point x="595" y="842"/>
      <point x="667" y="942"/>
      <point x="761" y="942" type="curve" smooth="yes"/>
      <point x="828" y="942"/>
      <point x="872" y="903"/>
      <point x="872" y="821" type="curve" smooth="yes"/>
      <point x="872" y="716"/>
      <point x="808" y="627"/>
      <point x="708" y="561" type="curve"/>
    </contour>
    <component base="na-tamil"/>
  </outline>
</glyph>
<glyph name="doubleSvarita-vedic" format="2">
  <unicode hex="1CDA"/>
  <note>
uni1CDA
</note>
  <anchor x="64" y="576" name="_vedic"/>
  <outline>
    <contour>
      <point x="54" y="956" type="line"/>
      <point x="120" y="956" type="line"/>
      <point x="164" y="1163" type="line"/>
      <point x="98" y="1163" type="line"/>
    </contour>
    <contour>
      <point x="169" y="956" type="line"/>
      <point x="235" y="956" type="line"/>
      <point x="279" y="1163" type="line"/>
      <point x="213" y="1163" type="line"/>
    </contour>
  </outline>
</glyph>
<glyph name="emdash" format="2">
  <advance width="1000"/>
  <unicode hex="2014"/>
  <outline>
    <contour>
      <point x="-14" y="231" type="line"/>
      <point x="998" y="231" type="line"/>
      <point x="1013" y="306" type="line"/>
      <point x="2" y="306" type="line"/>
    </contour>
  </outline>
</glyph>
<glyph name="quoteleft" format="2">
  <advance width="251"/>
  <unicode hex="2018"/>
  <outline>
    <contour>
      <point x="172" y="401" type="curve" smooth="yes"/>
      <point x="210" y="401"/>
      <point x="245" y="430"/>
      <point x="245" y="478" type="curve" smooth="yes"/>
      <point x="245" y="532"/>
      <point x="210" y="533"/>
      <point x="210" y="573" type="curve" smooth="yes"/>
      <point x="210" y="613"/>
      <point x="240" y="641"/>
      <point x="299" y="659" type="curve"/>
      <point x="315" y="716" type="line"/>
      <point x="174" y="686"/>
      <point x="97" y="597"/>
      <point x="97" y="490" type="curve" smooth="yes"/>
      <point x="97" y="433"/>
      <point x="129" y="401"/>
    </contour>
  </outline>
</glyph>
<glyph name="quoteright" format="2">
  <advance width="251"/>
  <unicode hex="2019"/>
  <outline>
    <contour>
      <point x="90" y="401" type="line"/>
      <point x="231" y="431"/>
      <point x="308" y="519"/>
      <point x="308" y="627" type="curve" smooth="yes"/>
      <point x="308" y="684"/>
      <point x="276" y="716"/>
      <point x="234" y="716" type="curve" smooth="yes"/>
      <point x="196" y="716"/>
      <point x="160" y="686"/>
      <point x="160" y="638" type="curve" smooth="yes"/>
      <point x="160" y="585"/>
      <point x="195" y="583"/>
      <point x="195" y="543" type="curve" smooth="yes"/>
      <point x="195" y="503"/>
      <point x="165" y="474"/>
      <point x="107" y="458" type="curve"/>
    </contour>
  </outline>
</glyph>
<glyph name="quotedblright" format="2">
  <advance width="428"/>
  <unicode hex="201D"/>
  <outline>
    <contour>
      <point x="266" y="401" type="line"/>
      <point x="406" y="431"/>
      <point x="484" y="519"/>
      <point x="484" y="627" type="curve" smooth="yes"/>
      <point x="484" y="684"/>
      <point x="452" y="716"/>
      <point x="409" y="716" type="curve" smooth="yes"/>
      <point x="372" y="716"/>
      <point x="336" y="686"/>
      <point x="336" y="638" type="curve" smooth="yes"/>
      <point x="336" y="585"/>
      <point x="371" y="583"/>
      <point x="371" y="543" type="curve" smooth="yes"/>
      <point x="371" y="503"/>
      <point x="341" y="474"/>
      <point x="283" y="458" type="curve"/>
    </contour>
    <contour>
      <point x="90" y="401" type="line"/>
      <point x="231" y="431"/>
      <point x="308" y="519"/>
      <point x="308" y="627" type="curve" smooth="yes"/>
      <point x="308" y="684"/>
      <point x="276" y="716"/>
      <point x="234" y="716" type="curve" smooth="yes"/>
      <point x="196" y="716"/>
      <point x="160" y="686"/>
      <point x="160" y="638" type="curve" smooth="yes"/>
      <point x="160" y="585"/>
      <point x="195" y="583"/>
      <point x="195" y="543" type="curve" smooth="yes"/>
      <point x="195" y="503"/>
      <point x="165" y="474"/>
      <point x="107" y="458" type="curve"/>
    </contour>
  </outline>
</glyph>
<glyph name="ellipsis" format="2">
  <advance width="789"/>
  <unicode hex="2026"/>
  <outline>
    <contour>
      <point x="636" y="-8" type="curve" smooth="yes"/>
      <point x="672" y="-8"/>
      <point x="714" y="15"/>
      <point x="714" y="87" type="curve" smooth="yes"/>
      <point x="714" y="132"/>
      <point x="684" y="157"/>
      <point x="646" y="157" type="curve" smooth="yes"/>
      <point x="599" y="157"/>
      <point x="567" y="121"/>
      <point x="567" y="63" type="curve" smooth="yes"/>
      <point x="567" y="17"/>
      <point x="594" y="-8"/>
    </contour>
    <contour>
      <point x="113" y="-10" type="curve" smooth="yes"/>
      <point x="149" y="-10"/>
      <point x="190" y="13"/>
      <point x="190" y="85" type="curve" smooth="yes"/>
      <point x="190" y="131"/>
      <point x="161" y="156"/>
      <point x="123" y="156" type="curve" smooth="yes"/>
      <point x="75" y="156"/>
      <point x="44" y="119"/>
      <point x="44" y="61" type="curve" smooth="yes"/>
      <point x="44" y="15"/>
      <point x="71" y="-10"/>
    </contour>
    <contour>
      <point x="377" y="-10" type="curve" smooth="yes"/>
      <point x="413" y="-10"/>
      <point x="454" y="13"/>
      <point x="454" y="85" type="curve" smooth="yes"/>
      <point x="454" y="131"/>
      <point x="425" y="156"/>
      <point x="387" y="156" type="curve" smooth="yes"/>
      <point x="340" y="156"/>
      <point x="308" y="119"/>
      <point x="308" y="61" type="curve" smooth="yes"/>
      <point x="308" y="15"/>
      <point x="335" y="-10"/>
    </contour>
  </outline>
</glyph>
<glyph name="foursuperior" format="2">
  <advance width="326"/>
  <unicode hex="2074"/>
  <outline>
    <contour>
      <point x="174" y="387" type="line"/>
      <point x="369" y="387" type="line"/>
      <point x="380" y="434" type="line"/>
      <point x="364" y="434" type="line" smooth="yes"/>
      <point x="349" y="434"/>
      <point x="336" y="437"/>
      <point x="336" y="458" type="curve" smooth="yes"/>
      <point x="336" y="463"/>
      <point x="339" y="478"/>
      <point x="341" y="488" type="curve" smooth="yes"/>
      <point x="344" y="501" type="line"/>
      <point x="391" y="501" type="line"/>
      <point x="405" y="557" type="line"/>
      <point x="354" y="557" type="line"/>
      <point x="410" y="819" type="line"/>
      <point x="331" y="819" type="line"/>
      <point x="100" y="543" type="line"/>
      <point x="89" y="501" type="line"/>
      <point x="255" y="501" type="line"/>
      <point x="249" y="472" type="line" smooth="yes"/>
      <point x="242" y="438"/>
      <point x="227" y="434"/>
      <point x="208" y="434" type="curve" smooth="yes"/>
      <point x="186" y="434" type="line"/>
    </contour>
    <contour>
      <point x="170" y="557" type="line"/>
      <point x="266" y="678" type="line" smooth="yes"/>
      <point x="277" y="691"/>
      <point x="292" y="710"/>
      <point x="306" y="730" type="curve"/>
      <point x="298" y="706"/>
      <point x="288" y="673"/>
      <point x="283" y="646" type="curve" smooth="yes"/>
      <point x="267" y="557" type="line"/>
    </contour>
  </outline>
</glyph>
<glyph name="minus" format="2">
  <advance width="425"/>
  <unicode hex="2212"/>
  <outline>
    <contour>
      <point x="70" y="321" type="line"/>
      <point x="427" y="321" type="line"/>
      <point x="427" y="394" type="line"/>
      <point x="70" y="394" type="line"/>
    </contour>
  </outline>
</glyph>
<glyph name="dottedCircle" format="2">
  <advance width="594"/>
  <unicode hex="25CC"/>
  <anchor x="299" y="300" name="bottom"/>
  <anchor x="350" y="554" name="imatra"/>
  <anchor x="233" y="0" name="nukta"/>
  <anchor x="340" y="554" name="top"/>
  <anchor x="289" y="304" name="vedic"/>
  <outline>
    <contour>
      <point x="384" y="469" type="curve" smooth="yes"/>
      <point x="403" y="469"/>
      <point x="413" y="478"/>
      <point x="413" y="496" type="curve" smooth="yes"/>
      <point x="413" y="515"/>
      <point x="403" y="524"/>
      <point x="384" y="524" type="curve" smooth="yes"/>
      <point x="363" y="524"/>
      <point x="353" y="515"/>
      <point x="353" y="496" type="curve" smooth="yes"/>
      <point x="353" y="478"/>
      <point x="363" y="469"/>
    </contour>
    <contour>
      <point x="141" y="105" type="curve" smooth="yes"/>
      <point x="161" y="105"/>
      <point x="171" y="115"/>
      <point x="171" y="133" type="curve" smooth="yes"/>
      <point x="171" y="152"/>
      <point x="161" y="162"/>
      <point x="141" y="162" type="curve" smooth="yes"/>
      <point x="122" y="162"/>
      <point x="111" y="152"/>
      <point x="111" y="133" type="curve" smooth="yes"/>
      <point x="111" y="115"/>
      <point x="122" y="105"/>
    </contour>
    <contour>
      <point x="93" y="179" type="curve" smooth="yes"/>
      <point x="112" y="179"/>
      <point x="123" y="188"/>
      <point x="123" y="206" type="curve" smooth="yes"/>
      <point x="123" y="225"/>
      <point x="112" y="234"/>
      <point x="93" y="234" type="curve" smooth="yes"/>
      <point x="73" y="234"/>
      <point x="63" y="225"/>
      <point x="63" y="206" type="curve" smooth="yes"/>
      <point x="63" y="188"/>
      <point x="73" y="179"/>
    </contour>
    <contour>
      <point x="213" y="59" type="curve" smooth="yes"/>
      <point x="233" y="59"/>
      <point x="243" y="68"/>
      <point x="243" y="87" type="curve" smooth="yes"/>
      <point x="243" y="105"/>
      <point x="233" y="113"/>
      <point x="213" y="113" type="curve" smooth="yes"/>
      <point x="194" y="113"/>
      <point x="184" y="104"/>
      <point x="184" y="85" type="curve" smooth="yes"/>
      <point x="184" y="67"/>
      <point x="194" y="59"/>
    </contour>
    <contour>
      <point x="76" y="264" type="curve" smooth="yes"/>
      <point x="95" y="264"/>
      <point x="105" y="273"/>
      <point x="105" y="291" type="curve" smooth="yes"/>
      <point x="105" y="309"/>
      <point x="95" y="318"/>
      <point x="76" y="318" type="curve" smooth="yes"/>
      <point x="56" y="318"/>
      <point x="45" y="309"/>
      <point x="45" y="291" type="curve" smooth="yes"/>
      <point x="45" y="273"/>
      <point x="56" y="264"/>
    </contour>
    <contour>
      <point x="298" y="41" type="curve" smooth="yes"/>
      <point x="317" y="41"/>
      <point x="328" y="50"/>
      <point x="328" y="69" type="curve" smooth="yes"/>
      <point x="328" y="87"/>
      <point x="317" y="97"/>
      <point x="298" y="97" type="curve" smooth="yes"/>
      <point x="279" y="97"/>
      <point x="269" y="87"/>
      <point x="269" y="69" type="curve" smooth="yes"/>
      <point x="269" y="50"/>
      <point x="279" y="41"/>
    </contour>
    <contour>
      <point x="94" y="348" type="curve" smooth="yes"/>
      <point x="113" y="348"/>
      <point x="123" y="357"/>
      <point x="123" y="376" type="curve" smooth="yes"/>
      <point x="123" y="394"/>
      <point x="112" y="403"/>
      <point x="93" y="403" type="curve" smooth="yes"/>
      <point x="73" y="403"/>
      <point x="63" y="394"/>
      <point x="63" y="376" type="curve" smooth="yes"/>
      <point x="63" y="357"/>
      <point x="73" y="348"/>
    </contour>
    <contour>
      <point x="384" y="59" type="curve" smooth="yes"/>
      <point x="403" y="59"/>
      <point x="413" y="67"/>
      <point x="413" y="85" type="curve" smooth="yes"/>
      <point x="413" y="104"/>
      <point x="403" y="113"/>
      <point x="384" y="113" type="curve" smooth="yes"/>
      <point x="363" y="113"/>
      <point x="353" y="104"/>
      <point x="353" y="85" type="curve" smooth="yes"/>
      <point x="353" y="67"/>
      <point x="363" y="59"/>
    </contour>
    <contour>
      <point x="456" y="105" type="curve" smooth="yes"/>
      <point x="475" y="105"/>
      <point x="484" y="115"/>
      <point x="484" y="133" type="curve" smooth="yes"/>
      <point x="484" y="152"/>
      <point x="475" y="162"/>
      <point x="456" y="162" type="curve" smooth="yes"/>
      <point x="436" y="162"/>
      <point x="426" y="152"/>
      <point x="426" y="133" type="curve" smooth="yes"/>
      <point x="426" y="115"/>
      <point x="436" y="105"/>
    </contour>
    <contour>
      <point x="141" y="420" type="curve" smooth="yes"/>
      <point x="161" y="420"/>
      <point x="171" y="430"/>
      <point x="171" y="448" type="curve" smooth="yes"/>
      <point x="171" y="467"/>
      <point x="161" y="477"/>
      <point x="141" y="477" type="curve" smooth="yes"/>
      <point x="122" y="477"/>
      <point x="111" y="467"/>
      <point x="111" y="447" type="curve" smooth="yes"/>
      <point x="111" y="429"/>
      <point x="122" y="420"/>
    </contour>
    <contour>
      <point x="213" y="469" type="curve" smooth="yes"/>
      <point x="233" y="469"/>
      <point x="243" y="478"/>
      <point x="243" y="496" type="curve" smooth="yes"/>
      <point x="243" y="515"/>
      <point x="233" y="524"/>
      <point x="213" y="524" type="curve" smooth="yes"/>
      <point x="194" y="524"/>
      <point x="184" y="515"/>
      <point x="184" y="496" type="curve" smooth="yes"/>
      <point x="184" y="478"/>
      <point x="194" y="469"/>
    </contour>
    <contour>
      <point x="503" y="179" type="curve" smooth="yes"/>
      <point x="523" y="179"/>
      <point x="533" y="188"/>
      <point x="533" y="206" type="curve" smooth="yes"/>
      <point x="533" y="225"/>
      <point x="523" y="234"/>
      <point x="503" y="234" type="curve" smooth="yes"/>
      <point x="484" y="234"/>
      <point x="474" y="225"/>
      <point x="474" y="206" type="curve" smooth="yes"/>
      <point x="474" y="188"/>
      <point x="484" y="179"/>
    </contour>
    <contour>
      <point x="298" y="485" type="curve" smooth="yes"/>
      <point x="317" y="485"/>
      <point x="328" y="495"/>
      <point x="328" y="514" type="curve" smooth="yes"/>
      <point x="328" y="532"/>
      <point x="317" y="542"/>
      <point x="298" y="542" type="curve" smooth="yes"/>
      <point x="279" y="542"/>
      <point x="269" y="532"/>
      <point x="269" y="514" type="curve" smooth="yes"/>
      <point x="269" y="495"/>
      <point x="279" y="485"/>
    </contour>
    <contour>
      <point x="522" y="264" type="curve" smooth="yes"/>
      <point x="541" y="264"/>
      <point x="550" y="273"/>
      <point x="550" y="291" type="curve" smooth="yes"/>
      <point x="550" y="309"/>
      <point x="541" y="318"/>
      <point x="522" y="318" type="curve" smooth="yes"/>
      <point x="502" y="318"/>
      <point x="492" y="309"/>
      <point x="492" y="291" type="curve" smooth="yes"/>
      <point x="492" y="273"/>
      <point x="502" y="264"/>
    </contour>
    <contour>
      <point x="503" y="348" type="curve" smooth="yes"/>
      <point x="523" y="348"/>
      <point x="533" y="357"/>
      <point x="533" y="376" type="curve" smooth="yes"/>
      <point x="533" y="394"/>
      <point x="523" y="403"/>
      <point x="504" y="403" type="curve" smooth="yes"/>
      <point x="484" y="403"/>
      <point x="474" y="394"/>
      <point x="474" y="376" type="curve" smooth="yes"/>
      <point x="474" y="357"/>
      <point x="484" y="348"/>
    </contour>
    <contour>
      <point x="456" y="420" type="curve" smooth="yes"/>
      <point x="475" y="420"/>
      <point x="484" y="430"/>
      <point x="484" y="448" type="curve" smooth="yes"/>
      <point x="484" y="467"/>
      <point x="475" y="477"/>
      <point x="456" y="477" type="curve" smooth="yes"/>
      <point x="436" y="477"/>
      <point x="426" y="467"/>
      <point x="426" y="448" type="curve" smooth="yes"/>
      <point x="426" y="430"/>
      <point x="436" y="420"/>
    </contour>
  </outline>
</glyph>
<glyph name="candrabinduhalant-deva" format="2">
  <advance width="422"/>
  <unicode hex="A8F3"/>
  <note>
uniA8F3
</note>
  <outline>
    <contour>
      <point x="220" y="303" type="curve" smooth="yes"/>
      <point x="317" y="303"/>
      <point x="401" y="367"/>
      <point x="447" y="526" type="curve"/>
      <point x="354" y="544" type="line"/>
      <point x="331" y="457"/>
      <point x="288" y="403"/>
      <point x="223" y="403" type="curve" smooth="yes"/>
      <point x="171" y="403"/>
      <point x="141" y="439"/>
      <point x="153" y="542" type="curve"/>
      <point x="82" y="532" type="line"/>
      <point x="67" y="394"/>
      <point x="107" y="303"/>
    </contour>
    <contour>
      <point x="239" y="479" type="curve" smooth="yes"/>
      <point x="280" y="479"/>
      <point x="304" y="502"/>
      <point x="304" y="543" type="curve" smooth="yes"/>
      <point x="304" y="571"/>
      <point x="283" y="586"/>
      <point x="256" y="586" type="curve" smooth="yes"/>
      <point x="213" y="586"/>
      <point x="192" y="562"/>
      <point x="192" y="521" type="curve" smooth="yes"/>
      <point x="192" y="494"/>
      <point x="214" y="479"/>
    </contour>
    <contour>
      <point x="272" y="1" type="curve"/>
      <point x="339" y="27" type="line"/>
      <point x="286" y="192"/>
      <point x="259" y="250"/>
      <point x="160" y="250" type="curve" smooth="yes"/>
      <point x="134" y="250"/>
      <point x="112" y="242"/>
      <point x="96" y="236" type="curve"/>
      <point x="109" y="122" type="line"/>
      <point x="130" y="131"/>
      <point x="146" y="136"/>
      <point x="168" y="136" type="curve" smooth="yes"/>
      <point x="223" y="136"/>
      <point x="237" y="103"/>
    </contour>
  </outline>
</glyph>
<glyph name="u11301" format="2">
  <unicode hex="11301"/>
  <anchor x="64" y="576" name="_vedic"/>
  <outline>
    <contour>
      <point x="164" y="953" type="curve" smooth="yes"/>
      <point x="280" y="953"/>
      <point x="364" y="1011"/>
      <point x="364" y="1107" type="curve" smooth="yes"/>
      <point x="364" y="1136"/>
      <point x="354" y="1161"/>
      <point x="320" y="1161" type="curve" smooth="yes"/>
      <point x="314" y="1161"/>
      <point x="297" y="1159"/>
      <point x="291" y="1156" type="curve"/>
      <point x="293" y="1150"/>
      <point x="294" y="1139"/>
      <point x="294" y="1123" type="curve" smooth="yes"/>
      <point x="294" y="1069"/>
      <point x="257" y="1026"/>
      <point x="184" y="1026" type="curve" smooth="yes"/>
      <point x="128" y="1026"/>
      <point x="96" y="1041"/>
      <point x="96" y="1083" type="curve" smooth="yes"/>
      <point x="96" y="1111"/>
      <point x="105" y="1134"/>
      <point x="119" y="1157" type="curve"/>
      <point x="112" y="1160"/>
      <point x="99" y="1163"/>
      <point x="84" y="1163" type="curve" smooth="yes"/>
      <point x="22" y="1163"/>
      <point x="-20" y="1118"/>
      <point x="-20" y="1065" type="curve" smooth="yes"/>
      <point x="-20" y="997"/>
      <point x="30" y="953"/>
    </contour>
    <contour>
      <point x="194" y="1054" type="curve" smooth="yes"/>
      <point x="238" y="1054"/>
      <point x="255" y="1076"/>
      <point x="255" y="1107" type="curve" smooth="yes"/>
      <point x="255" y="1139"/>
      <point x="239" y="1163"/>
      <point x="194" y="1163" type="curve" smooth="yes"/>
      <point x="151" y="1163"/>
      <point x="134" y="1139"/>
      <point x="134" y="1110" type="curve" smooth="yes"/>
      <point x="134" y="1076"/>
      <point x="153" y="1054"/>
    </contour>
  </outline>
</glyph>
<glyph name="visarga-grantha" format="2">
  <advance width="276"/>
  <unicode hex="11303"/>
  <outline>
    <contour>
      <point x="103" y="-4" type="curve" smooth="yes"/>
      <point x="177" y="-4"/>
      <point x="237" y="44"/>
      <point x="237" y="124" type="curve" smooth="yes"/>
      <point x="237" y="204"/>
      <point x="177" y="252"/>
      <point x="103" y="252" type="curve" smooth="yes"/>
      <point x="30" y="252"/>
      <point x="-30" y="204"/>
      <point x="-30" y="124" type="curve" smooth="yes"/>
      <point x="-30" y="44"/>
      <point x="30" y="-4"/>
    </contour>
    <contour>
      <point x="103" y="77" type="curve" smooth="yes"/>
      <point x="74" y="77"/>
      <point x="57" y="96"/>
      <point x="57" y="124" type="curve" smooth="yes"/>
      <point x="57" y="151"/>
      <point x="74" y="171"/>
      <point x="103" y="171" type="curve" smooth="yes"/>
      <point x="133" y="171"/>
      <point x="149" y="151"/>
      <point x="149" y="124" type="curve" smooth="yes"/>
      <point x="149" y="96"/>
      <point x="133" y="77"/>
    </contour>
    <contour>
      <point x="174" y="333" type="curve" smooth="yes"/>
      <point x="248" y="333"/>
      <point x="308" y="381"/>
      <point x="308" y="461" type="curve" smooth="yes"/>
      <point x="308" y="541"/>
      <point x="248" y="589"/>
      <point x="174" y="589" type="curve" smooth="yes"/>
      <point x="101" y="589"/>
      <point x="41" y="541"/>
      <point x="41" y="461" type="curve" smooth="yes"/>
      <point x="41" y="381"/>
      <point x="101" y="333"/>
    </contour>
    <contour>
      <point x="174" y="413" type="curve" smooth="yes"/>
      <point x="145" y="413"/>
      <point x="128" y="433"/>
      <point x="128" y="460" type="curve" smooth="yes"/>
      <point x="128" y="488"/>
      <point x="145" y="508"/>
      <point x="174" y="508" type="curve" smooth="yes"/>
      <point x="204" y="508"/>
      <point x="220" y="488"/>
      <point x="220" y="460" type="curve" smooth="yes"/>
      <point x="220" y="433"/>
      <point x="204" y="413"/>
    </contour>
  </outline>
</glyph>
<glyph name="u1133B" format="2">
  <unicode hex="1133B"/>
  <anchor x="-59" y="0" name="_nukta"/>
  <outline>
    <contour>
      <point x="-86" y="-220" type="curve" smooth="yes"/>
      <point x="-37" y="-220"/>
      <point x="4" y="-180"/>
      <point x="4" y="-133" type="curve" smooth="yes"/>
      <point x="4" y="-85"/>
      <point x="-37" y="-45"/>
      <point x="-85" y="-45" type="curve" smooth="yes"/>
      <point x="-135" y="-45"/>
      <point x="-175" y="-85"/>
      <point x="-175" y="-133" type="curve" smooth="yes"/>
      <point x="-175" y="-180"/>
      <point x="-135" y="-220"/>
    </contour>
  </outline>
</glyph>
<glyph name="anusvara-tamil.alt" format="2">
  <note>
uni0B82
</note>
  <anchor x="37" y="446" name="_top"/>
  <outline>
    <contour>
      <point x="102" y="624" type="curve" smooth="yes"/>
      <point x="181" y="624"/>
      <point x="245" y="686"/>
      <point x="245" y="768" type="curve" smooth="yes"/>
      <point x="245" y="849"/>
      <point x="181" y="910"/>
      <point x="102" y="910" type="curve" smooth="yes"/>
      <point x="23" y="910"/>
      <point x="-41" y="849"/>
      <point x="-41" y="768" type="curve" smooth="yes"/>
      <point x="-41" y="686"/>
      <point x="23" y="624"/>
    </contour>
    <contour>
      <point x="102" y="709" type="curve" smooth="yes"/>
      <point x="72" y="709"/>
      <point x="45" y="735"/>
      <point x="45" y="767" type="curve" smooth="yes"/>
      <point x="45" y="799"/>
      <point x="72" y="825"/>
      <point x="102" y="825" type="curve" smooth="yes"/>
      <point x="132" y="825"/>
      <point x="159" y="799"/>
      <point x="159" y="767" type="curve" smooth="yes"/>
      <point x="159" y="735"/>
      <point x="132" y="709"/>
    </contour>
  </outline>
</glyph>
<glyph name="cii-tamil" format="2">
  <advance width="610"/>
  <note>
uni0B9A
</note>
  <anchor x="236" y="0" name="bottom"/>
  <anchor x="231" y="0" name="nukta"/>
  <anchor x="586" y="929" name="top"/>
  <anchor x="414" y="576" name="vedic"/>
  <outline>
    <contour>
      <point x="202" y="-4" type="curve" smooth="yes"/>
      <point x="339" y="-4"/>
      <point x="410" y="60"/>
      <point x="436" y="189" type="curve" smooth="yes"/>
      <point x="453" y="273" type="line"/>
      <point x="571" y="273" type="line"/>
      <point x="586" y="340" type="line"/>
      <point x="467" y="340" type="line"/>
      <point x="503" y="509" type="line"/>
      <point x="620" y="509" type="line"/>
      <point x="635" y="576" type="line"/>
      <point x="177" y="576" type="line"/>
      <point x="119" y="303" type="line"/>
      <point x="188" y="303" type="line"/>
      <point x="231" y="509" type="line"/>
      <point x="325" y="509" type="line"/>
      <point x="290" y="340" type="line"/>
      <point x="186" y="340" type="line" smooth="yes"/>
      <point x="81" y="340"/>
      <point x="14" y="255"/>
      <point x="14" y="155" type="curve" smooth="yes"/>
      <point x="14" y="74"/>
      <point x="85" y="-4"/>
    </contour>
    <contour>
      <point x="168" y="78" type="curve" smooth="yes"/>
      <point x="120" y="78"/>
      <point x="84" y="111"/>
      <point x="84" y="166" type="curve" smooth="yes"/>
      <point x="84" y="226"/>
      <point x="115" y="273"/>
      <point x="180" y="273" type="curve" smooth="yes"/>
      <point x="275" y="273" type="line"/>
      <point x="256" y="177" type="line" smooth="yes"/>
      <point x="241" y="100"/>
      <point x="217" y="78"/>
    </contour>
    <component base="iiMatra-tamil" xOffset="482"/>
  </outline>
</glyph>
<glyph name="cuu-tamil" format="2">
  <advance width="1085"/>
  <note>
g107
</note>
  <anchor x="519" y="0" name="bottom"/>
  <anchor x="483" y="-275" name="nukta"/>
  <anchor x="650" y="576" name="top"/>
  <anchor x="680" y="576" name="vedic"/>
  <outline>
    <contour>
      <point x="389" y="-4" type="curve" smooth="yes"/>
      <point x="526" y="-4"/>
      <point x="597" y="60"/>
      <point x="623" y="189" type="curve" smooth="yes"/>
      <point x="640" y="273" type="line"/>
      <point x="941" y="273" type="line"/>
      <point x="956" y="340" type="line"/>
      <point x="654" y="340" type="line"/>
      <point x="690" y="509" type="line"/>
      <point x="807" y="509" type="line"/>
      <point x="822" y="576" type="line"/>
      <point x="364" y="576" type="line"/>
      <point x="306" y="303" type="line"/>
      <point x="375" y="303" type="line"/>
      <point x="418" y="509" type="line"/>
      <point x="512" y="509" type="line"/>
      <point x="477" y="340" type="line"/>
      <point x="373" y="340" type="line" smooth="yes"/>
      <point x="268" y="340"/>
      <point x="201" y="255"/>
      <point x="201" y="155" type="curve" smooth="yes"/>
      <point x="201" y="74"/>
      <point x="272" y="-4"/>
    </contour>
    <contour>
      <point x="355" y="78" type="curve" smooth="yes"/>
      <point x="307" y="78"/>
      <point x="271" y="111"/>
      <point x="271" y="166" type="curve" smooth="yes"/>
      <point x="271" y="226"/>
      <point x="302" y="273"/>
      <point x="367" y="273" type="curve" smooth="yes"/>
      <point x="462" y="273" type="line"/>
      <point x="443" y="177" type="line" smooth="yes"/>
      <point x="428" y="100"/>
      <point x="404" y="78"/>
    </contour>
    <contour>
      <point x="663" y="0" type="line"/>
      <point x="810" y="0" type="line"/>
      <point x="876" y="308" type="line"/>
      <point x="728" y="308" type="line"/>
    </contour>
    <contour>
      <point x="483" y="-275" type="curve" smooth="yes"/>
      <point x="731" y="-275"/>
      <point x="1005" y="-145"/>
      <point x="1005" y="99" type="curve" smooth="yes"/>
      <point x="1005" y="157"/>
      <point x="975" y="196"/>
      <point x="922" y="196" type="curve" smooth="yes"/>
      <point x="860" y="196"/>
      <point x="830" y="143"/>
      <point x="817" y="86" type="curve" smooth="yes"/>
      <point x="810" y="55" type="line"/>
      <point x="821" y="55" type="line"/>
      <point x="828" y="86" type="line" smooth="yes"/>
      <point x="832" y="104"/>
      <point x="843" y="117"/>
      <point x="862" y="117" type="curve" smooth="yes"/>
      <point x="880" y="117"/>
      <point x="891" y="104"/>
      <point x="891" y="79" type="curve" smooth="yes"/>
      <point x="891" y="-106"/>
      <point x="689" y="-203"/>
      <point x="477" y="-203" type="curve" smooth="yes"/>
      <point x="250" y="-203"/>
      <point x="95" y="-69"/>
      <point x="95" y="136" type="curve" smooth="yes"/>
      <point x="95" y="275"/>
      <point x="149" y="387"/>
      <point x="241" y="513" type="curve"/>
      <point x="184" y="546" type="line"/>
      <point x="88" y="408"/>
      <point x="22" y="298"/>
      <point x="22" y="131" type="curve" smooth="yes"/>
      <point x="22" y="-94"/>
      <point x="205" y="-275"/>
    </contour>
  </outline>
</glyph>
<glyph name="hii-tamil" format="2">
  <advance width="1473"/>
  <note>
uni0BB9
</note>
  <anchor x="672" y="0" name="bottom"/>
  <anchor x="650" y="-120" name="nukta"/>
  <anchor x="1479" y="929" name="top"/>
  <anchor x="816" y="576" name="vedic"/>
  <outline>
    <contour>
      <point x="109" y="-303" type="curve"/>
      <point x="127" y="-198"/>
      <point x="170" y="-137"/>
      <point x="274" y="-137" type="curve" smooth="yes"/>
      <point x="989" y="-137" type="line" smooth="yes"/>
      <point x="1288" y="-137"/>
      <point x="1449" y="85"/>
      <point x="1449" y="332" type="curve" smooth="yes"/>
      <point x="1449" y="501"/>
      <point x="1362" y="582"/>
      <point x="1245" y="582" type="curve" smooth="yes"/>
      <point x="1162" y="582"/>
      <point x="1100" y="543"/>
      <point x="1062" y="474" type="curve"/>
      <point x="1051" y="540"/>
      <point x="1006" y="581"/>
      <point x="939" y="581" type="curve" smooth="yes"/>
      <point x="866" y="581"/>
      <point x="802" y="536"/>
      <point x="782" y="440" type="curve" smooth="yes"/>
      <point x="703" y="67" type="line"/>
      <point x="526" y="67" type="line"/>
      <point x="607" y="131"/>
      <point x="676" y="227"/>
      <point x="676" y="342" type="curve" smooth="yes"/>
      <point x="676" y="511"/>
      <point x="540" y="582"/>
      <point x="389" y="582" type="curve" smooth="yes"/>
      <point x="184" y="582"/>
      <point x="28" y="409"/>
      <point x="28" y="214" type="curve" smooth="yes"/>
      <point x="28" y="96"/>
      <point x="89" y="-5"/>
      <point x="202" y="-5" type="curve" smooth="yes"/>
      <point x="314" y="-5"/>
      <point x="397" y="78"/>
      <point x="397" y="202" type="curve" smooth="yes"/>
      <point x="397" y="286"/>
      <point x="348" y="342"/>
      <point x="267" y="342" type="curve" smooth="yes"/>
      <point x="181" y="342"/>
      <point x="115" y="276"/>
      <point x="69" y="158" type="curve"/>
      <point x="98" y="125" type="line"/>
      <point x="132" y="210"/>
      <point x="160" y="235"/>
      <point x="193" y="235" type="curve" smooth="yes"/>
      <point x="221" y="235"/>
      <point x="238" y="208"/>
      <point x="238" y="174" type="curve" smooth="yes"/>
      <point x="238" y="116"/>
      <point x="208" y="77"/>
      <point x="165" y="77" type="curve" smooth="yes"/>
      <point x="123" y="77"/>
      <point x="100" y="140"/>
      <point x="100" y="218" type="curve" smooth="yes"/>
      <point x="100" y="373"/>
      <point x="216" y="504"/>
      <point x="349" y="504" type="curve" smooth="yes"/>
      <point x="445" y="504"/>
      <point x="505" y="449"/>
      <point x="505" y="326" type="curve" smooth="yes"/>
      <point x="505" y="226"/>
      <point x="468" y="130"/>
      <point x="411" y="48" type="curve"/>
      <point x="427" y="0" type="line"/>
      <point x="758" y="0" type="line"/>
      <point x="850" y="431" type="line" smooth="yes"/>
      <point x="861" y="482"/>
      <point x="881" y="505"/>
      <point x="918" y="505" type="curve" smooth="yes"/>
      <point x="964" y="505"/>
      <point x="969" y="458"/>
      <point x="959" y="411" type="curve" smooth="yes"/>
      <point x="872" y="0" type="line"/>
      <point x="1052" y="0" type="line"/>
      <point x="1137" y="398" type="line" smooth="yes"/>
      <point x="1152" y="469"/>
      <point x="1174" y="506"/>
      <point x="1219" y="506" type="curve" smooth="yes"/>
      <point x="1264" y="506"/>
      <point x="1280" y="461"/>
      <point x="1280" y="384" type="curve" smooth="yes"/>
      <point x="1280" y="145"/>
      <point x="1207" y="-79"/>
      <point x="962" y="-79" type="curve" smooth="yes"/>
      <point x="230" y="-79" type="line" smooth="yes"/>
      <point x="109" y="-79"/>
      <point x="0" y="-107"/>
      <point x="0" y="-213" type="curve" smooth="yes"/>
      <point x="0" y="-269"/>
      <point x="42" y="-303"/>
    </contour>
    <component base="iiMatra-tamil.alt01" xOffset="1470"/>
  </outline>
</glyph>
<glyph name="iMatra-tamil.alt01" format="2">
  <advance width="189"/>
  <note>
uni0BBF
</note>
  <anchor x="-16" y="846" name="top"/>
  <outline>
    <contour>
      <point x="-17" y="0" type="line"/>
      <point x="54" y="0" type="line"/>
      <point x="176" y="573" type="line" smooth="yes"/>
      <point x="209" y="726"/>
      <point x="130" y="846"/>
      <point x="-19" y="846" type="curve" smooth="yes"/>
      <point x="-144" y="846"/>
      <point x="-225" y="757"/>
      <point x="-225" y="648" type="curve" smooth="yes"/>
      <point x="-225" y="589"/>
      <point x="-194" y="550"/>
      <point x="-142" y="514" type="curve"/>
      <point x="-109" y="545" type="line"/>
      <point x="-130" y="568"/>
      <point x="-139" y="589"/>
      <point x="-139" y="613" type="curve" smooth="yes"/>
      <point x="-139" y="663"/>
      <point x="-99" y="705"/>
      <point x="-26" y="705" type="curve" smooth="yes"/>
      <point x="70" y="705"/>
      <point x="119" y="642"/>
      <point x="96" y="532" type="curve" smooth="yes"/>
    </contour>
  </outline>
</glyph>
<glyph name="iMatra-tamil.alt02" format="2">
  <advance width="200"/>
  <note>
uni0BBF
</note>
  <anchor x="-98" y="846" name="top"/>
  <outline>
    <contour>
      <point x="-6" y="0" type="line"/>
      <point x="64" y="0" type="line"/>
      <point x="177" y="528" type="line" smooth="yes"/>
      <point x="216" y="712"/>
      <point x="107" y="846"/>
      <point x="-98" y="846" type="curve" smooth="yes"/>
      <point x="-264" y="846"/>
      <point x="-376" y="742"/>
      <point x="-376" y="610" type="curve" smooth="yes"/>
      <point x="-376" y="562"/>
      <point x="-355" y="527"/>
      <point x="-330" y="500" type="curve"/>
      <point x="-284" y="528" type="line"/>
      <point x="-292" y="540"/>
      <point x="-294" y="559"/>
      <point x="-294" y="576" type="curve" smooth="yes"/>
      <point x="-294" y="656"/>
      <point x="-220" y="705"/>
      <point x="-115" y="705" type="curve" smooth="yes"/>
      <point x="23" y="705"/>
      <point x="126" y="627"/>
      <point x="97" y="488" type="curve" smooth="yes"/>
    </contour>
  </outline>
</glyph>
<glyph name="iiMatra-tamil.alt01" format="2">
  <note>
uni0BC0
</note>
  <anchor x="9" y="929" name="top"/>
  <outline>
    <contour>
      <point x="-151" y="517" type="curve"/>
      <point x="-111" y="548" type="line"/>
      <point x="-139" y="588"/>
      <point x="-152" y="635"/>
      <point x="-152" y="684" type="curve" smooth="yes"/>
      <point x="-152" y="772"/>
      <point x="-100" y="858"/>
      <point x="-10" y="858" type="curve" smooth="yes"/>
      <point x="41" y="858"/>
      <point x="63" y="832"/>
      <point x="63" y="785" type="curve" smooth="yes"/>
      <point x="63" y="745"/>
      <point x="45" y="704"/>
      <point x="5" y="704" type="curve" smooth="yes"/>
      <point x="-50" y="704"/>
      <point x="-38" y="810"/>
      <point x="8" y="880" type="curve"/>
      <point x="-36" y="885" type="line"/>
      <point x="-121" y="764"/>
      <point x="-106" y="612"/>
      <point x="31" y="612" type="curve" smooth="yes"/>
      <point x="113" y="612"/>
      <point x="191" y="676"/>
      <point x="191" y="776" type="curve" smooth="yes"/>
      <point x="191" y="870"/>
      <point x="118" y="929"/>
      <point x="9" y="929" type="curve" smooth="yes"/>
      <point x="-119" y="929"/>
      <point x="-220" y="822"/>
      <point x="-220" y="687" type="curve" smooth="yes"/>
      <point x="-220" y="620"/>
      <point x="-198" y="567"/>
    </contour>
  </outline>
</glyph>
<glyph name="iiMatra-tamil.alt02" format="2">
  <note>
uni0BC0
</note>
  <anchor x="-185" y="929" name="top"/>
  <outline>
    <contour>
      <point x="-335" y="513" type="curve"/>
      <point x="-298" y="550" type="line"/>
      <point x="-327" y="580"/>
      <point x="-346" y="619"/>
      <point x="-346" y="675" type="curve" smooth="yes"/>
      <point x="-346" y="766"/>
      <point x="-297" y="858"/>
      <point x="-205" y="858" type="curve" smooth="yes"/>
      <point x="-162" y="858"/>
      <point x="-137" y="831"/>
      <point x="-137" y="786" type="curve" smooth="yes"/>
      <point x="-137" y="735"/>
      <point x="-162" y="704"/>
      <point x="-196" y="704" type="curve" smooth="yes"/>
      <point x="-250" y="704"/>
      <point x="-230" y="811"/>
      <point x="-189" y="880" type="curve"/>
      <point x="-233" y="885" type="line"/>
      <point x="-316" y="761"/>
      <point x="-303" y="612"/>
      <point x="-172" y="612" type="curve" smooth="yes"/>
      <point x="-81" y="612"/>
      <point x="-9" y="678"/>
      <point x="-9" y="778" type="curve" smooth="yes"/>
      <point x="-9" y="879"/>
      <point x="-85" y="929"/>
      <point x="-185" y="929" type="curve" smooth="yes"/>
      <point x="-325" y="929"/>
      <point x="-413" y="809"/>
      <point x="-413" y="684" type="curve" smooth="yes"/>
      <point x="-413" y="606"/>
      <point x="-383" y="556"/>
    </contour>
  </outline>
</glyph>
<glyph name="jii-tamil" format="2">
  <advance width="842"/>
  <note>
uni0B9C
</note>
  <anchor x="355" y="0" name="bottom"/>
  <anchor x="284" y="-331" name="nukta"/>
  <anchor x="865" y="929" name="top"/>
  <anchor x="481" y="576" name="vedic"/>
  <outline>
    <contour>
      <point x="106" y="-331" type="curve" smooth="yes"/>
      <point x="296" y="-331"/>
      <point x="376" y="-29"/>
      <point x="500" y="-29" type="curve" smooth="yes"/>
      <point x="541" y="-29"/>
      <point x="559" y="-72"/>
      <point x="559" y="-112" type="curve" smooth="yes"/>
      <point x="559" y="-184"/>
      <point x="524" y="-251"/>
      <point x="451" y="-251" type="curve" smooth="yes"/>
      <point x="426" y="-251"/>
      <point x="398" y="-237"/>
      <point x="375" y="-222" type="curve"/>
      <point x="339" y="-280" type="line"/>
      <point x="375" y="-309"/>
      <point x="426" y="-331"/>
      <point x="487" y="-331" type="curve" smooth="yes"/>
      <point x="606" y="-331"/>
      <point x="713" y="-248"/>
      <point x="713" y="-107" type="curve" smooth="yes"/>
      <point x="713" y="-10"/>
      <point x="647" y="51"/>
      <point x="556" y="51" type="curve" smooth="yes"/>
      <point x="348" y="51"/>
      <point x="261" y="-248"/>
      <point x="159" y="-248" type="curve" smooth="yes"/>
      <point x="124" y="-248"/>
      <point x="102" y="-213"/>
      <point x="102" y="-163" type="curve" smooth="yes"/>
      <point x="102" y="23"/>
      <point x="198" y="59"/>
      <point x="402" y="82" type="curve" smooth="yes"/>
      <point x="650" y="110"/>
      <point x="814" y="180"/>
      <point x="814" y="399" type="curve" smooth="yes"/>
      <point x="814" y="500"/>
      <point x="750" y="582"/>
      <point x="641" y="582" type="curve" smooth="yes"/>
      <point x="564" y="582"/>
      <point x="502" y="544"/>
      <point x="462" y="471" type="curve"/>
      <point x="445" y="543"/>
      <point x="387" y="582"/>
      <point x="303" y="582" type="curve" smooth="yes"/>
      <point x="152" y="582"/>
      <point x="55" y="444"/>
      <point x="55" y="296" type="curve" smooth="yes"/>
      <point x="55" y="215"/>
      <point x="102" y="153"/>
      <point x="171" y="153" type="curve" smooth="yes"/>
      <point x="261" y="153"/>
      <point x="321" y="223"/>
      <point x="321" y="311" type="curve" smooth="yes"/>
      <point x="321" y="372"/>
      <point x="284" y="410"/>
      <point x="234" y="410" type="curve" smooth="yes"/>
      <point x="167" y="410"/>
      <point x="121" y="358"/>
      <point x="85" y="260" type="curve"/>
      <point x="110" y="243" type="line"/>
      <point x="134" y="308"/>
      <point x="162" y="337"/>
      <point x="185" y="337" type="curve" smooth="yes"/>
      <point x="206" y="337"/>
      <point x="216" y="322"/>
      <point x="216" y="297" type="curve" smooth="yes"/>
      <point x="216" y="264"/>
      <point x="198" y="226"/>
      <point x="162" y="226" type="curve" smooth="yes"/>
      <point x="135" y="226"/>
      <point x="122" y="256"/>
      <point x="122" y="298" type="curve" smooth="yes"/>
      <point x="122" y="404"/>
      <point x="184" y="509"/>
      <point x="292" y="509" type="curve" smooth="yes"/>
      <point x="361" y="509"/>
      <point x="404" y="475"/>
      <point x="388" y="400" type="curve" smooth="yes"/>
      <point x="347" y="208" type="line"/>
      <point x="472" y="208" type="line"/>
      <point x="513" y="396" type="line" smooth="yes"/>
      <point x="528" y="466"/>
      <point x="551" y="507"/>
      <point x="598" y="507" type="curve" smooth="yes"/>
      <point x="641" y="507"/>
      <point x="661" y="472"/>
      <point x="661" y="422" type="curve" smooth="yes"/>
      <point x="661" y="207"/>
      <point x="579" y="154"/>
      <point x="345" y="127" type="curve" smooth="yes"/>
      <point x="145" y="104"/>
      <point x="-52" y="47"/>
      <point x="-52" y="-154" type="curve" smooth="yes"/>
      <point x="-52" y="-248"/>
      <point x="1" y="-331"/>
    </contour>
    <component base="iiMatra-tamil.alt01" xOffset="856"/>
  </outline>
</glyph>
<glyph name="kii-tamil" format="2">
  <advance width="744"/>
  <note>
uni0B95
</note>
  <anchor x="310" y="0" name="bottom"/>
  <anchor x="310" y="0" name="nukta"/>
  <anchor x="646" y="929" name="top"/>
  <anchor x="433" y="576" name="vedic"/>
  <outline>
    <contour>
      <point x="202" y="-4" type="curve" smooth="yes"/>
      <point x="339" y="-4"/>
      <point x="410" y="60"/>
      <point x="436" y="189" type="curve" smooth="yes"/>
      <point x="453" y="273" type="line"/>
      <point x="469" y="273" type="line" smooth="yes"/>
      <point x="503" y="273"/>
      <point x="522" y="247"/>
      <point x="522" y="198" type="curve" smooth="yes"/>
      <point x="522" y="129"/>
      <point x="492" y="63"/>
      <point x="432" y="63" type="curve" smooth="yes"/>
      <point x="423" y="63" type="line"/>
      <point x="409" y="-4" type="line"/>
      <point x="461" y="-4" type="line" smooth="yes"/>
      <point x="595" y="-4"/>
      <point x="687" y="66"/>
      <point x="687" y="196" type="curve" smooth="yes"/>
      <point x="687" y="296"/>
      <point x="611" y="340"/>
      <point x="497" y="340" type="curve" smooth="yes"/>
      <point x="467" y="340" type="line"/>
      <point x="503" y="509" type="line"/>
      <point x="620" y="509" type="line"/>
      <point x="635" y="576" type="line"/>
      <point x="177" y="576" type="line"/>
      <point x="119" y="303" type="line"/>
      <point x="188" y="303" type="line"/>
      <point x="231" y="509" type="line"/>
      <point x="325" y="509" type="line"/>
      <point x="290" y="340" type="line"/>
      <point x="186" y="340" type="line" smooth="yes"/>
      <point x="81" y="340"/>
      <point x="14" y="255"/>
      <point x="14" y="155" type="curve" smooth="yes"/>
      <point x="14" y="74"/>
      <point x="85" y="-4"/>
    </contour>
    <contour>
      <point x="168" y="78" type="curve" smooth="yes"/>
      <point x="120" y="78"/>
      <point x="84" y="111"/>
      <point x="84" y="166" type="curve" smooth="yes"/>
      <point x="84" y="226"/>
      <point x="115" y="273"/>
      <point x="180" y="273" type="curve" smooth="yes"/>
      <point x="275" y="273" type="line"/>
      <point x="256" y="177" type="line" smooth="yes"/>
      <point x="241" y="100"/>
      <point x="217" y="78"/>
    </contour>
    <component base="iiMatra-tamil" xOffset="542"/>
  </outline>
</glyph>
<glyph name="kssa-tamil" format="2">
  <advance width="1625"/>
  <note>
g76
</note>
  <anchor x="760" y="0" name="bottom"/>
  <anchor x="593" y="0" name="nukta"/>
  <anchor x="892" y="576" name="top"/>
  <anchor x="888" y="576" name="vedic"/>
  <outline>
    <contour>
      <point x="603" y="-5" type="curve" smooth="yes"/>
      <point x="701" y="-5"/>
      <point x="777" y="72"/>
      <point x="777" y="179" type="curve" smooth="yes"/>
      <point x="777" y="295"/>
      <point x="685" y="340"/>
      <point x="585" y="340" type="curve" smooth="yes"/>
      <point x="467" y="340" type="line"/>
      <point x="503" y="509" type="line"/>
      <point x="620" y="509" type="line"/>
      <point x="635" y="576" type="line"/>
      <point x="177" y="576" type="line"/>
      <point x="119" y="303" type="line"/>
      <point x="188" y="303" type="line"/>
      <point x="231" y="509" type="line"/>
      <point x="325" y="509" type="line"/>
      <point x="290" y="340" type="line"/>
      <point x="186" y="340" type="line" smooth="yes"/>
      <point x="81" y="340"/>
      <point x="14" y="255"/>
      <point x="14" y="155" type="curve" smooth="yes"/>
      <point x="14" y="74"/>
      <point x="85" y="-4"/>
      <point x="202" y="-4" type="curve" smooth="yes"/>
      <point x="339" y="-4"/>
      <point x="410" y="60"/>
      <point x="436" y="189" type="curve" smooth="yes"/>
      <point x="453" y="273" type="line"/>
      <point x="561" y="273" type="line" smooth="yes"/>
      <point x="604" y="273"/>
      <point x="631" y="249"/>
      <point x="631" y="178" type="curve" smooth="yes"/>
      <point x="631" y="135"/>
      <point x="613" y="76"/>
      <point x="572" y="76" type="curve" smooth="yes"/>
      <point x="551" y="76"/>
      <point x="538" y="102"/>
      <point x="538" y="144" type="curve" smooth="yes"/>
      <point x="538" y="246"/>
      <point x="614" y="365"/>
      <point x="730" y="365" type="curve" smooth="yes"/>
      <point x="803" y="365"/>
      <point x="860" y="325"/>
      <point x="860" y="234" type="curve" smooth="yes"/>
      <point x="860" y="157"/>
      <point x="837" y="103"/>
      <point x="787" y="43" type="curve"/>
      <point x="797" y="0" type="line"/>
      <point x="1520" y="0" type="line"/>
      <point x="1590" y="325" type="line"/>
      <point x="1423" y="275" type="line"/>
      <point x="1379" y="67" type="line"/>
      <point x="840" y="67" type="line"/>
      <point x="847" y="29" type="line"/>
      <point x="931" y="78"/>
      <point x="989" y="159"/>
      <point x="989" y="255" type="curve" smooth="yes"/>
      <point x="989" y="376"/>
      <point x="894" y="439"/>
      <point x="766" y="439" type="curve" smooth="yes"/>
      <point x="604" y="439"/>
      <point x="477" y="306"/>
      <point x="477" y="136" type="curve" smooth="yes"/>
      <point x="477" y="55"/>
      <point x="516" y="-5"/>
    </contour>
    <contour>
      <point x="168" y="78" type="curve" smooth="yes"/>
      <point x="120" y="78"/>
      <point x="84" y="111"/>
      <point x="84" y="166" type="curve" smooth="yes"/>
      <point x="84" y="226"/>
      <point x="115" y="273"/>
      <point x="180" y="273" type="curve" smooth="yes"/>
      <point x="275" y="273" type="line"/>
      <point x="256" y="177" type="line" smooth="yes"/>
      <point x="241" y="100"/>
      <point x="217" y="78"/>
    </contour>
    <contour>
      <point x="1053" y="-275" type="line"/>
      <point x="1213" y="-275" type="line"/>
      <point x="1357" y="403" type="line" smooth="yes"/>
      <point x="1379" y="505"/>
      <point x="1341" y="582"/>
      <point x="1236" y="582" type="curve" smooth="yes"/>
      <point x="1119" y="582"/>
      <point x="1035" y="489"/>
      <point x="1035" y="367" type="curve" smooth="yes"/>
      <point x="1035" y="273"/>
      <point x="1105" y="202"/>
      <point x="1227" y="202" type="curve" smooth="yes"/>
      <point x="1357" y="202"/>
      <point x="1453" y="241"/>
      <point x="1588" y="318" type="curve"/>
      <point x="1589" y="329" type="line"/>
      <point x="1566" y="378" type="line"/>
      <point x="1442" y="307"/>
      <point x="1343" y="267"/>
      <point x="1234" y="267" type="curve" smooth="yes"/>
      <point x="1143" y="267"/>
      <point x="1101" y="312"/>
      <point x="1101" y="379" type="curve" smooth="yes"/>
      <point x="1101" y="426"/>
      <point x="1127" y="475"/>
      <point x="1167" y="475" type="curve" smooth="yes"/>
      <point x="1196" y="475"/>
      <point x="1208" y="448"/>
      <point x="1200" y="412" type="curve" smooth="yes"/>
    </contour>
  </outline>
</glyph>
<glyph name="ku-tamil" format="2">
  <advance width="965"/>
  <note>
g101
</note>
  <anchor x="462" y="0" name="bottom"/>
  <anchor x="411" y="-275" name="nukta"/>
  <anchor x="629" y="576" name="top"/>
  <anchor x="630" y="576" name="vedic"/>
  <outline>
    <contour>
      <point x="411" y="-275" type="curve" smooth="yes"/>
      <point x="655" y="-275"/>
      <point x="893" y="-137"/>
      <point x="893" y="122" type="curve" smooth="yes"/>
      <point x="893" y="268"/>
      <point x="796" y="340"/>
      <point x="635" y="340" type="curve" smooth="yes"/>
      <point x="387" y="340" type="line" smooth="yes"/>
      <point x="282" y="340"/>
      <point x="215" y="255"/>
      <point x="215" y="155" type="curve" smooth="yes"/>
      <point x="215" y="74"/>
      <point x="286" y="-4"/>
      <point x="403" y="-4" type="curve" smooth="yes"/>
      <point x="540" y="-4"/>
      <point x="610" y="60"/>
      <point x="637" y="189" type="curve" smooth="yes"/>
      <point x="704" y="509" type="line"/>
      <point x="821" y="509" type="line"/>
      <point x="836" y="576" type="line"/>
      <point x="378" y="576" type="line"/>
      <point x="320" y="303" type="line"/>
      <point x="389" y="303" type="line"/>
      <point x="432" y="509" type="line"/>
      <point x="526" y="509" type="line"/>
      <point x="457" y="177" type="line" smooth="yes"/>
      <point x="441" y="100"/>
      <point x="418" y="78"/>
      <point x="369" y="78" type="curve" smooth="yes"/>
      <point x="321" y="78"/>
      <point x="285" y="111"/>
      <point x="285" y="166" type="curve" smooth="yes"/>
      <point x="285" y="226"/>
      <point x="316" y="273"/>
      <point x="381" y="273" type="curve" smooth="yes"/>
      <point x="607" y="273" type="line" smooth="yes"/>
      <point x="696" y="273"/>
      <point x="731" y="228"/>
      <point x="731" y="140" type="curve" smooth="yes"/>
      <point x="731" y="-62"/>
      <point x="592" y="-202"/>
      <point x="401" y="-202" type="curve" smooth="yes"/>
      <point x="229" y="-202"/>
      <point x="90" y="-82"/>
      <point x="90" y="115" type="curve" smooth="yes"/>
      <point x="90" y="276"/>
      <point x="156" y="386"/>
      <point x="275" y="506" type="curve"/>
      <point x="228" y="549" type="line"/>
      <point x="97" y="414"/>
      <point x="17" y="288"/>
      <point x="17" y="105" type="curve" smooth="yes"/>
      <point x="17" y="-122"/>
      <point x="184" y="-275"/>
    </contour>
  </outline>
</glyph>
<glyph name="kuu-tamil" format="2">
  <advance width="1088"/>
  <note>
g102
</note>
  <anchor x="475" y="0" name="bottom"/>
  <anchor x="475" y="0" name="nukta"/>
  <anchor x="430" y="576" name="top"/>
  <anchor x="622" y="576" name="vedic"/>
  <outline>
    <contour>
      <point x="603" y="-5" type="curve" smooth="yes"/>
      <point x="701" y="-5"/>
      <point x="777" y="72"/>
      <point x="777" y="179" type="curve" smooth="yes"/>
      <point x="777" y="300"/>
      <point x="685" y="340"/>
      <point x="585" y="340" type="curve" smooth="yes"/>
      <point x="467" y="340" type="line"/>
      <point x="503" y="509" type="line"/>
      <point x="620" y="509" type="line"/>
      <point x="635" y="576" type="line"/>
      <point x="177" y="576" type="line"/>
      <point x="119" y="303" type="line"/>
      <point x="188" y="303" type="line"/>
      <point x="231" y="509" type="line"/>
      <point x="325" y="509" type="line"/>
      <point x="290" y="340" type="line"/>
      <point x="186" y="340" type="line" smooth="yes"/>
      <point x="81" y="340"/>
      <point x="14" y="255"/>
      <point x="14" y="155" type="curve" smooth="yes"/>
      <point x="14" y="74"/>
      <point x="85" y="-4"/>
      <point x="202" y="-4" type="curve" smooth="yes"/>
      <point x="339" y="-4"/>
      <point x="410" y="60"/>
      <point x="436" y="189" type="curve" smooth="yes"/>
      <point x="453" y="273" type="line"/>
      <point x="561" y="273" type="line" smooth="yes"/>
      <point x="604" y="273"/>
      <point x="631" y="249"/>
      <point x="631" y="178" type="curve" smooth="yes"/>
      <point x="631" y="135"/>
      <point x="613" y="76"/>
      <point x="572" y="76" type="curve" smooth="yes"/>
      <point x="551" y="76"/>
      <point x="538" y="102"/>
      <point x="538" y="144" type="curve" smooth="yes"/>
      <point x="538" y="246"/>
      <point x="614" y="365"/>
      <point x="730" y="365" type="curve" smooth="yes"/>
      <point x="803" y="365"/>
      <point x="860" y="325"/>
      <point x="860" y="234" type="curve" smooth="yes"/>
      <point x="860" y="157"/>
      <point x="837" y="103"/>
      <point x="787" y="43" type="curve"/>
      <point x="797" y="0" type="line"/>
      <point x="1015" y="0" type="line"/>
      <point x="1029" y="67" type="line"/>
      <point x="840" y="67" type="line"/>
      <point x="847" y="29" type="line"/>
      <point x="931" y="78"/>
      <point x="989" y="161"/>
      <point x="989" y="257" type="curve" smooth="yes"/>
      <point x="989" y="378"/>
      <point x="892" y="439"/>
      <point x="769" y="439" type="curve" smooth="yes"/>
      <point x="607" y="439"/>
      <point x="477" y="306"/>
      <point x="477" y="136" type="curve" smooth="yes"/>
      <point x="477" y="55"/>
      <point x="524" y="-5"/>
    </contour>
    <contour>
      <point x="168" y="78" type="curve" smooth="yes"/>
      <point x="120" y="78"/>
      <point x="84" y="111"/>
      <point x="84" y="166" type="curve" smooth="yes"/>
      <point x="84" y="226"/>
      <point x="115" y="273"/>
      <point x="180" y="273" type="curve" smooth="yes"/>
      <point x="275" y="273" type="line"/>
      <point x="256" y="177" type="line" smooth="yes"/>
      <point x="241" y="100"/>
      <point x="217" y="78"/>
    </contour>
  </outline>
</glyph>
<glyph name="li-tamil" format="2">
  <advance width="1120"/>
  <note>
g134
</note>
  <anchor x="512" y="0" name="bottom"/>
  <anchor x="512" y="0" name="nukta"/>
  <anchor x="963" y="846" name="top"/>
  <anchor x="628" y="576" name="vedic"/>
  <outline>
    <contour>
      <point x="202" y="-5" type="curve" smooth="yes"/>
      <point x="314" y="-5"/>
      <point x="397" y="78"/>
      <point x="397" y="202" type="curve" smooth="yes"/>
      <point x="397" y="286"/>
      <point x="348" y="342"/>
      <point x="267" y="342" type="curve" smooth="yes"/>
      <point x="181" y="342"/>
      <point x="115" y="276"/>
      <point x="69" y="158" type="curve"/>
      <point x="98" y="125" type="line"/>
      <point x="132" y="210"/>
      <point x="160" y="235"/>
      <point x="193" y="235" type="curve" smooth="yes"/>
      <point x="221" y="235"/>
      <point x="238" y="208"/>
      <point x="238" y="174" type="curve" smooth="yes"/>
      <point x="238" y="116"/>
      <point x="208" y="77"/>
      <point x="165" y="77" type="curve" smooth="yes"/>
      <point x="123" y="77"/>
      <point x="100" y="140"/>
      <point x="100" y="218" type="curve" smooth="yes"/>
      <point x="100" y="373"/>
      <point x="226" y="504"/>
      <point x="359" y="504" type="curve" smooth="yes"/>
      <point x="486" y="504"/>
      <point x="510" y="414"/>
      <point x="479" y="278" type="curve" smooth="yes"/>
      <point x="456" y="176" type="line" smooth="yes"/>
      <point x="431" y="65"/>
      <point x="480" y="-5"/>
      <point x="597" y="-5" type="curve" smooth="yes"/>
      <point x="749" y="-5"/>
      <point x="869" y="110"/>
      <point x="869" y="292" type="curve" smooth="yes"/>
      <point x="869" y="440"/>
      <point x="839" y="477"/>
      <point x="839" y="589" type="curve" smooth="yes"/>
      <point x="839" y="634"/>
      <point x="861" y="705"/>
      <point x="949" y="705" type="curve" smooth="yes"/>
      <point x="1038" y="705"/>
      <point x="1047" y="636"/>
      <point x="1029" y="550" type="curve" smooth="yes"/>
      <point x="914" y="0" type="line"/>
      <point x="985" y="0" type="line"/>
      <point x="1110" y="591" type="line" smooth="yes"/>
      <point x="1141" y="739"/>
      <point x="1096" y="846"/>
      <point x="963" y="846" type="curve" smooth="yes"/>
      <point x="834" y="846"/>
      <point x="762" y="734"/>
      <point x="762" y="615" type="curve" smooth="yes"/>
      <point x="762" y="477"/>
      <point x="797" y="426"/>
      <point x="797" y="284" type="curve" smooth="yes"/>
      <point x="797" y="148"/>
      <point x="716" y="83"/>
      <point x="661" y="83" type="curve" smooth="yes"/>
      <point x="626" y="83"/>
      <point x="619" y="120"/>
      <point x="629" y="165" type="curve" smooth="yes"/>
      <point x="658" y="291" type="line" smooth="yes"/>
      <point x="701" y="476"/>
      <point x="607" y="581"/>
      <point x="410" y="581" type="curve" smooth="yes"/>
      <point x="195" y="581"/>
      <point x="28" y="409"/>
      <point x="28" y="214" type="curve" smooth="yes"/>
      <point x="28" y="96"/>
      <point x="89" y="-5"/>
    </contour>
  </outline>
</glyph>
<glyph name="lii-tamil" format="2">
  <advance width="939"/>
  <note>
g135
</note>
  <anchor x="420" y="0" name="bottom"/>
  <anchor x="431" y="0" name="nukta"/>
  <anchor x="896" y="899" name="top"/>
  <anchor x="588" y="576" name="vedic"/>
  <outline>
    <contour>
      <point x="202" y="-5" type="curve" smooth="yes"/>
      <point x="314" y="-5"/>
      <point x="397" y="78"/>
      <point x="397" y="202" type="curve" smooth="yes"/>
      <point x="397" y="286"/>
      <point x="348" y="342"/>
      <point x="267" y="342" type="curve" smooth="yes"/>
      <point x="181" y="342"/>
      <point x="115" y="276"/>
      <point x="69" y="158" type="curve"/>
      <point x="98" y="125" type="line"/>
      <point x="132" y="210"/>
      <point x="160" y="235"/>
      <point x="193" y="235" type="curve" smooth="yes"/>
      <point x="221" y="235"/>
      <point x="238" y="208"/>
      <point x="238" y="174" type="curve" smooth="yes"/>
      <point x="238" y="116"/>
      <point x="208" y="77"/>
      <point x="165" y="77" type="curve" smooth="yes"/>
      <point x="123" y="77"/>
      <point x="100" y="140"/>
      <point x="100" y="218" type="curve" smooth="yes"/>
      <point x="100" y="373"/>
      <point x="226" y="504"/>
      <point x="359" y="504" type="curve" smooth="yes"/>
      <point x="454" y="504"/>
      <point x="491" y="454"/>
      <point x="491" y="372" type="curve" smooth="yes"/>
      <point x="491" y="344"/>
      <point x="487" y="313"/>
      <point x="479" y="278" type="curve" smooth="yes"/>
      <point x="456" y="176" type="line" smooth="yes"/>
      <point x="452" y="157"/>
      <point x="450" y="139"/>
      <point x="450" y="123" type="curve" smooth="yes"/>
      <point x="450" y="43"/>
      <point x="500" y="-5"/>
      <point x="597" y="-5" type="curve" smooth="yes"/>
      <point x="749" y="-5"/>
      <point x="869" y="110"/>
      <point x="869" y="292" type="curve" smooth="yes"/>
      <point x="869" y="440"/>
      <point x="755" y="557"/>
      <point x="755" y="669" type="curve" smooth="yes"/>
      <point x="755" y="751"/>
      <point x="799" y="828"/>
      <point x="871" y="828" type="curve" smooth="yes"/>
      <point x="919" y="828"/>
      <point x="940" y="799"/>
      <point x="940" y="752" type="curve" smooth="yes"/>
      <point x="940" y="712"/>
      <point x="924" y="674"/>
      <point x="890" y="674" type="curve" smooth="yes"/>
      <point x="865" y="674"/>
      <point x="854" y="696"/>
      <point x="854" y="726" type="curve" smooth="yes"/>
      <point x="854" y="763"/>
      <point x="870" y="812"/>
      <point x="895" y="850" type="curve"/>
      <point x="851" y="855" type="line"/>
      <point x="816" y="805"/>
      <point x="797" y="749"/>
      <point x="797" y="701" type="curve" smooth="yes"/>
      <point x="797" y="634"/>
      <point x="834" y="582"/>
      <point x="913" y="582" type="curve" smooth="yes"/>
      <point x="993" y="582"/>
      <point x="1068" y="643"/>
      <point x="1068" y="743" type="curve" smooth="yes"/>
      <point x="1068" y="837"/>
      <point x="1005" y="899"/>
      <point x="896" y="899" type="curve" smooth="yes"/>
      <point x="780" y="899"/>
      <point x="687" y="792"/>
      <point x="687" y="662" type="curve" smooth="yes"/>
      <point x="687" y="524"/>
      <point x="797" y="426"/>
      <point x="797" y="284" type="curve" smooth="yes"/>
      <point x="797" y="148"/>
      <point x="716" y="83"/>
      <point x="661" y="83" type="curve" smooth="yes"/>
      <point x="635" y="83"/>
      <point x="625" y="103"/>
      <point x="625" y="131" type="curve" smooth="yes"/>
      <point x="625" y="141"/>
      <point x="626" y="153"/>
      <point x="629" y="165" type="curve" smooth="yes"/>
      <point x="658" y="291" type="line" smooth="yes"/>
      <point x="665" y="321"/>
      <point x="668" y="348"/>
      <point x="668" y="374" type="curve" smooth="yes"/>
      <point x="668" y="507"/>
      <point x="575" y="581"/>
      <point x="410" y="581" type="curve" smooth="yes"/>
      <point x="195" y="581"/>
      <point x="28" y="409"/>
      <point x="28" y="214" type="curve" smooth="yes"/>
      <point x="28" y="96"/>
      <point x="89" y="-5"/>
    </contour>
  </outline>
</glyph>
<glyph name="llii-tamil" format="2">
  <advance width="1106"/>
  <note>
uni0BB3
</note>
  <anchor x="492" y="0" name="bottom"/>
  <anchor x="494" y="0" name="nukta"/>
  <anchor x="1103" y="929" name="top"/>
  <anchor x="631" y="576" name="vedic"/>
  <outline>
    <contour>
      <point x="203" y="-5" type="curve" smooth="yes"/>
      <point x="315" y="-5"/>
      <point x="398" y="78"/>
      <point x="398" y="202" type="curve" smooth="yes"/>
      <point x="398" y="286"/>
      <point x="349" y="342"/>
      <point x="268" y="342" type="curve" smooth="yes"/>
      <point x="182" y="342"/>
      <point x="116" y="276"/>
      <point x="70" y="158" type="curve"/>
      <point x="99" y="125" type="line"/>
      <point x="133" y="210"/>
      <point x="161" y="235"/>
      <point x="194" y="235" type="curve" smooth="yes"/>
      <point x="222" y="235"/>
      <point x="239" y="208"/>
      <point x="239" y="174" type="curve" smooth="yes"/>
      <point x="239" y="116"/>
      <point x="209" y="77"/>
      <point x="166" y="77" type="curve" smooth="yes"/>
      <point x="124" y="77"/>
      <point x="101" y="140"/>
      <point x="101" y="218" type="curve" smooth="yes"/>
      <point x="101" y="373"/>
      <point x="203" y="501"/>
      <point x="360" y="501" type="curve" smooth="yes"/>
      <point x="476" y="501"/>
      <point x="549" y="436"/>
      <point x="523" y="299" type="curve"/>
      <point x="593" y="315" type="line"/>
      <point x="616" y="483"/>
      <point x="521" y="581"/>
      <point x="366" y="581" type="curve" smooth="yes"/>
      <point x="173" y="581"/>
      <point x="29" y="409"/>
      <point x="29" y="214" type="curve" smooth="yes"/>
      <point x="29" y="96"/>
      <point x="90" y="-5"/>
    </contour>
    <contour>
      <point x="459" y="0" type="line"/>
      <point x="632" y="0" type="line"/>
      <point x="740" y="509" type="line"/>
      <point x="875" y="509" type="line"/>
      <point x="767" y="0" type="line"/>
      <point x="941" y="0" type="line"/>
      <point x="1049" y="509" type="line"/>
      <point x="1141" y="509" type="line"/>
      <point x="1155" y="576" type="line"/>
      <point x="624" y="576" type="line"/>
      <point x="572" y="333" type="line"/>
      <point x="534" y="353" type="line"/>
    </contour>
    <component base="iiMatra-tamil" xOffset="997"/>
  </outline>
</glyph>
<glyph name="lllu-tamil" format="2">
  <advance width="994"/>
  <note>
g140
</note>
  <anchor x="413" y="0" name="bottom"/>
  <anchor x="465" y="-322" name="nukta"/>
  <anchor x="740" y="576" name="top"/>
  <anchor x="739" y="576" name="vedic"/>
  <outline>
    <contour>
      <point x="234" y="0" type="line"/>
      <point x="754" y="0" type="line" smooth="yes"/>
      <point x="898" y="0"/>
      <point x="959" y="188"/>
      <point x="959" y="355" type="curve" smooth="yes"/>
      <point x="959" y="505"/>
      <point x="885" y="582"/>
      <point x="787" y="582" type="curve" smooth="yes"/>
      <point x="680" y="582"/>
      <point x="632" y="508"/>
      <point x="614" y="422" type="curve" smooth="yes"/>
      <point x="487" y="-176" type="line"/>
      <point x="661" y="-176" type="line"/>
      <point x="790" y="428" type="line" smooth="yes"/>
      <point x="798" y="467"/>
      <point x="809" y="484"/>
      <point x="833" y="484" type="curve" smooth="yes"/>
      <point x="861" y="484"/>
      <point x="888" y="447"/>
      <point x="888" y="348" type="curve" smooth="yes"/>
      <point x="888" y="242"/>
      <point x="848" y="67"/>
      <point x="764" y="67" type="curve" smooth="yes"/>
      <point x="422" y="67" type="line"/>
      <point x="530" y="576" type="line"/>
      <point x="356" y="576" type="line"/>
    </contour>
    <contour>
      <point x="465" y="-322" type="curve" smooth="yes"/>
      <point x="616" y="-322"/>
      <point x="837" y="-248"/>
      <point x="837" y="-97" type="curve" smooth="yes"/>
      <point x="837" y="-52"/>
      <point x="805" y="-25"/>
      <point x="766" y="-25" type="curve" smooth="yes"/>
      <point x="711" y="-25"/>
      <point x="667" y="-73"/>
      <point x="655" y="-130" type="curve" smooth="yes"/>
      <point x="652" y="-144" type="line"/>
      <point x="667" y="-144" type="line"/>
      <point x="671" y="-129" type="line" smooth="yes"/>
      <point x="674" y="-116"/>
      <point x="681" y="-110"/>
      <point x="694" y="-110" type="curve" smooth="yes"/>
      <point x="705" y="-110"/>
      <point x="714" y="-117"/>
      <point x="714" y="-130" type="curve" smooth="yes"/>
      <point x="714" y="-214"/>
      <point x="574" y="-250"/>
      <point x="452" y="-250" type="curve" smooth="yes"/>
      <point x="214" y="-250"/>
      <point x="87" y="-75"/>
      <point x="87" y="113" type="curve" smooth="yes"/>
      <point x="87" y="264"/>
      <point x="169" y="404"/>
      <point x="263" y="542" type="curve"/>
      <point x="206" y="574" type="line"/>
      <point x="101" y="414"/>
      <point x="13" y="270"/>
      <point x="13" y="92" type="curve" smooth="yes"/>
      <point x="13" y="-125"/>
      <point x="181" y="-322"/>
    </contour>
  </outline>
</glyph>
<glyph name="llluu-tamil" format="2">
  <advance width="1107"/>
  <note>
g141
</note>
  <anchor x="515" y="0" name="bottom"/>
  <anchor x="530" y="-322" name="nukta"/>
  <anchor x="850" y="576" name="top"/>
  <anchor x="849" y="576" name="vedic"/>
  <outline>
    <contour>
      <point x="530" y="-322" type="curve" smooth="yes"/>
      <point x="746" y="-322"/>
      <point x="950" y="-248"/>
      <point x="950" y="-97" type="curve" smooth="yes"/>
      <point x="950" y="-52"/>
      <point x="918" y="-25"/>
      <point x="879" y="-25" type="curve" smooth="yes"/>
      <point x="824" y="-25"/>
      <point x="780" y="-73"/>
      <point x="768" y="-130" type="curve" smooth="yes"/>
      <point x="765" y="-144" type="line"/>
      <point x="780" y="-144" type="line"/>
      <point x="784" y="-129" type="line" smooth="yes"/>
      <point x="787" y="-116"/>
      <point x="794" y="-110"/>
      <point x="807" y="-110" type="curve" smooth="yes"/>
      <point x="818" y="-110"/>
      <point x="827" y="-117"/>
      <point x="827" y="-130" type="curve" smooth="yes"/>
      <point x="827" y="-214"/>
      <point x="684" y="-250"/>
      <point x="522" y="-250" type="curve" smooth="yes"/>
      <point x="264" y="-250"/>
      <point x="105" y="-56"/>
      <point x="105" y="192" type="curve" smooth="yes"/>
      <point x="105" y="320"/>
      <point x="166" y="487"/>
      <point x="246" y="487" type="curve" smooth="yes"/>
      <point x="269" y="487"/>
      <point x="282" y="471"/>
      <point x="282" y="447" type="curve" smooth="yes"/>
      <point x="282" y="390"/>
      <point x="232" y="354"/>
      <point x="160" y="354" type="curve" smooth="yes"/>
      <point x="143" y="354"/>
      <point x="124" y="356"/>
      <point x="105" y="360" type="curve"/>
      <point x="87" y="298" type="line"/>
      <point x="115" y="292"/>
      <point x="143" y="289"/>
      <point x="169" y="289" type="curve" smooth="yes"/>
      <point x="297" y="289"/>
      <point x="400" y="354"/>
      <point x="400" y="471" type="curve" smooth="yes"/>
      <point x="400" y="539"/>
      <point x="353" y="581"/>
      <point x="282" y="581" type="curve" smooth="yes"/>
      <point x="136" y="581"/>
      <point x="32" y="363"/>
      <point x="32" y="182" type="curve" smooth="yes"/>
      <point x="32" y="-95"/>
      <point x="218" y="-322"/>
    </contour>
    <contour>
      <point x="347" y="0" type="line"/>
      <point x="867" y="0" type="line" smooth="yes"/>
      <point x="1011" y="0"/>
      <point x="1072" y="188"/>
      <point x="1072" y="355" type="curve" smooth="yes"/>
      <point x="1072" y="505"/>
      <point x="998" y="582"/>
      <point x="900" y="582" type="curve" smooth="yes"/>
      <point x="793" y="582"/>
      <point x="745" y="508"/>
      <point x="727" y="422" type="curve" smooth="yes"/>
      <point x="600" y="-176" type="line"/>
      <point x="774" y="-176" type="line"/>
      <point x="903" y="428" type="line" smooth="yes"/>
      <point x="911" y="467"/>
      <point x="922" y="484"/>
      <point x="946" y="484" type="curve" smooth="yes"/>
      <point x="974" y="484"/>
      <point x="1001" y="447"/>
      <point x="1001" y="348" type="curve" smooth="yes"/>
      <point x="1001" y="242"/>
      <point x="961" y="67"/>
      <point x="877" y="67" type="curve" smooth="yes"/>
      <point x="535" y="67" type="line"/>
      <point x="643" y="576" type="line"/>
      <point x="469" y="576" type="line"/>
    </contour>
  </outline>
</glyph>
